<svg version="1.1" id="crime" xmlns="http://www.w3.org/2000/svg" xmlns:xlink="http://www.w3.org/1999/xlink" x="0px" y="0px"
	 width="50px" height="50px" viewBox="130.21 130.21 50 50" enable-background="new 130.21 130.21 50 50" xml:space="preserve">

	<defs>
		<style type="text/css">
	#crime:hover .st0 
	{
		fill: #1b1b1a;
	}
	 	</style>
	</defs>
<g id="group">
	<g>
		<path class="st0" fill="#DFAF8E" d="M173.548,164.468c7.608-7.608,7.608-19.987,0-27.595c-7.607-7.608-19.987-7.608-27.594,0
			c-6.455,6.455-7.432,16.054-2.936,23.549c0,0,0.323,0.542-0.113,0.979c-2.489,2.488-9.956,9.955-9.956,9.955
			c-1.981,1.981-2.454,4.752-0.696,6.51l0.303,0.303c1.757,1.757,4.528,1.285,6.509-0.696c0,0,7.451-7.451,9.935-9.934
			c0.457-0.458,0.999-0.135,0.999-0.135C157.494,171.899,167.095,170.922,173.548,164.468z M149.556,160.865
			c-5.622-5.622-5.622-14.768,0-20.39c5.621-5.621,14.768-5.621,20.389,0c5.622,5.622,5.622,14.769,0,20.39
			C164.324,166.486,155.177,166.486,149.556,160.865z"/>
		<g>
			<path class="st0" fill="#DFAF8E" d="M150.801,149.512c-0.262,0-0.528-0.052-0.784-0.16c-1.024-0.434-1.503-1.615-1.07-2.64
				c2.725-6.438,10.178-9.459,16.616-6.735c1.024,0.433,1.503,1.615,1.07,2.639c-0.434,1.024-1.615,1.503-2.64,1.07
				c-4.393-1.858-9.479,0.203-11.337,4.595C152.332,149.051,151.585,149.512,150.801,149.512z"/>
		</g>
	</g>
</g>
</svg>
