<svg version="1.1" id="drama" xmlns="http://www.w3.org/2000/svg" xmlns:xlink="http://www.w3.org/1999/xlink" x="0px" y="0px"
	 width="50px" height="50px" viewBox="393.696 393.696 50 50" enable-background="new 393.696 393.696 50 50" xml:space="preserve">
	 <defs>
		<style type="text/css">
	#drama:hover .st0 
	{
		fill: #1b1b1a;
	}
	 	</style>
	</defs>
<g id="group">
	<g>
		<path class="st0" fill="#DFAF8E" d="M428.457,396.927c-14.584,0-14.486,2.884-14.486,2.884v8.013c2.708-0.242,4.569-0.655,5.771-1.023
			c1.79-0.547,2.506-1.098,2.633-1.205c0.269-0.329,0.646-0.496,1.048-0.496c0.166,0,0.336,0.028,0.504,0.087
			c0.581,0.201,0.936,0.79,0.936,1.404v11.585c1.131-0.561,2.348-0.846,3.659-0.851c0.349,0.017,0.723,0.04,1.244,0.108
			c0.467,0.089,0.887,0.174,1.321,0.326c0.854,0.298,1.684,0.721,2.427,1.324c1.336,1.056,2.496,2.691,2.729,4.62
			c0.038,0.318-0.207,0.503-0.516,0.421c-1.484-0.392-2.62-0.468-3.734-0.553l-1.795-0.078l-1.808-0.028
			c-1.032,0.011-2.271,0.018-3.475,0.096c-0.017,0.001-0.036,0.002-0.054,0.004c-0.005,3.197-0.723,6.207-1.978,8.826
			c1.716,0.837,3.599,1.302,5.574,1.302c8.003,0,14.491-7.587,14.491-16.94v-16.941C442.95,399.811,443.039,396.927,428.457,396.927
			z M438.054,412.655c-1.741,1.341-4.25,1.214-5.845-0.381c-1.597-1.596-1.724-4.104-0.384-5.846
			c0.196-0.253,0.566-0.251,0.793-0.026l5.46,5.461C438.305,412.09,438.308,412.46,438.054,412.655z"/>
		<path class="st0" fill="#DFAF8E" d="M423.422,406.591c0,0-2.64,2.884-14.489,2.884c-11.848,0-14.49-2.884-14.49-2.884v16.941
			c0,9.354,6.488,16.934,14.488,16.934c8.003,0,14.491-7.579,14.491-16.934V406.591L423.422,406.591z M399.032,421.836
			c-0.319,0-0.583-0.26-0.542-0.577c0.283-2.18,2.147-3.863,4.404-3.863s4.12,1.683,4.403,3.863
			c0.042,0.317-0.222,0.577-0.542,0.577H399.032z M416.713,427.565c-0.236,1.924-1.398,3.554-2.731,4.615
			c-1.523,1.178-3.224,1.752-5.119,1.758c-0.35-0.017-0.72-0.034-1.245-0.106c-0.467-0.091-0.887-0.169-1.321-0.328
			c-0.853-0.298-1.683-0.721-2.425-1.317c-1.334-1.055-2.497-2.696-2.731-4.625c-0.038-0.318,0.207-0.502,0.516-0.421
			c1.485,0.393,2.623,0.472,3.738,0.552l1.794,0.079l1.805,0.028c1.033-0.005,2.272-0.011,3.477-0.096
			c1.115-0.081,2.251-0.161,3.729-0.557C416.507,427.065,416.752,427.249,416.713,427.565z M418.832,421.836h-7.723
			c-0.32,0-0.583-0.26-0.542-0.577c0.283-2.18,2.147-3.863,4.404-3.863s4.12,1.683,4.403,3.863
			C419.415,421.576,419.152,421.836,418.832,421.836z"/>
	</g>
</g>
</svg>
