<svg version="1.1" id="horror" xmlns="http://www.w3.org/2000/svg" xmlns:xlink="http://www.w3.org/1999/xlink" x="0px" y="0px"
	 width="50px" height="50px" viewBox="91.191 103.516 50 50" enable-background="new 91.191 103.516 50 50" xml:space="preserve">
	 <defs>
		<style type="text/css">
	#horror:hover .st0 
	{
		fill: #1b1b1a;
	}
	 	</style>
	</defs>
<g id="group">
	<g>
		<path class="st0" fill="#DFAF8E" d="M141.232,137.296c0.516-4.768-8.207-15.223-12.445-16.818c-1.183-0.444-2.304-0.652-3.37-0.672v-0.004
			c-0.032,0-0.064,0.001-0.098,0.002c-0.031-0.001-0.064-0.002-0.097-0.002v0.004c-1.066,0.02-2.188,0.228-3.369,0.672
			c-4.239,1.596-12.961,12.051-12.446,16.818c0.359,3.321,3.052,6.189,4.319,9.188c0.313,0.74,0.142,1.547-0.281,2.358
			l-14.297-22.825c8.636-7.45,17.495-13.929,29.835-13.507c0.963,0.038,0.69-0.401,0.381-0.646
			c-6.374-5.031-17.36-3.223-24.245-0.282c-6.83,2.918-13.99,9.608-13.99,9.608s5.135,8.526,7.449,12.186
			c1.882,2.977,8.964,14.206,11.984,18.996c-0.404,0.417-0.771,0.805-1.051,1.144h1.772h29.844c-1.433-1.743-5.195-4.71-4.215-7.032
			C138.18,143.486,140.873,140.617,141.232,137.296z M125.319,129.566c0.002,0,0.004,0,0.005,0
			C125.323,129.566,125.321,129.566,125.319,129.566c-0.001,0-0.002,0-0.004,0C125.317,129.566,125.317,129.566,125.319,129.566z
			 M133.124,137.933c-0.614,3.151-3.83,10.31-7.805,10.546c-3.974-0.236-7.189-7.394-7.803-10.546
			c-1.104-5.665,1.146-8.361,7.803-8.361C131.979,129.571,134.227,132.268,133.124,137.933z"/>
		<path class="st0" fill="#DFAF8E" d="M121.94,133.843c-1.129,0-2.044,1.014-2.044,2.264c0,1.249,1.306,2.263,2.435,2.263
			c1.13,0,1.654-1.013,1.654-2.263S123.07,133.843,121.94,133.843z"/>
		<path class="st0" fill="#DFAF8E" d="M128.996,133.843c-1.129,0-2.044,1.014-2.044,2.264c0,1.249,0.525,2.263,1.654,2.263
			c1.13,0,2.436-1.013,2.436-2.263S130.126,133.843,128.996,133.843z"/>
	</g>
</g>
</svg>
