<?xml version="1.0" encoding="utf-8"?>
<!-- Generator: Adobe Illustrator 16.0.0, SVG Export Plug-In . SVG Version: 6.00 Build 0)  -->
<!DOCTYPE svg PUBLIC "-//W3C//DTD SVG 1.1//EN" "http://www.w3.org/Graphics/SVG/1.1/DTD/svg11.dtd">
<svg version="1.1" id="Capa_1" xmlns="http://www.w3.org/2000/svg" xmlns:xlink="http://www.w3.org/1999/xlink" x="0px" y="0px"
	 width="300px" height="156px" viewBox="-142 -67.995 300 156" enable-background="new -142 -67.995 300 156" xml:space="preserve">
<g id="XMLID_151_">
	<path id="XMLID_167_" fill="#D4AF8E" d="M-46.3-29.323c-2.939,0-5.324,2.385-5.324,5.324v15.313c0,2.939,2.385,5.328,5.324,5.328
		h1.77c-0.084-1.325-0.204-2.64-0.204-3.977c0-8.296,0.678-15.564,1.861-21.989H-46.3L-46.3-29.323z"/>
	<path id="XMLID_166_" fill="#D4AF8E" d="M62.3-29.323h-3.431c1.188,6.424,1.865,13.693,1.865,21.989
		c0,1.337-0.117,2.651-0.205,3.977H62.3c2.942,0,5.324-2.389,5.324-5.328v-15.313C67.624-26.938,65.242-29.323,62.3-29.323z"/>
	<path id="XMLID_152_" fill="#D4AF8E" d="M8.001-67c-33.77,0-44.786,26.712-44.786,59.666c0,32.95,27.815,59.666,44.786,59.666
		c16.97,0,44.779-26.716,44.779-59.666C52.78-40.288,41.768-67,8.001-67z M15.955-51.923c2.665,0,4.836,2.17,4.836,4.844
		c0,2.676-2.171,4.847-4.836,4.847c-2.68,0-4.851-2.17-4.851-4.847C11.104-49.753,13.275-51.923,15.955-51.923z M0.052-51.923
		c2.673,0,4.843,2.17,4.843,4.844c0,2.676-2.17,4.847-4.843,4.847c-2.677,0-4.844-2.17-4.844-4.847
		C-4.792-49.753-2.625-51.923,0.052-51.923z M-7.898,25.34c-2.673,0-4.843-2.171-4.843-4.844s2.17-4.844,4.843-4.844
		c2.673,0,4.844,2.171,4.844,4.844S-5.225,25.34-7.898,25.34z M-7.898,9.44c-2.673,0-4.843-2.164-4.843-4.844
		c0-2.674,2.17-4.844,4.843-4.844c2.673,0,4.844,2.17,4.844,4.844C-3.055,7.276-5.225,9.44-7.898,9.44z M-12.254-6.365
		c-7.607,0-13.78-4.159-13.78-9.286c0-5.128,6.173-9.287,13.78-9.287c7.619,0,13.784,4.159,13.784,9.287
		C1.53-10.524-4.635-6.365-12.254-6.365z M8.001,41.247c-2.673,0-4.843-2.171-4.843-4.851c0-2.674,2.17-4.844,4.843-4.844
		s4.844,2.17,4.844,4.844C12.846,39.076,10.675,41.247,8.001,41.247z M8.001,25.34c-2.673,0-4.843-2.171-4.843-4.844
		s2.17-4.844,4.843-4.844s4.844,2.171,4.844,4.844S10.675,25.34,8.001,25.34z M8.001,9.44c-2.673,0-4.843-2.164-4.843-4.844
		c0-2.674,2.17-4.844,4.843-4.844s4.844,2.17,4.844,4.844C12.846,7.276,10.675,9.44,8.001,9.44z M8.001-26.333
		c-2.673,0-4.843-2.17-4.843-4.847c0-2.673,2.17-4.843,4.843-4.843s4.844,2.17,4.844,4.843
		C12.846-28.503,10.675-26.333,8.001-26.333z M23.901,25.34c-2.673,0-4.843-2.171-4.843-4.844s2.17-4.844,4.843-4.844
		s4.844,2.171,4.844,4.844S26.574,25.34,23.901,25.34z M23.901,9.44c-2.673,0-4.843-2.164-4.843-4.844
		c0-2.674,2.17-4.844,4.843-4.844s4.844,2.17,4.844,4.844C28.745,7.276,26.574,9.44,23.901,9.44z M42.037-15.651
		c0,5.127-6.169,9.286-13.78,9.286c-7.619,0-13.787-4.159-13.787-9.286c0-5.128,6.168-9.287,13.787-9.287
		C35.868-24.938,42.037-20.779,42.037-15.651z"/>
</g>
<g>
	<path fill="#D4AF8E" d="M-119.801,79.412c0.058-0.309,0.135-0.682,0.232-1.116c0.097-0.436,0.125-0.816,0.087-1.146l0.203-2.001
		c0.039-0.464,0.106-0.836,0.203-1.117c0.096-0.279,0.145-0.613,0.145-1c-0.155,0-0.281-0.029-0.377-0.087
		c-0.097-0.059-0.203-0.067-0.319-0.029c-0.31,0.097-0.565,0.305-0.769,0.624c-0.203,0.318-0.333,0.623-0.392,0.913
		c-0.174,0.638-0.353,1.247-0.536,1.827c-0.184,0.58-0.344,1.275-0.479,2.088c-0.058,0.29-0.141,0.488-0.247,0.595
		c-0.106,0.106-0.228,0.169-0.363,0.188s-0.28,0.028-0.435,0.028c-0.136,0-0.271,0.039-0.406,0.116
		c-0.155,0.078-0.28,0.17-0.377,0.275c-0.097,0.106-0.188,0.208-0.275,0.305s-0.193,0.179-0.319,0.247
		c-0.125,0.067-0.285,0.101-0.478,0.101c-0.677,0-1.136-0.091-1.378-0.275c-0.242-0.184-0.362-0.604-0.362-1.261v-0.929
		c0.097-0.482,0.232-1.154,0.406-2.016c0.174-0.859,0.363-1.754,0.566-2.682c0.203-0.929,0.401-1.822,0.594-2.683
		c0.193-0.86,0.348-1.522,0.464-1.986c0.058-0.232,0.131-0.552,0.218-0.957c0.087-0.406,0.188-0.846,0.304-1.32
		c0.116-0.474,0.242-0.966,0.377-1.479c0.135-0.512,0.271-0.99,0.406-1.436c0.135-0.444,0.266-0.836,0.392-1.175
		c0.125-0.338,0.247-0.565,0.362-0.682l2.001-0.464c0.039,0,0.155-0.033,0.348-0.102c0.193-0.067,0.381-0.105,0.565-0.115
		c0.184-0.01,0.324,0.038,0.42,0.145s0.077,0.334-0.058,0.682c0.038,0.251,0.111,0.387,0.217,0.406
		c0.106,0.02,0.217,0.024,0.333,0.014c0.116-0.009,0.217,0.006,0.305,0.044c0.087,0.039,0.13,0.203,0.13,0.493
		c0,0.503-0.073,1.044-0.218,1.624s-0.208,1.083-0.188,1.508c0.019,0.348-0.034,0.773-0.159,1.276
		c-0.126,0.503-0.251,0.971-0.377,1.406c-0.126,0.435-0.203,0.788-0.232,1.059c-0.029,0.271,0.063,0.348,0.275,0.231
		c0.058,0,0.149,0.011,0.275,0.029c0.125,0.02,0.251,0.02,0.377,0c0.125-0.019,0.247-0.053,0.362-0.102
		c0.116-0.048,0.193-0.149,0.232-0.305l2.61-11.02l1.682-0.609c0.077-0.019,0.145,0.02,0.203,0.116
		c0.058,0.097,0.116,0.208,0.174,0.333c0.058,0.126,0.111,0.237,0.159,0.334s0.102,0.136,0.16,0.116
		c0.097-0.02,0.184-0.034,0.261-0.044c0.077-0.01,0.154-0.015,0.232-0.015c0.212,0,0.362,0.121,0.449,0.363
		c0.087,0.241,0.082,0.691-0.014,1.348c-0.039,0.252-0.025,0.445,0.043,0.58c0.067,0.136,0.145,0.252,0.232,0.349
		s0.169,0.193,0.247,0.29c0.077,0.097,0.116,0.231,0.116,0.405c0,0.542-0.102,1.151-0.304,1.827
		c-0.203,0.677-0.363,1.276-0.479,1.798L-112.319,67c-0.425,1.779-0.788,3.277-1.087,4.495c-0.3,1.218-0.561,2.271-0.783,3.161
		c-0.223,0.89-0.406,1.672-0.551,2.349s-0.276,1.373-0.392,2.088l0.145,1.189c0.019,0.097-0.005,0.184-0.073,0.261
		s-0.15,0.141-0.246,0.188c-0.097,0.048-0.184,0.092-0.261,0.131c-0.078,0.038-0.116,0.067-0.116,0.087
		c-0.135,0.348-0.28,0.59-0.435,0.725c-0.155,0.136-0.281,0.203-0.377,0.203h-0.174c-0.02-0.02-0.039-0.082-0.058-0.188
		c-0.02-0.106-0.034-0.228-0.043-0.362c-0.01-0.136-0.024-0.257-0.043-0.362c-0.02-0.106-0.039-0.17-0.058-0.188
		c-0.116-0.039-0.232-0.077-0.348-0.116c-0.116-0.039-0.232-0.039-0.348,0c-0.193,0.077-0.338,0.131-0.435,0.159
		c-0.097,0.029-0.261-0.034-0.493-0.188c-0.097-0.077-0.217-0.13-0.362-0.159s-0.28-0.072-0.406-0.131
		c-0.126-0.058-0.242-0.154-0.348-0.29C-119.719,79.915-119.782,79.702-119.801,79.412z"/>
	<path fill="#D4AF8E" d="M-110.144,76.251c-0.078-0.367-0.237-0.696-0.479-0.986c-0.242-0.29-0.45-0.589-0.624-0.898
		c-0.058-0.077-0.083-0.179-0.073-0.305c0.01-0.125,0.019-0.251,0.029-0.377c0.009-0.126,0.004-0.246-0.015-0.362
		c-0.02-0.116-0.097-0.193-0.232-0.232l-0.261-1.305l-0.145-0.087v-0.406c0-0.521,0.063-1.02,0.189-1.493
		c0.125-0.474,0.198-0.981,0.217-1.522c0.154-0.039,0.242-0.174,0.261-0.406s0.048-0.425,0.087-0.58
		c0.715-1.198,1.581-2.296,2.595-3.291c1.015-0.996,2.083-1.89,3.205-2.683c0.077-0.059,0.232-0.116,0.464-0.174
		c0.232-0.059,0.479-0.121,0.74-0.189c0.261-0.067,0.493-0.135,0.696-0.202c0.203-0.068,0.314-0.131,0.333-0.188h2.726
		c0.097,0.154,0.242,0.271,0.435,0.348c0.193,0.077,0.396,0.136,0.609,0.174c0.212,0.039,0.42,0.083,0.624,0.131
		s0.382,0.13,0.537,0.246c0.638,0.483,1.28,1.044,1.928,1.683c0.648,0.638,1.262,1.295,1.842,1.972
		c0.058,0.097,0.106,0.145,0.145,0.145c0.502,0.368,0.884,0.793,1.146,1.276c0.261,0.483,0.498,0.986,0.71,1.508
		c0.019,0.059,0.039,0.097,0.058,0.116c0.058,0.503,0.159,0.981,0.304,1.436s0.218,0.933,0.218,1.436c0,1.257-0.314,2.46-0.943,3.61
		s-1.455,2.151-2.479,3.002c-0.019,0-0.193,0.106-0.522,0.318c-0.329,0.213-0.701,0.455-1.116,0.726
		c-0.416,0.271-0.832,0.526-1.247,0.769c-0.416,0.241-0.73,0.391-0.942,0.449c-0.503,0.213-0.977,0.396-1.421,0.551
		c-0.445,0.155-1.015,0.232-1.711,0.232c-0.696,0-1.417-0.141-2.16-0.421c-0.745-0.28-1.47-0.638-2.175-1.073
		c-0.706-0.435-1.368-0.913-1.986-1.436C-109.197,77.237-109.719,76.734-110.144,76.251z M-107.36,71.438
		c0.019,0.038,0.068,0.102,0.145,0.188s0.125,0.14,0.145,0.159c0.039,0.136,0.116,0.295,0.232,0.479
		c0.116,0.184,0.184,0.295,0.203,0.333V72.8v0.349v0.377v0.203c0.039,0.251,0.125,0.444,0.261,0.579
		c0.135,0.136,0.294,0.252,0.479,0.349c0.184,0.097,0.372,0.184,0.565,0.261c0.193,0.077,0.357,0.184,0.493,0.319
		c0.077,0.097,0.193,0.169,0.348,0.217c0.155,0.049,0.324,0.098,0.508,0.146c0.183,0.049,0.367,0.087,0.551,0.116
		c0.184,0.028,0.343,0.072,0.479,0.13c0.019,0,0.067,0,0.145,0c0.077,0,0.164,0.005,0.261,0.015s0.193,0.015,0.29,0.015
		s0.174,0,0.232,0c0.212,0,0.565-0.053,1.058-0.159c0.493-0.106,0.996-0.251,1.508-0.436c0.512-0.184,0.971-0.392,1.377-0.623
		c0.406-0.232,0.638-0.474,0.696-0.726c0-0.038,0.005-0.125,0.015-0.261c0.009-0.135,0.019-0.285,0.029-0.449
		s0.019-0.319,0.029-0.464c0.009-0.146,0.014-0.247,0.014-0.305c0.193-0.097,0.295-0.246,0.305-0.449s0.102-0.344,0.275-0.421
		c0.116-0.367,0.184-0.667,0.203-0.899c0.019-0.231,0.029-0.492,0.029-0.782v-0.726c-0.271-0.386-0.498-0.739-0.681-1.059
		c-0.184-0.318-0.377-0.608-0.58-0.869c-0.203-0.262-0.44-0.503-0.71-0.726c-0.271-0.222-0.619-0.43-1.044-0.623
		c-0.116-0.059-0.188-0.106-0.218-0.146c-0.029-0.038-0.048-0.082-0.058-0.13c-0.01-0.049-0.019-0.097-0.029-0.146
		c-0.01-0.048-0.043-0.12-0.102-0.218c-0.058-0.077-0.15-0.13-0.275-0.159c-0.126-0.029-0.261-0.058-0.406-0.087
		s-0.28-0.067-0.406-0.116c-0.126-0.048-0.228-0.12-0.305-0.218h-2.175c-0.039,0.155-0.121,0.252-0.247,0.29
		c-0.126,0.039-0.217,0.136-0.275,0.29c-0.039,0.039-0.097,0.146-0.174,0.319c-0.078,0.174-0.136,0.28-0.174,0.319
		c-0.251-0.059-0.556,0.067-0.914,0.377s-0.706,0.677-1.044,1.102c-0.338,0.426-0.628,0.846-0.87,1.262s-0.362,0.701-0.362,0.855
		c0,0.271,0.048,0.513,0.145,0.725c0.097,0.213,0.145,0.426,0.145,0.639v0.348C-107.322,71.341-107.36,71.418-107.36,71.438z
		 M-97.964,61.461c0.039,0,0.058,0.049,0.058,0.146c0,0.077-0.02,0.115-0.058,0.115c-0.097,0-0.145-0.038-0.145-0.115
		C-98.109,61.51-98.061,61.461-97.964,61.461z"/>
	<path fill="#D4AF8E" d="M-91.352,79.557c0-0.019,0.029-0.082,0.087-0.188c0.058-0.105,0.116-0.217,0.174-0.333
		s0.116-0.228,0.174-0.334c0.058-0.105,0.087-0.169,0.087-0.188c0.155-0.502,0.251-1.063,0.29-1.682
		c0.039-0.618,0.029-1.179-0.029-1.682c0.522-2.127,1.015-4.229,1.479-6.308s0.87-4.2,1.218-6.365
		c0.039-0.175,0.068-0.349,0.087-0.522s0.039-0.338,0.058-0.493c0.019-0.097,0-0.188-0.058-0.275
		c-0.058-0.087-0.111-0.169-0.159-0.246c-0.049-0.077-0.087-0.149-0.116-0.218c-0.029-0.067-0.005-0.131,0.073-0.188
		c0.29-0.193,0.691-0.329,1.203-0.406s1.034-0.12,1.566-0.13c0.531-0.01,1.034,0,1.508,0.028c0.474,0.029,0.807,0.044,1,0.044
		c0,0.154,0.019,0.275,0.058,0.362c0.039,0.087,0.067,0.174,0.087,0.261c0.019,0.087,0.004,0.208-0.043,0.362
		c-0.048,0.155-0.16,0.388-0.333,0.696c-0.368,0.619-0.663,1.305-0.885,2.06c-0.222,0.754-0.391,1.518-0.507,2.291
		c-0.155,0.928-0.295,1.846-0.42,2.755c-0.126,0.908-0.266,1.808-0.42,2.696c-0.155,0.89-0.358,1.779-0.609,2.668
		c-0.251,0.89-0.59,1.77-1.015,2.64c0.077,0.231,0.271,0.362,0.58,0.392c0.309,0.028,0.662,0.01,1.058-0.059
		c0.396-0.067,0.807-0.145,1.233-0.231c0.425-0.087,0.802-0.131,1.131-0.131c0.116,0.039,0.256,0.126,0.42,0.261
		c0.164,0.136,0.329,0.295,0.493,0.479c0.164,0.185,0.309,0.362,0.435,0.537c0.125,0.174,0.198,0.31,0.217,0.405
		c0.019,0.098,0.067,0.208,0.145,0.334c0.077,0.126,0.16,0.257,0.247,0.392c0.087,0.136,0.154,0.266,0.203,0.392
		c0.048,0.126,0.053,0.217,0.014,0.275c-0.097,0.116-0.3,0.218-0.609,0.305c-0.31,0.087-0.648,0.154-1.015,0.202
		c-0.367,0.049-0.725,0.088-1.073,0.116c-0.348,0.029-0.6,0.054-0.754,0.073c-0.232,0.038-0.59,0.082-1.073,0.13
		c-0.483,0.048-0.986,0.097-1.508,0.146c-0.522,0.048-1.006,0.091-1.45,0.13c-0.445,0.039-0.745,0.067-0.899,0.087
		c-0.039,0-0.15,0.005-0.333,0.015c-0.184,0.01-0.324,0.015-0.42,0.015c-0.174,0-0.363-0.043-0.565-0.131
		c-0.203-0.087-0.387-0.202-0.551-0.348c-0.165-0.145-0.295-0.309-0.392-0.493C-91.361,79.968-91.391,79.771-91.352,79.557z"/>
	<path fill="#D4AF8E" d="M-79.404,79.557c0-0.019,0.029-0.082,0.087-0.188c0.058-0.105,0.116-0.217,0.174-0.333
		s0.116-0.228,0.174-0.334c0.058-0.105,0.087-0.169,0.087-0.188c0.155-0.502,0.251-1.063,0.29-1.682
		c0.039-0.618,0.029-1.179-0.029-1.682c0.522-2.127,1.015-4.229,1.479-6.308s0.87-4.2,1.218-6.365
		c0.039-0.175,0.068-0.349,0.087-0.522s0.039-0.338,0.058-0.493c0.019-0.097,0-0.188-0.058-0.275
		c-0.058-0.087-0.111-0.169-0.159-0.246c-0.049-0.077-0.087-0.149-0.116-0.218c-0.029-0.067-0.005-0.131,0.073-0.188
		c0.29-0.193,0.691-0.329,1.203-0.406s1.034-0.12,1.566-0.13c0.531-0.01,1.034,0,1.508,0.028c0.474,0.029,0.807,0.044,1,0.044
		c0,0.154,0.019,0.275,0.058,0.362c0.039,0.087,0.067,0.174,0.087,0.261c0.019,0.087,0.004,0.208-0.043,0.362
		c-0.048,0.155-0.16,0.388-0.333,0.696c-0.368,0.619-0.663,1.305-0.885,2.06c-0.222,0.754-0.391,1.518-0.507,2.291
		c-0.155,0.928-0.295,1.846-0.42,2.755c-0.126,0.908-0.266,1.808-0.42,2.696c-0.155,0.89-0.358,1.779-0.609,2.668
		c-0.251,0.89-0.59,1.77-1.015,2.64c0.077,0.231,0.271,0.362,0.58,0.392c0.309,0.028,0.662,0.01,1.058-0.059
		c0.396-0.067,0.807-0.145,1.233-0.231c0.425-0.087,0.802-0.131,1.131-0.131c0.116,0.039,0.256,0.126,0.42,0.261
		c0.164,0.136,0.329,0.295,0.493,0.479c0.164,0.185,0.309,0.362,0.435,0.537c0.125,0.174,0.198,0.31,0.217,0.405
		c0.019,0.098,0.067,0.208,0.145,0.334c0.077,0.126,0.16,0.257,0.247,0.392c0.087,0.136,0.154,0.266,0.203,0.392
		c0.048,0.126,0.053,0.217,0.014,0.275c-0.097,0.116-0.3,0.218-0.609,0.305c-0.31,0.087-0.648,0.154-1.015,0.202
		c-0.367,0.049-0.725,0.088-1.073,0.116c-0.348,0.029-0.6,0.054-0.754,0.073c-0.232,0.038-0.59,0.082-1.073,0.13
		c-0.483,0.048-0.986,0.097-1.508,0.146c-0.522,0.048-1.006,0.091-1.45,0.13c-0.445,0.039-0.745,0.067-0.899,0.087
		c-0.039,0-0.15,0.005-0.333,0.015c-0.184,0.01-0.324,0.015-0.42,0.015c-0.174,0-0.363-0.043-0.565-0.131
		c-0.203-0.087-0.387-0.202-0.551-0.348c-0.165-0.145-0.295-0.309-0.392-0.493C-79.413,79.968-79.442,79.771-79.404,79.557z"/>
	<path fill="#D4AF8E" d="M-66.47,81.297l-0.957-0.957l1.914-5.713c0.019-0.077,0.058-0.198,0.116-0.362s0.125-0.353,0.203-0.565
		c0.077-0.213,0.154-0.436,0.232-0.667c0.077-0.232,0.154-0.454,0.232-0.667c0.077-0.232,0.164-0.454,0.261-0.667
		c0.096-0.213,0.164-0.367,0.203-0.464c-0.039-0.039-0.102-0.131-0.188-0.275c-0.087-0.146-0.179-0.305-0.275-0.479
		c-0.097-0.175-0.179-0.339-0.247-0.493s-0.102-0.261-0.102-0.319c-0.155-1.121-0.309-2.073-0.464-2.856s-0.3-1.488-0.435-2.117
		c-0.135-0.628-0.242-1.236-0.319-1.827c-0.078-0.589-0.116-1.261-0.116-2.015c0-0.097,0.005-0.28,0.015-0.552
		c0.01-0.271,0.015-0.454,0.015-0.551c0-0.019,0.039-0.043,0.116-0.072s0.16-0.063,0.247-0.102s0.169-0.072,0.247-0.102
		c0.077-0.029,0.116-0.053,0.116-0.072c0-0.174,0.077-0.319,0.232-0.436c0.154-0.115,0.319-0.197,0.493-0.246
		c0.174-0.048,0.329-0.048,0.464,0c0.135,0.049,0.193,0.141,0.174,0.275c0.193,0.29,0.348,0.474,0.464,0.551
		c0.116,0.078,0.28,0.106,0.493,0.087l1.508,4.351c0.058,0.29,0.121,0.439,0.188,0.449s0.164-0.077,0.29-0.261
		c0.125-0.184,0.285-0.45,0.479-0.798s0.454-0.734,0.783-1.16c0.116-0.154,0.241-0.353,0.377-0.595
		c0.135-0.241,0.28-0.478,0.435-0.71c0.154-0.232,0.333-0.436,0.537-0.609c0.203-0.174,0.42-0.271,0.652-0.29l0.986-0.058
		l1.015-0.058l1.479,0.145c0.154,0.02,0.241,0.126,0.261,0.319c0.019,0.193,0.029,0.318,0.029,0.377
		c0,0.039-0.005,0.106-0.015,0.203s-0.015,0.164-0.015,0.203c-0.135,0.135-0.309,0.357-0.522,0.667
		c-0.213,0.309-0.454,0.667-0.725,1.072c-0.271,0.406-0.551,0.832-0.841,1.276c-0.29,0.445-0.561,0.875-0.812,1.29
		c-0.251,0.416-0.479,0.793-0.682,1.132c-0.203,0.338-0.353,0.594-0.449,0.768c-0.213,0.329-0.45,0.75-0.71,1.262
		c-0.261,0.513-0.527,1.04-0.797,1.581c-0.097,0.213-0.232,0.401-0.406,0.565s-0.271,0.275-0.29,0.333l-2.378,8.671
		c-0.039,0.136-0.097,0.29-0.174,0.464c-0.078,0.175-0.169,0.324-0.276,0.45c-0.106,0.125-0.232,0.212-0.377,0.261
		c-0.145,0.048-0.304,0.015-0.479-0.102c-0.213-0.154-0.396-0.213-0.551-0.174c-0.155,0.039-0.295,0.111-0.42,0.218
		c-0.126,0.105-0.242,0.217-0.348,0.333c-0.106,0.116-0.217,0.174-0.333,0.174L-66.47,81.297z"/>
	<path fill="#D4AF8E" d="M-32.279,60.939c-0.058,0.348-0.111,0.764-0.16,1.247s-0.106,0.957-0.174,1.421
		c-0.068,0.464-0.15,0.875-0.247,1.232s-0.222,0.565-0.377,0.623c-0.155,0.078-0.256,0.203-0.304,0.377
		c-0.049,0.174-0.083,0.368-0.102,0.58c-0.02,0.213-0.039,0.421-0.058,0.624c-0.02,0.203-0.068,0.372-0.145,0.507l-2.175,9.106
		c-0.097,0.155-0.208,0.42-0.333,0.798c-0.126,0.377-0.266,0.754-0.421,1.131s-0.324,0.71-0.507,1
		c-0.184,0.29-0.382,0.426-0.595,0.406l-2.088-0.203c-0.31-0.174-0.542-0.285-0.696-0.333c-0.155-0.049-0.275-0.059-0.363-0.029
		c-0.087,0.029-0.159,0.067-0.217,0.116c-0.058,0.048-0.155,0.072-0.29,0.072c-0.31,0-0.576-0.208-0.797-0.624
		c-0.223-0.415-0.42-0.889-0.595-1.421c-0.174-0.531-0.324-1.044-0.449-1.537c-0.126-0.492-0.247-0.816-0.363-0.971
		c0-0.039-0.039-0.059-0.116-0.059c-0.058,0-0.106,0.02-0.145,0.059c-0.251,0.444-0.546,0.947-0.885,1.508s-0.672,1.078-1,1.552
		s-0.638,0.869-0.928,1.188s-0.522,0.46-0.696,0.421c-0.193-0.039-0.392,0.005-0.594,0.13c-0.203,0.126-0.401,0.29-0.595,0.493
		s-0.382,0.436-0.565,0.696c-0.184,0.261-0.353,0.497-0.507,0.71h-0.261c-0.039,0-0.126,0.015-0.261,0.044
		c-0.136,0.029-0.281,0.058-0.435,0.087c-0.155,0.029-0.3,0.058-0.435,0.087c-0.136,0.029-0.223,0.044-0.261,0.044
		c-0.329,0-0.638-0.106-0.928-0.319s-0.571-0.396-0.841-0.551c-0.174-0.078-0.29-0.247-0.348-0.508s-0.097-0.556-0.116-0.885
		c-0.02-0.328-0.02-0.662,0-1c0.019-0.338,0.029-0.613,0.029-0.827c0-0.135,0.014-0.396,0.043-0.782
		c0.029-0.387,0.067-0.793,0.116-1.219c0.048-0.425,0.106-0.807,0.174-1.146c0.067-0.338,0.14-0.517,0.217-0.536l2.32-9.135
		c-0.039-0.116-0.029-0.387,0.029-0.813c0.058-0.425,0.164-0.889,0.319-1.392c0.077-0.213,0.16-0.41,0.247-0.595
		c0.087-0.184,0.179-0.353,0.275-0.507c0.116-0.175,0.218-0.324,0.305-0.45c0.087-0.125,0.208-0.207,0.362-0.246
		c0.116-0.02,0.193-0.097,0.232-0.232c0.039-0.135,0.073-0.271,0.102-0.406c0.029-0.135,0.053-0.241,0.073-0.318
		c0.019-0.077,0.067-0.059,0.145,0.058c0.019,0.02,0.12,0.072,0.304,0.16c0.184,0.087,0.353,0.159,0.508,0.217
		c0.154,0.059,0.241,0.087,0.261,0.087c0.116,0.059,0.256,0.093,0.42,0.102c0.164,0.011,0.324,0.015,0.479,0.015
		c0.174,0,0.333,0.015,0.479,0.044c0.145,0.028,0.266,0.092,0.363,0.188l0.754,0.783c0,0.503-0.073,1.029-0.218,1.58
		s-0.266,1.078-0.362,1.58c-0.058,0.271-0.102,0.498-0.13,0.682c-0.029,0.185-0.063,0.411-0.102,0.682
		c-0.193,0.503-0.368,0.938-0.522,1.305c-0.155,0.368-0.319,0.769-0.493,1.204c-0.174,0.435-0.338,0.836-0.493,1.203
		s-0.28,0.677-0.377,0.928c-0.097,0.252-0.145,0.388-0.145,0.406c0.019,0,0.102-0.12,0.247-0.362
		c0.145-0.241,0.324-0.546,0.537-0.913c0.212-0.367,0.444-0.764,0.696-1.189c0.251-0.425,0.483-0.816,0.696-1.175
		c0.212-0.357,0.396-0.656,0.551-0.898s0.242-0.353,0.261-0.334c0.193,0.078,0.444,0.131,0.754,0.16
		c0.309,0.028,0.58,0.092,0.812,0.188c0.212,0.077,0.488,0.14,0.827,0.188c0.338,0.048,0.584,0.092,0.739,0.13
		c0.309,0.213,0.526,0.464,0.652,0.754c0.125,0.29,0.237,0.667,0.333,1.132c0.097,0.503,0.242,0.995,0.435,1.479
		s0.367,0.919,0.522,1.305c0.135-0.212,0.256-0.507,0.363-0.884c0.106-0.377,0.203-0.754,0.29-1.132
		c0.087-0.377,0.178-0.725,0.275-1.044c0.097-0.318,0.193-0.536,0.29-0.652c0.116-0.135,0.208-0.338,0.275-0.608
		c0.067-0.271,0.125-0.561,0.174-0.87s0.087-0.614,0.116-0.914c0.029-0.299,0.063-0.546,0.102-0.739
		c0.135-0.58,0.266-1.136,0.392-1.667c0.125-0.532,0.251-0.991,0.377-1.378c0.125-0.387,0.251-0.7,0.377-0.942
		c0.125-0.241,0.256-0.362,0.392-0.362c0.271,0,0.493-0.054,0.667-0.16c0.174-0.105,0.333-0.222,0.479-0.348
		s0.299-0.241,0.464-0.348c0.164-0.106,0.381-0.179,0.652-0.218l1.972,1.015L-32.279,60.939z"/>
	<path fill="#D4AF8E" d="M-30.163,76.251c-0.078-0.367-0.237-0.696-0.479-0.986c-0.242-0.29-0.45-0.589-0.624-0.898
		c-0.058-0.077-0.083-0.179-0.073-0.305c0.01-0.125,0.019-0.251,0.029-0.377c0.009-0.126,0.004-0.246-0.015-0.362
		c-0.02-0.116-0.097-0.193-0.232-0.232l-0.261-1.305l-0.145-0.087v-0.406c0-0.521,0.063-1.02,0.189-1.493
		c0.125-0.474,0.198-0.981,0.217-1.522c0.154-0.039,0.242-0.174,0.261-0.406s0.048-0.425,0.087-0.58
		c0.715-1.198,1.581-2.296,2.595-3.291c1.015-0.996,2.083-1.89,3.205-2.683c0.077-0.059,0.232-0.116,0.464-0.174
		c0.232-0.059,0.479-0.121,0.74-0.189c0.261-0.067,0.493-0.135,0.696-0.202c0.203-0.068,0.314-0.131,0.333-0.188h2.726
		c0.097,0.154,0.242,0.271,0.435,0.348c0.193,0.077,0.396,0.136,0.609,0.174c0.212,0.039,0.42,0.083,0.624,0.131
		s0.382,0.13,0.537,0.246c0.638,0.483,1.28,1.044,1.928,1.683c0.648,0.638,1.262,1.295,1.842,1.972
		c0.058,0.097,0.106,0.145,0.145,0.145c0.502,0.368,0.884,0.793,1.146,1.276c0.261,0.483,0.498,0.986,0.71,1.508
		c0.019,0.059,0.039,0.097,0.058,0.116c0.058,0.503,0.159,0.981,0.304,1.436s0.218,0.933,0.218,1.436c0,1.257-0.314,2.46-0.943,3.61
		s-1.455,2.151-2.479,3.002c-0.019,0-0.193,0.106-0.522,0.318c-0.329,0.213-0.701,0.455-1.116,0.726
		c-0.416,0.271-0.832,0.526-1.247,0.769c-0.416,0.241-0.73,0.391-0.942,0.449c-0.503,0.213-0.977,0.396-1.421,0.551
		c-0.445,0.155-1.015,0.232-1.711,0.232c-0.696,0-1.417-0.141-2.16-0.421c-0.745-0.28-1.47-0.638-2.175-1.073
		c-0.706-0.435-1.368-0.913-1.986-1.436C-29.216,77.237-29.738,76.734-30.163,76.251z M-27.379,71.438
		c0.019,0.038,0.068,0.102,0.145,0.188s0.125,0.14,0.145,0.159c0.039,0.136,0.116,0.295,0.232,0.479
		c0.116,0.184,0.184,0.295,0.203,0.333V72.8v0.349v0.377v0.203c0.039,0.251,0.125,0.444,0.261,0.579
		c0.135,0.136,0.294,0.252,0.479,0.349c0.184,0.097,0.372,0.184,0.565,0.261c0.193,0.077,0.357,0.184,0.493,0.319
		c0.077,0.097,0.193,0.169,0.348,0.217c0.155,0.049,0.324,0.098,0.508,0.146c0.183,0.049,0.367,0.087,0.551,0.116
		c0.184,0.028,0.343,0.072,0.479,0.13c0.019,0,0.067,0,0.145,0c0.077,0,0.164,0.005,0.261,0.015s0.193,0.015,0.29,0.015
		s0.174,0,0.232,0c0.212,0,0.565-0.053,1.058-0.159c0.493-0.106,0.996-0.251,1.508-0.436c0.512-0.184,0.971-0.392,1.377-0.623
		c0.406-0.232,0.638-0.474,0.696-0.726c0-0.038,0.005-0.125,0.015-0.261c0.009-0.135,0.019-0.285,0.029-0.449
		s0.019-0.319,0.029-0.464c0.009-0.146,0.014-0.247,0.014-0.305c0.193-0.097,0.295-0.246,0.305-0.449s0.102-0.344,0.275-0.421
		c0.116-0.367,0.184-0.667,0.203-0.899c0.019-0.231,0.029-0.492,0.029-0.782v-0.726c-0.271-0.386-0.498-0.739-0.681-1.059
		c-0.184-0.318-0.377-0.608-0.58-0.869c-0.203-0.262-0.44-0.503-0.71-0.726c-0.271-0.222-0.619-0.43-1.044-0.623
		c-0.116-0.059-0.188-0.106-0.218-0.146c-0.029-0.038-0.048-0.082-0.058-0.13c-0.01-0.049-0.019-0.097-0.029-0.146
		c-0.01-0.048-0.043-0.12-0.102-0.218c-0.058-0.077-0.15-0.13-0.275-0.159c-0.126-0.029-0.261-0.058-0.406-0.087
		s-0.28-0.067-0.406-0.116c-0.126-0.048-0.228-0.12-0.305-0.218h-2.175c-0.039,0.155-0.121,0.252-0.247,0.29
		c-0.126,0.039-0.217,0.136-0.275,0.29c-0.039,0.039-0.097,0.146-0.174,0.319c-0.078,0.174-0.136,0.28-0.174,0.319
		c-0.251-0.059-0.556,0.067-0.914,0.377s-0.706,0.677-1.044,1.102c-0.338,0.426-0.628,0.846-0.87,1.262s-0.362,0.701-0.362,0.855
		c0,0.271,0.048,0.513,0.145,0.725c0.097,0.213,0.145,0.426,0.145,0.639v0.348C-27.34,71.341-27.379,71.418-27.379,71.438z
		 M-17.983,61.461c0.039,0,0.058,0.049,0.058,0.146c0,0.077-0.02,0.115-0.058,0.115c-0.097,0-0.145-0.038-0.145-0.115
		C-18.128,61.51-18.08,61.461-17.983,61.461z"/>
	<path fill="#D4AF8E" d="M-9.775,76.251c-0.078-0.367-0.237-0.696-0.479-0.986c-0.242-0.29-0.45-0.589-0.624-0.898
		c-0.058-0.077-0.083-0.179-0.073-0.305c0.01-0.125,0.019-0.251,0.029-0.377c0.009-0.126,0.004-0.246-0.015-0.362
		c-0.02-0.116-0.097-0.193-0.232-0.232l-0.261-1.305l-0.145-0.087v-0.406c0-0.521,0.063-1.02,0.189-1.493
		c0.125-0.474,0.198-0.981,0.217-1.522c0.154-0.039,0.242-0.174,0.261-0.406s0.048-0.425,0.087-0.58
		c0.715-1.198,1.581-2.296,2.595-3.291c1.015-0.996,2.083-1.89,3.205-2.683c0.077-0.059,0.232-0.116,0.464-0.174
		c0.232-0.059,0.479-0.121,0.74-0.189c0.261-0.067,0.493-0.135,0.696-0.202c0.203-0.068,0.314-0.131,0.333-0.188h2.726
		c0.097,0.154,0.242,0.271,0.435,0.348c0.193,0.077,0.396,0.136,0.609,0.174c0.212,0.039,0.42,0.083,0.624,0.131
		s0.382,0.13,0.537,0.246c0.638,0.483,1.28,1.044,1.928,1.683c0.648,0.638,1.262,1.295,1.842,1.972
		c0.058,0.097,0.106,0.145,0.145,0.145c0.502,0.368,0.884,0.793,1.146,1.276c0.261,0.483,0.498,0.986,0.71,1.508
		c0.019,0.059,0.039,0.097,0.058,0.116c0.058,0.503,0.159,0.981,0.304,1.436s0.218,0.933,0.218,1.436c0,1.257-0.314,2.46-0.943,3.61
		s-1.455,2.151-2.479,3.002c-0.019,0-0.193,0.106-0.522,0.318c-0.329,0.213-0.701,0.455-1.116,0.726
		c-0.416,0.271-0.832,0.526-1.247,0.769c-0.416,0.241-0.73,0.391-0.942,0.449c-0.503,0.213-0.977,0.396-1.421,0.551
		c-0.445,0.155-1.015,0.232-1.711,0.232c-0.696,0-1.417-0.141-2.16-0.421c-0.745-0.28-1.47-0.638-2.175-1.073
		c-0.706-0.435-1.368-0.913-1.986-1.436C-8.829,77.237-9.351,76.734-9.775,76.251z M-6.992,71.438
		c0.019,0.038,0.068,0.102,0.145,0.188s0.125,0.14,0.145,0.159c0.039,0.136,0.116,0.295,0.232,0.479
		c0.116,0.184,0.184,0.295,0.203,0.333V72.8v0.349v0.377v0.203c0.039,0.251,0.125,0.444,0.261,0.579
		c0.135,0.136,0.294,0.252,0.479,0.349c0.184,0.097,0.372,0.184,0.565,0.261c0.193,0.077,0.357,0.184,0.493,0.319
		c0.077,0.097,0.193,0.169,0.348,0.217c0.155,0.049,0.324,0.098,0.508,0.146c0.183,0.049,0.367,0.087,0.551,0.116
		c0.184,0.028,0.343,0.072,0.479,0.13c0.019,0,0.067,0,0.145,0c0.077,0,0.164,0.005,0.261,0.015s0.193,0.015,0.29,0.015
		s0.174,0,0.232,0c0.212,0,0.565-0.053,1.058-0.159c0.493-0.106,0.996-0.251,1.508-0.436c0.512-0.184,0.971-0.392,1.377-0.623
		c0.406-0.232,0.638-0.474,0.696-0.726c0-0.038,0.005-0.125,0.015-0.261c0.009-0.135,0.019-0.285,0.029-0.449
		s0.019-0.319,0.029-0.464c0.009-0.146,0.014-0.247,0.014-0.305c0.193-0.097,0.295-0.246,0.305-0.449s0.102-0.344,0.275-0.421
		c0.116-0.367,0.184-0.667,0.203-0.899c0.019-0.231,0.029-0.492,0.029-0.782v-0.726c-0.271-0.386-0.498-0.739-0.681-1.059
		c-0.184-0.318-0.377-0.608-0.58-0.869c-0.203-0.262-0.44-0.503-0.71-0.726c-0.271-0.222-0.619-0.43-1.044-0.623
		c-0.116-0.059-0.188-0.106-0.218-0.146c-0.029-0.038-0.048-0.082-0.058-0.13c-0.01-0.049-0.019-0.097-0.029-0.146
		c-0.01-0.048-0.043-0.12-0.102-0.218c-0.058-0.077-0.15-0.13-0.275-0.159c-0.126-0.029-0.261-0.058-0.406-0.087
		s-0.28-0.067-0.406-0.116c-0.126-0.048-0.228-0.12-0.305-0.218h-2.175c-0.039,0.155-0.121,0.252-0.247,0.29
		c-0.126,0.039-0.217,0.136-0.275,0.29c-0.039,0.039-0.097,0.146-0.174,0.319c-0.078,0.174-0.136,0.28-0.174,0.319
		c-0.251-0.059-0.556,0.067-0.914,0.377s-0.706,0.677-1.044,1.102c-0.338,0.426-0.628,0.846-0.87,1.262s-0.362,0.701-0.362,0.855
		c0,0.271,0.048,0.513,0.145,0.725c0.097,0.213,0.145,0.426,0.145,0.639v0.348C-6.953,71.341-6.992,71.418-6.992,71.438z
		 M2.404,61.461c0.039,0,0.058,0.049,0.058,0.146c0,0.077-0.02,0.115-0.058,0.115c-0.097,0-0.145-0.038-0.145-0.115
		C2.259,61.51,2.308,61.461,2.404,61.461z"/>
	<path fill="#D4AF8E" d="M8.349,75.439c0.136-0.465,0.325-1.132,0.565-2.001c0.242-0.87,0.503-1.793,0.783-2.77
		s0.552-1.924,0.813-2.843c0.261-0.918,0.469-1.657,0.623-2.218c0.059-0.271,0.116-0.474,0.175-0.609
		c0.058-0.135,0.096-0.251,0.115-0.348c0.02-0.059,0.054-0.141,0.102-0.247c0.048-0.105,0.102-0.246,0.16-0.42l0.348-1.103
		c0.154-0.367,0.29-0.72,0.406-1.059c0.116-0.338,0.203-0.556,0.261-0.652c0-0.077,0.019-0.164,0.058-0.261s0.077-0.184,0.116-0.261
		s0.063-0.149,0.072-0.218c0.01-0.067-0.014-0.111-0.072-0.131c-0.155-0.058-0.329-0.11-0.521-0.159
		c-0.193-0.048-0.383-0.106-0.565-0.174c-0.185-0.067-0.339-0.146-0.465-0.232s-0.188-0.179-0.188-0.275
		c0-0.116-0.01-0.271-0.028-0.464c-0.02-0.193-0.024-0.377-0.015-0.551s0.048-0.324,0.116-0.45c0.067-0.125,0.188-0.178,0.362-0.159
		c1.024,0.059,1.855,0.136,2.494,0.232c0.638,0.097,1.236,0.271,1.798,0.521c0.154,0.116,0.333,0.213,0.536,0.29
		c0.203,0.078,0.382,0.193,0.537,0.349c0.212,0.193,0.43,0.372,0.652,0.536c0.222,0.164,0.41,0.295,0.565,0.392
		c0.116,0.097,0.198,0.174,0.246,0.231c0.048,0.059,0.087,0.116,0.116,0.175c0.029,0.058,0.067,0.126,0.116,0.202
		c0.048,0.078,0.13,0.165,0.246,0.262c0.213,0.193,0.479,0.357,0.798,0.493c0.319,0.135,0.565,0.318,0.739,0.551
		c0.813,1.063,1.426,2.214,1.842,3.451c0.415,1.237,0.633,2.493,0.652,3.77c0,0.464-0.063,0.928-0.188,1.392
		c-0.126,0.465-0.28,0.914-0.464,1.349c-0.185,0.436-0.387,0.855-0.609,1.262s-0.431,0.793-0.623,1.16
		c-0.31,0.521-0.716,0.981-1.218,1.378c-0.504,0.396-1.05,0.749-1.639,1.058c-0.59,0.31-1.185,0.585-1.784,0.827
		c-0.599,0.242-1.141,0.459-1.624,0.652c-0.097,0.039-0.256,0.102-0.479,0.188c-0.222,0.087-0.353,0.131-0.391,0.131L9.104,78.89
		l-0.841-0.551c0.058-0.387,0.102-0.7,0.13-0.942c0.029-0.241,0.054-0.479,0.073-0.71c0.02-0.232,0.029-0.377,0.029-0.436
		L8.349,75.439z M12.642,74.569c0.29-0.02,0.686-0.092,1.188-0.218c0.503-0.125,1.001-0.285,1.493-0.479
		c0.493-0.193,0.933-0.41,1.32-0.652c0.386-0.241,0.628-0.498,0.725-0.769l1.45-5.017l-2.06-3.51
		c-0.038-0.019-0.13-0.053-0.275-0.102c-0.145-0.048-0.246-0.091-0.304-0.13c-0.078-0.02-0.136-0.029-0.175-0.029
		c-0.02,0-0.058,0.01-0.115,0.029c-0.02,0.02-0.054,0.097-0.102,0.231c-0.049,0.136-0.093,0.252-0.131,0.349
		c-0.271,0.793-0.518,1.57-0.739,2.334c-0.223,0.765-0.45,1.532-0.682,2.306c-0.232,0.773-0.479,1.557-0.739,2.349
		c-0.262,0.793-0.557,1.605-0.885,2.437L12.642,74.569z"/>
	<path fill="#D4AF8E" d="M34.682,80.05c-0.562-0.154-1.127-0.348-1.696-0.58c-0.571-0.231-1.107-0.497-1.61-0.797
		s-0.933-0.647-1.29-1.044c-0.358-0.396-0.595-0.827-0.711-1.291c-0.077-0.271-0.188-0.526-0.333-0.769
		c-0.146-0.241-0.247-0.497-0.305-0.769l0.029-0.087c0.019-0.135,0.231-0.271,0.638-0.406c0.406-0.135,0.855-0.251,1.349-0.348
		s0.976-0.169,1.45-0.218c0.474-0.048,0.797-0.053,0.972-0.014c0.405,0.077,0.686,0.261,0.841,0.551
		c0.154,0.29,0.285,0.6,0.392,0.928c0.105,0.329,0.246,0.638,0.42,0.928s0.483,0.483,0.929,0.58
		c0.231,0.039,0.536,0.078,0.913,0.116c0.377,0.039,0.672,0.058,0.885,0.058c0.135-0.135,0.29-0.197,0.464-0.188
		c0.174,0.011,0.338,0.015,0.493,0.015c0.174,0,0.328-0.058,0.464-0.174c0.135-0.116,0.251-0.377,0.348-0.783l0.029-0.115
		c0-0.039-0.005-0.126-0.015-0.262c-0.01-0.135-0.044-0.222-0.102-0.261c-0.503-0.425-0.938-0.875-1.305-1.349
		c-0.368-0.474-0.716-0.957-1.044-1.45c-0.329-0.493-0.658-0.99-0.986-1.493c-0.329-0.503-0.687-1.005-1.073-1.508
		c-0.213,0-0.377-0.044-0.493-0.131c-0.115-0.087-0.213-0.193-0.29-0.319c-0.077-0.125-0.149-0.256-0.217-0.391
		c-0.068-0.136-0.141-0.262-0.218-0.377c-0.039-0.02-0.092-0.088-0.159-0.203c-0.068-0.116-0.141-0.242-0.218-0.377
		c-0.077-0.136-0.155-0.271-0.232-0.406c-0.077-0.135-0.145-0.232-0.202-0.29c-0.948-0.908-1.519-1.827-1.712-2.755
		s-0.184-1.914,0.029-2.958c0.059-0.251,0.154-0.526,0.29-0.827c0.135-0.299,0.295-0.584,0.479-0.855
		c0.184-0.271,0.392-0.521,0.624-0.754c0.231-0.231,0.482-0.405,0.754-0.521c0.425-0.193,0.913-0.353,1.464-0.479
		c0.552-0.126,1.121-0.218,1.711-0.275c0.59-0.059,1.175-0.077,1.755-0.059c0.58,0.02,1.111,0.078,1.595,0.175
		c0.251,0.038,0.526,0.125,0.827,0.261c0.299,0.136,0.599,0.28,0.898,0.435c0.3,0.155,0.604,0.31,0.914,0.464
		c0.309,0.155,0.599,0.271,0.869,0.349c0.02,0.097,0.164,0.213,0.436,0.348c0.271,0.136,0.57,0.3,0.898,0.493
		c0.329,0.193,0.648,0.406,0.957,0.638c0.31,0.232,0.522,0.493,0.639,0.783c0.116,0.31,0.285,0.652,0.507,1.029
		c0.223,0.377,0.314,0.73,0.276,1.059c-0.059,0.174-0.281,0.319-0.667,0.436c-0.388,0.115-0.817,0.202-1.291,0.261
		c-0.474,0.058-0.938,0.092-1.392,0.102c-0.455,0.01-0.769-0.005-0.942-0.044c-0.098-0.038-0.242-0.077-0.436-0.116
		c-0.193-0.038-0.319-0.115-0.377-0.231l-0.928-1.885c-0.078-0.136-0.247-0.232-0.508-0.29c-0.261-0.059-0.439-0.097-0.536-0.116
		c-0.349-0.077-0.701-0.146-1.059-0.203c-0.358-0.058-0.696-0.067-1.016-0.029c-0.318,0.039-0.594,0.141-0.826,0.305
		c-0.231,0.165-0.387,0.431-0.464,0.798c-0.039,0.174-0.063,0.3-0.072,0.377s0.004,0.149,0.043,0.218
		c0.039,0.067,0.102,0.14,0.188,0.217c0.087,0.078,0.218,0.203,0.392,0.377c0.406,0.445,0.749,0.86,1.029,1.247
		s0.547,0.769,0.798,1.146s0.508,0.754,0.769,1.131s0.565,0.778,0.913,1.204c0.175,0.251,0.324,0.521,0.45,0.812
		c0.125,0.29,0.323,0.57,0.595,0.841c0.154,0.155,0.338,0.344,0.551,0.565c0.212,0.223,0.43,0.46,0.652,0.711
		c0.222,0.252,0.43,0.493,0.623,0.725c0.193,0.232,0.349,0.445,0.464,0.639c0.155,0.271,0.271,0.546,0.349,0.826
		c0.077,0.28,0.241,0.518,0.493,0.711c-0.078,0.541-0.116,1.083-0.116,1.624s-0.049,1.063-0.146,1.565
		c-0.154,0.754-0.454,1.358-0.898,1.813c-0.445,0.455-0.981,0.803-1.609,1.044c-0.629,0.242-1.334,0.401-2.117,0.479
		c-0.783,0.078-1.591,0.116-2.422,0.116c-0.02,0-0.092-0.005-0.217-0.015c-0.126-0.01-0.267-0.019-0.421-0.029
		c-0.155-0.009-0.314-0.019-0.479-0.028s-0.285-0.024-0.362-0.044l-0.377-0.087c-0.039-0.019-0.116,0.01-0.232,0.087
		c-0.116,0.078-0.184,0.116-0.203,0.116c-0.154,0-0.266-0.077-0.333-0.232C34.802,80.359,34.739,80.205,34.682,80.05z"/>
	<path fill="#D4AF8E" d="M46.397,79.557c0-0.019,0.028-0.082,0.087-0.188c0.058-0.105,0.115-0.217,0.174-0.333
		c0.058-0.116,0.116-0.228,0.174-0.334c0.058-0.105,0.087-0.169,0.087-0.188c0.154-0.502,0.251-1.063,0.29-1.682
		c0.039-0.618,0.029-1.179-0.029-1.682c0.522-2.127,1.016-4.229,1.479-6.308s0.87-4.2,1.218-6.365
		c0.039-0.175,0.067-0.349,0.087-0.522s0.039-0.338,0.059-0.493c0.019-0.097,0-0.188-0.059-0.275
		c-0.058-0.087-0.111-0.169-0.159-0.246c-0.049-0.077-0.087-0.149-0.116-0.218c-0.029-0.067-0.005-0.131,0.072-0.188
		c0.29-0.193,0.691-0.329,1.204-0.406c0.512-0.077,1.034-0.12,1.565-0.13c0.532-0.01,1.034,0,1.509,0.028
		c0.473,0.029,0.807,0.044,1,0.044c0,0.154,0.02,0.275,0.058,0.362c0.039,0.087,0.068,0.174,0.087,0.261
		c0.02,0.087,0.005,0.208-0.043,0.362c-0.049,0.155-0.159,0.388-0.334,0.696c-0.367,0.619-0.662,1.305-0.884,2.06
		c-0.223,0.754-0.392,1.518-0.508,2.291c-0.155,0.928-0.295,1.846-0.421,2.755c-0.126,0.908-0.266,1.808-0.42,2.696
		c-0.155,0.89-0.358,1.779-0.609,2.668c-0.251,0.89-0.59,1.77-1.015,2.64c0.077,0.231,0.271,0.362,0.58,0.392
		c0.309,0.028,0.662,0.01,1.059-0.059c0.396-0.067,0.807-0.145,1.232-0.231c0.425-0.087,0.802-0.131,1.131-0.131
		c0.116,0.039,0.256,0.126,0.421,0.261c0.163,0.136,0.328,0.295,0.492,0.479c0.164,0.185,0.31,0.362,0.436,0.537
		c0.125,0.174,0.198,0.31,0.218,0.405c0.019,0.098,0.067,0.208,0.145,0.334s0.159,0.257,0.246,0.392
		c0.087,0.136,0.155,0.266,0.203,0.392s0.054,0.217,0.015,0.275c-0.097,0.116-0.3,0.218-0.608,0.305
		c-0.31,0.087-0.648,0.154-1.016,0.202c-0.367,0.049-0.725,0.088-1.073,0.116c-0.348,0.029-0.599,0.054-0.754,0.073
		c-0.231,0.038-0.59,0.082-1.072,0.13c-0.484,0.048-0.986,0.097-1.509,0.146c-0.521,0.048-1.005,0.091-1.449,0.13
		c-0.445,0.039-0.745,0.067-0.899,0.087c-0.039,0-0.15,0.005-0.334,0.015s-0.323,0.015-0.42,0.015c-0.174,0-0.362-0.043-0.565-0.131
		c-0.203-0.087-0.387-0.202-0.551-0.348c-0.165-0.145-0.295-0.309-0.392-0.493C46.388,79.968,46.358,79.771,46.397,79.557z"/>
	<path fill="#D4AF8E" d="M62.797,75.555c-0.261,0.039-0.479,0.116-0.652,0.232c-0.349,0.232-0.619,0.565-0.813,1
		c-0.193,0.436-0.367,0.847-0.521,1.233c-0.155,0.387-0.324,0.691-0.508,0.913c-0.184,0.223-0.431,0.246-0.739,0.072
		c-0.097-0.058-0.237-0.043-0.421,0.044s-0.324,0.082-0.42-0.015c-0.213-0.213-0.401-0.387-0.565-0.522
		c-0.164-0.135-0.247-0.318-0.247-0.551c0-0.019,0.024-0.082,0.072-0.188c0.049-0.105,0.106-0.218,0.175-0.333
		c0.067-0.116,0.126-0.223,0.174-0.319s0.072-0.154,0.072-0.174c0-0.059-0.01-0.135-0.029-0.232
		c-0.019-0.097-0.043-0.192-0.072-0.29c-0.029-0.097-0.058-0.192-0.087-0.29c-0.029-0.096-0.044-0.164-0.044-0.203l3.046-5.597
		c-0.039-0.193-0.093-0.362-0.16-0.508c-0.067-0.145-0.082-0.294-0.043-0.449c0.058-0.251,0.169-0.517,0.333-0.797
		s0.305-0.537,0.421-0.769c0.116-0.213,0.318-0.639,0.608-1.276s0.6-1.324,0.929-2.059c0.328-0.735,0.643-1.431,0.942-2.089
		c0.299-0.656,0.517-1.102,0.652-1.334c0.213-0.386,0.493-0.695,0.841-0.928c0.348-0.231,0.744-0.348,1.189-0.348
		c0.115,0.097,0.178,0.184,0.188,0.261c0.009,0.077,0.019,0.146,0.028,0.203s0.049,0.116,0.116,0.174s0.218,0.097,0.449,0.116
		c0.349,0.348,0.624,0.749,0.827,1.203c0.203,0.455,0.372,0.924,0.507,1.407c0.136,0.483,0.232,0.967,0.29,1.449
		c0.059,0.483,0.116,0.929,0.175,1.334c0.019,0.155,0.019,0.349,0,0.58c-0.02,0.232-0.029,0.368-0.029,0.406l-2.146,8.294
		c0.02,0.29,0.02,0.638,0,1.044s-0.053,0.803-0.102,1.189c-0.048,0.387-0.102,0.734-0.159,1.044s-0.116,0.521-0.174,0.638
		c-0.193,0.29-0.324,0.57-0.392,0.841c-0.068,0.271-0.188,0.532-0.362,0.783h-0.667h-0.464c-0.271,0-0.562-0.033-0.87-0.102
		c-0.31-0.067-0.464-0.198-0.464-0.392c-0.059-0.618-0.054-1.218,0.015-1.798c0.067-0.58,0.101-1.17,0.101-1.769
		c0-0.426-0.038-0.822-0.115-1.189C63.353,75.497,63.058,75.517,62.797,75.555z M64.783,68.827c-0.136,0.193-0.3,0.474-0.493,0.841
		s-0.348,0.677-0.464,0.928c-0.116,0.252-0.184,0.396-0.203,0.436l-0.231,1.16c0.212,0,0.396,0.028,0.551,0.087
		c0.154,0.058,0.29-0.01,0.406-0.203c0.135-0.213,0.251-0.488,0.348-0.826c0.097-0.339,0.169-0.677,0.218-1.016
		c0.048-0.338,0.082-0.652,0.102-0.942c0.019-0.29,0.028-0.493,0.028-0.609v-0.115C64.909,68.605,64.822,68.692,64.783,68.827z"/>
	<path fill="#D4AF8E" d="M73.483,80.021c-0.504-0.116-0.986-0.266-1.45-0.45c-0.464-0.184-0.89-0.405-1.276-0.667
		c-0.387-0.261-0.721-0.556-1-0.884c-0.281-0.329-0.479-0.696-0.595-1.103c-0.077-0.212-0.188-0.435-0.334-0.667
		c-0.145-0.231-0.246-0.454-0.304-0.667v-0.058c0.019-0.116,0.198-0.228,0.536-0.334c0.338-0.105,0.72-0.203,1.146-0.29
		c0.425-0.087,0.831-0.174,1.218-0.261s0.647-0.188,0.783-0.305c0.174-0.135,0.328-0.087,0.464,0.146
		c0.135,0.231,0.295,0.526,0.479,0.884c0.184,0.358,0.406,0.706,0.667,1.044c0.261,0.339,0.595,0.547,1.001,0.624
		c0.192,0.039,0.453,0.063,0.782,0.072s0.59,0.015,0.783,0.015c0.116-0.116,0.251-0.174,0.406-0.174
		c0.174,0,0.333-0.005,0.479-0.015c0.145-0.01,0.28-0.067,0.406-0.174c0.125-0.106,0.217-0.334,0.275-0.682V75.99
		c0-0.02-0.005-0.087-0.015-0.203s-0.024-0.236-0.044-0.362s-0.033-0.242-0.043-0.349c-0.01-0.105-0.024-0.159-0.044-0.159
		c-0.464-0.367-0.875-0.7-1.232-1s-0.696-0.6-1.015-0.899c-0.319-0.3-0.639-0.613-0.957-0.942c-0.319-0.329-0.663-0.706-1.029-1.131
		c-0.175,0-0.314-0.048-0.421-0.146c-0.106-0.097-0.188-0.212-0.246-0.348c-0.059-0.135-0.116-0.275-0.175-0.421
		c-0.058-0.145-0.126-0.266-0.202-0.362c-0.02-0.038-0.063-0.105-0.131-0.203c-0.068-0.097-0.141-0.203-0.218-0.318
		c-0.077-0.116-0.149-0.228-0.218-0.334c-0.067-0.105-0.12-0.188-0.159-0.246c-0.444-0.367-0.778-0.74-1-1.117
		c-0.223-0.377-0.368-0.758-0.436-1.146c-0.067-0.386-0.087-0.787-0.058-1.203c0.029-0.415,0.082-0.855,0.159-1.319
		c0.039-0.213,0.106-0.469,0.203-0.769s0.222-0.595,0.377-0.885c0.154-0.29,0.334-0.556,0.536-0.797
		c0.203-0.242,0.431-0.421,0.682-0.537c0.734-0.328,1.596-0.536,2.581-0.623c0.986-0.087,1.904-0.063,2.755,0.072
		c0.232,0.039,0.479,0.111,0.74,0.218c0.261,0.106,0.531,0.217,0.812,0.333s0.556,0.232,0.826,0.349
		c0.271,0.115,0.532,0.202,0.783,0.261c0.02,0.097,0.149,0.198,0.392,0.305c0.241,0.106,0.512,0.241,0.813,0.405
		c0.299,0.165,0.594,0.349,0.884,0.552c0.29,0.202,0.493,0.43,0.609,0.681c0.058,0.116,0.131,0.252,0.218,0.406
		c0.087,0.155,0.174,0.31,0.261,0.464c0.087,0.155,0.154,0.31,0.203,0.464c0.048,0.155,0.063,0.301,0.043,0.436
		c-0.039,0.155-0.222,0.28-0.551,0.377s-0.706,0.179-1.131,0.246c-0.426,0.068-0.837,0.111-1.232,0.131
		c-0.396,0.02-0.672,0.02-0.826,0c-0.098-0.02-0.228-0.044-0.392-0.072c-0.165-0.029-0.275-0.092-0.334-0.188l-0.898-1.596
		c-0.078-0.096-0.228-0.164-0.45-0.202c-0.223-0.039-0.382-0.068-0.479-0.088c-0.31-0.058-0.628-0.105-0.957-0.145
		c-0.329-0.038-0.633-0.038-0.913,0c-0.28,0.039-0.518,0.136-0.711,0.29c-0.193,0.155-0.318,0.387-0.377,0.696
		c-0.02,0.135-0.058,0.28-0.115,0.435c-0.059,0.155-0.098,0.31-0.116,0.464c-0.02,0.155-0.015,0.31,0.015,0.464
		c0.028,0.155,0.12,0.301,0.275,0.436c0.387,0.367,0.734,0.691,1.044,0.972c0.309,0.28,0.604,0.551,0.885,0.812
		c0.279,0.261,0.56,0.527,0.841,0.798c0.279,0.271,0.584,0.58,0.913,0.928c0.174,0.213,0.338,0.392,0.493,0.536
		c0.154,0.146,0.348,0.314,0.58,0.508c0.154,0.136,0.333,0.3,0.536,0.493s0.406,0.392,0.609,0.595s0.396,0.405,0.58,0.608
		c0.184,0.203,0.333,0.382,0.449,0.537c0.116,0.213,0.241,0.454,0.377,0.725c0.135,0.271,0.31,0.483,0.522,0.638
		c-0.039,0.464-0.087,1.011-0.146,1.639c-0.058,0.629-0.126,1.165-0.203,1.609c-0.115,0.678-0.353,1.194-0.71,1.552
		c-0.358,0.358-0.803,0.619-1.334,0.783c-0.532,0.164-1.137,0.261-1.813,0.29c-0.677,0.028-1.383,0.054-2.117,0.072
		c-0.02,0-0.087,0-0.203,0c-0.097,0-0.223,0-0.377,0c-0.136,0-0.271,0-0.406,0c-0.135,0-0.242-0.01-0.318-0.029l-0.349-0.058
		c-0.039,0-0.106,0.029-0.203,0.087s-0.154,0.087-0.174,0.087c-0.154,0.02-0.261-0.033-0.318-0.159
		c-0.059-0.126-0.107-0.266-0.146-0.421L73.483,80.021z"/>
	<path fill="#D4AF8E" d="M90.854,79.586c0.058-0.271,0.135-0.608,0.231-1.015s0.126-0.764,0.088-1.073l0.174-1.855
		c0.038-0.445,0.105-0.793,0.203-1.045c0.096-0.251,0.145-0.561,0.145-0.928c-0.155,0-0.275-0.029-0.362-0.087
		s-0.188-0.067-0.305-0.029c-0.31,0.098-0.561,0.29-0.754,0.58s-0.319,0.57-0.377,0.841c-0.174,0.6-0.348,1.175-0.522,1.726
		c-0.174,0.552-0.328,1.194-0.464,1.929c-0.058,0.271-0.141,0.455-0.246,0.551c-0.106,0.098-0.228,0.15-0.362,0.16
		c-0.136,0.01-0.281,0.015-0.436,0.015c-0.136,0-0.271,0.038-0.406,0.115c-0.154,0.078-0.275,0.165-0.362,0.262
		s-0.174,0.188-0.261,0.275s-0.188,0.164-0.305,0.231c-0.116,0.068-0.271,0.102-0.464,0.102c-0.677,0-1.131-0.082-1.363-0.246
		c-0.231-0.164-0.348-0.556-0.348-1.175v-0.87c0.097-0.444,0.232-1.067,0.406-1.87c0.174-0.802,0.357-1.639,0.551-2.509
		s0.382-1.696,0.565-2.479s0.334-1.396,0.449-1.842c0.077-0.309,0.198-0.792,0.363-1.449c0.163-0.657,0.338-1.334,0.521-2.03
		s0.377-1.339,0.58-1.929c0.203-0.589,0.392-0.972,0.565-1.146l1.943-0.406c0.038,0,0.154-0.033,0.348-0.102
		c0.193-0.067,0.377-0.105,0.551-0.115s0.31,0.034,0.406,0.13c0.097,0.098,0.077,0.31-0.058,0.639
		c0.038,0.231,0.11,0.357,0.217,0.377s0.218,0.024,0.334,0.015s0.218,0.005,0.305,0.043c0.087,0.039,0.13,0.193,0.13,0.464
		c0,0.232-0.024,0.479-0.072,0.739c-0.049,0.262-0.097,0.518-0.145,0.769c-0.049,0.252-0.093,0.498-0.131,0.74
		c-0.039,0.241-0.058,0.459-0.058,0.652c0.019,0.329-0.034,0.725-0.16,1.188c-0.126,0.465-0.246,0.899-0.362,1.306
		c-0.116,0.405-0.193,0.734-0.232,0.985c-0.038,0.252,0.049,0.319,0.262,0.203c0.058,0,0.149,0.01,0.275,0.029
		c0.125,0.02,0.251,0.024,0.377,0.015c0.125-0.01,0.246-0.044,0.362-0.102c0.116-0.059,0.193-0.154,0.232-0.29l2.522-10.237
		l1.683-0.551c0.058-0.02,0.115,0.015,0.174,0.102c0.058,0.087,0.116,0.188,0.174,0.305c0.058,0.115,0.111,0.223,0.159,0.318
		c0.048,0.098,0.102,0.136,0.16,0.116c0.096-0.019,0.183-0.033,0.261-0.043c0.077-0.01,0.145-0.015,0.203-0.015
		c0.212,0,0.362,0.111,0.449,0.333c0.087,0.223,0.082,0.634-0.015,1.232c-0.039,0.232-0.029,0.411,0.029,0.537
		c0.058,0.126,0.13,0.231,0.218,0.318c0.087,0.087,0.169,0.18,0.246,0.275c0.077,0.098,0.116,0.223,0.116,0.378
		c0,0.251-0.029,0.521-0.087,0.812c-0.059,0.29-0.126,0.585-0.203,0.885c-0.078,0.3-0.16,0.595-0.247,0.884
		c-0.087,0.29-0.159,0.562-0.217,0.813l-0.349,1.537c-0.405,1.663-0.759,3.055-1.059,4.176s-0.556,2.098-0.769,2.929
		c-0.213,0.832-0.391,1.562-0.536,2.189c-0.145,0.629-0.275,1.271-0.392,1.929l0.146,1.103c0.019,0.097-0.005,0.179-0.073,0.246
		c-0.067,0.068-0.145,0.126-0.231,0.174s-0.17,0.087-0.247,0.116s-0.115,0.053-0.115,0.072c-0.136,0.329-0.275,0.556-0.421,0.682
		c-0.145,0.126-0.266,0.188-0.362,0.188h-0.174c-0.02-0.02-0.039-0.082-0.059-0.188s-0.034-0.218-0.043-0.333
		c-0.01-0.116-0.024-0.223-0.044-0.319s-0.039-0.155-0.058-0.174c-0.116-0.039-0.232-0.078-0.349-0.116
		c-0.115-0.038-0.222-0.038-0.318,0c-0.193,0.077-0.339,0.131-0.436,0.159c-0.097,0.029-0.261-0.033-0.492-0.188
		c-0.098-0.077-0.214-0.125-0.349-0.145c-0.136-0.02-0.271-0.059-0.406-0.116c-0.135-0.058-0.251-0.149-0.348-0.275
		S90.872,79.857,90.854,79.586z"/>
	<path fill="#D4AF8E" d="M98.597,78.978l0.029-0.088c0.155-0.058,0.285-0.135,0.392-0.231c0.105-0.097,0.159-0.164,0.159-0.203
		l-0.174-0.551c0.058-0.251,0.14-0.643,0.246-1.175c0.106-0.531,0.232-1.131,0.377-1.798c0.146-0.667,0.295-1.363,0.45-2.088
		c0.154-0.726,0.304-1.416,0.449-2.073c0.145-0.657,0.28-1.247,0.406-1.77c0.125-0.521,0.227-0.908,0.304-1.16
		c0.02-0.058,0.049-0.246,0.088-0.565c0.038-0.318,0.087-0.662,0.145-1.029s0.111-0.705,0.159-1.015
		c0.049-0.31,0.092-0.493,0.131-0.552c0.058-0.174,0.169-0.468,0.333-0.884s0.324-0.841,0.479-1.276
		c0.155-0.435,0.276-0.826,0.363-1.175c0.087-0.348,0.072-0.521-0.044-0.521c-0.02,0-0.063-0.02-0.13-0.059
		c-0.068-0.038-0.136-0.082-0.203-0.13c-0.068-0.048-0.116-0.102-0.146-0.16c-0.029-0.058-0.015-0.105,0.044-0.145
		c0.174-0.154,0.584-0.261,1.232-0.319c0.647-0.058,1.349-0.087,2.103-0.087s1.459,0.01,2.117,0.029
		c0.656,0.02,1.082,0.039,1.275,0.058l0.696,0.059c0.367,0.02,0.739,0.087,1.116,0.203c0.377,0.115,0.672,0.338,0.885,0.667
		c0.193,0.29,0.387,0.483,0.58,0.58c0.192,0.097,0.348,0.222,0.464,0.377c0.251,0.405,0.367,0.86,0.348,1.362
		c0,0.02-0.01,0.049-0.028,0.087c-0.039,0.039-0.098,0.106-0.175,0.203c-0.077,0.098-0.159,0.193-0.246,0.29
		c-0.087,0.098-0.174,0.188-0.261,0.275s-0.16,0.141-0.218,0.16c-0.097,0.02-0.208,0.01-0.333-0.029
		c-0.126-0.038-0.252-0.072-0.378-0.102s-0.246-0.038-0.362-0.029c-0.116,0.011-0.203,0.054-0.261,0.131
		c-0.058,0.097-0.266,0.164-0.623,0.203c-0.358,0.039-0.783,0.063-1.276,0.072s-1.011,0.015-1.552,0.015
		c-0.521,0-0.985,0.01-1.392,0.029c-0.039,0.097-0.087,0.271-0.146,0.521c-0.058,0.252-0.126,0.542-0.203,0.87
		c-0.077,0.329-0.159,0.672-0.246,1.029c-0.087,0.358-0.17,0.682-0.246,0.972l-0.029,0.146c0.019,0.019,0.058,0.058,0.116,0.115
		c0.058,0.059,0.105,0.098,0.145,0.116c0.251,0.02,0.551,0.049,0.899,0.087c0.348,0.039,0.7,0.087,1.059,0.146
		c0.357,0.058,0.71,0.126,1.059,0.203c0.348,0.077,0.647,0.174,0.898,0.29c0.097,0.058,0.154,0.149,0.174,0.275
		s0.029,0.266,0.029,0.42c-0.02,0.098-0.024,0.208-0.015,0.334s0.044,0.228,0.102,0.305c0.154,0.231,0.285,0.405,0.392,0.521
		s0.256,0.28,0.449,0.493c0.059,0.077,0.005,0.159-0.159,0.246s-0.358,0.17-0.58,0.247c-0.223,0.077-0.44,0.141-0.652,0.188
		c-0.213,0.048-0.339,0.072-0.377,0.072c-0.174,0.02-0.479,0.044-0.914,0.072c-0.435,0.029-0.898,0.059-1.392,0.087
		c-0.493,0.029-0.957,0.059-1.392,0.087c-0.436,0.029-0.74,0.044-0.914,0.044l-0.406,0.551l-0.898,3.567
		c0,0.193,0.154,0.314,0.464,0.362c0.309,0.049,0.686,0.072,1.131,0.072c0.444,0,0.908-0.01,1.393-0.028
		c0.482-0.02,0.898,0,1.246,0.058c0.077,0,0.179,0.068,0.305,0.203c0.126,0.136,0.256,0.295,0.392,0.479
		c0.135,0.184,0.256,0.372,0.362,0.565s0.179,0.348,0.218,0.464v0.145c-0.02,0.232-0.136,0.47-0.348,0.711
		c-0.213,0.242-0.532,0.392-0.957,0.449c-0.542,0.098-1.218,0.165-2.03,0.203c-0.812,0.039-1.595,0.059-2.349,0.059
		s-1.407-0.005-1.958-0.015s-0.836-0.015-0.855-0.015c-0.329-0.039-0.638-0.169-0.928-0.392
		C98.713,79.669,98.578,79.364,98.597,78.978z"/>
	<path fill="#D4AF8E" d="M112.14,81.326l0.726-3.016c0.038-0.232,0.063-0.401,0.072-0.508s0.005-0.198-0.015-0.275
		c-0.02,0-0.02-0.02,0-0.059l4.582-14.21c0-0.019,0.005-0.053,0.015-0.102c0.009-0.048,0.015-0.091,0.015-0.13
		c-0.02-0.29-0.223-0.474-0.609-0.551s-0.808-0.126-1.262-0.146c-0.454-0.019-0.87-0.038-1.247-0.058s-0.556-0.116-0.536-0.29
		c0-0.039,0.053-0.077,0.159-0.116s0.16-0.106,0.16-0.203c0-0.038-0.068-0.087-0.203-0.145c-0.136-0.077-0.126-0.179,0.028-0.305
		c0.155-0.126,0.28-0.208,0.377-0.247c1.16-0.097,2.359-0.203,3.597-0.318c1.236-0.116,2.436-0.193,3.596-0.232l0.377-0.029
		c0.213,0,0.436-0.009,0.667-0.028c0.232-0.02,0.454-0.029,0.667-0.029l0.377-0.029c0.059,0.116,0.033,0.208-0.072,0.275
		c-0.106,0.068-0.179,0.126-0.218,0.175c-0.039,0.048,0.005,0.087,0.131,0.115c0.125,0.029,0.469,0.054,1.029,0.073
		c0.29,0.02,0.623,0.053,1.001,0.102c0.377,0.048,0.734,0.126,1.072,0.231c0.338,0.106,0.624,0.247,0.855,0.421
		c0.232,0.174,0.357,0.405,0.377,0.695s0.077,0.532,0.175,0.726c0.096,0.193,0.154,0.435,0.174,0.725
		c0.019,0.773-0.078,1.445-0.29,2.016c-0.213,0.57-0.493,1.073-0.841,1.508c-0.349,0.436-0.73,0.808-1.146,1.117
		c-0.416,0.31-0.817,0.585-1.204,0.826c-0.387,0.242-0.721,0.454-1,0.638c-0.281,0.185-0.46,0.362-0.537,0.537
		c0.097,0.464,0.213,0.99,0.349,1.58c0.135,0.59,0.261,1.194,0.377,1.813c0.115,0.619,0.217,1.223,0.305,1.813
		c0.087,0.59,0.14,1.116,0.159,1.58c0,0.098,0.023,0.305,0.072,0.624c0.048,0.319,0.082,0.614,0.102,0.885
		c0.019,0.348,0.005,0.638-0.044,0.87c-0.048,0.231-0.063,0.396-0.043,0.492c0,0.059-0.029,0.059-0.087,0
		c-0.059-0.058-0.131-0.102-0.218-0.13c-0.087-0.029-0.179-0.024-0.275,0.015s-0.184,0.174-0.261,0.405
		c-0.155,0.522-0.305,0.899-0.45,1.131c-0.145,0.232-0.285,0.387-0.42,0.465c-0.136,0.077-0.261,0.105-0.377,0.087
		c-0.116-0.02-0.232-0.029-0.349-0.029c-0.154,0-0.271-0.034-0.348-0.102c-0.077-0.068-0.141-0.155-0.188-0.261
		c-0.049-0.106-0.082-0.228-0.102-0.362c-0.02-0.136-0.058-0.271-0.116-0.406l-0.261-2.204c-0.174-0.696-0.314-1.416-0.42-2.16
		c-0.107-0.744-0.208-1.455-0.305-2.132c-0.098-0.677-0.199-1.28-0.305-1.813c-0.106-0.531-0.237-0.923-0.392-1.175
		c-0.02,0-0.063-0.004-0.131-0.015c-0.067-0.009-0.121-0.014-0.159-0.014c-0.251,0.02-0.426,0.106-0.521,0.261
		c-0.098,0.155-0.194,0.329-0.29,0.521c-0.098,0.213-0.232,0.503-0.406,0.87c-0.174,0.368-0.339,0.745-0.493,1.131
		c-0.077,0.194-0.146,0.373-0.203,0.537s-0.126,0.314-0.203,0.449c-0.097,0.29-0.193,0.551-0.29,0.783
		c-0.097,0.231-0.174,0.445-0.231,0.638c-0.078,0.213-0.165,0.483-0.262,0.813s-0.188,0.657-0.275,0.985
		c-0.087,0.329-0.169,0.619-0.246,0.87c-0.077,0.252-0.126,0.406-0.146,0.464c-0.038,0.098-0.082,0.155-0.13,0.175
		c-0.049,0.019-0.121,0.028-0.218,0.028c-0.077,0-0.228,0.005-0.449,0.015c-0.223,0.01-0.382,0.072-0.479,0.188
		c-0.174,0.116-0.295,0.246-0.362,0.392c-0.068,0.145-0.126,0.29-0.175,0.435c-0.048,0.146-0.102,0.271-0.159,0.377
		s-0.145,0.16-0.261,0.16s-0.174-0.078-0.174-0.232c0-0.136-0.049-0.203-0.146-0.203c-0.058,0-0.116,0.034-0.174,0.102
		s-0.106,0.136-0.145,0.203c-0.039,0.067-0.077,0.116-0.116,0.146c-0.039,0.028-0.059,0.014-0.059-0.044L112.14,81.326z
		 M123.044,62.969c-0.542,0-0.919,0.044-1.131,0.131c-0.213,0.087-0.373,0.257-0.479,0.508c-0.106,0.251-0.208,0.604-0.305,1.059
		s-0.3,1.039-0.609,1.754c0,0.02-0.043,0.15-0.13,0.392c-0.087,0.242-0.16,0.464-0.218,0.667s-0.097,0.324-0.116,0.362
		c0.425-0.154,0.899-0.362,1.421-0.623c0.522-0.261,1.01-0.551,1.465-0.87c0.454-0.319,0.836-0.667,1.146-1.044
		c0.309-0.377,0.454-0.759,0.435-1.146c-0.02-0.464-0.13-0.778-0.333-0.942s-0.585-0.236-1.146-0.218V62.969z"/>
	<path fill="#D4AF8E" d="M132.15,80.021c-0.504-0.116-0.986-0.266-1.45-0.45c-0.464-0.184-0.89-0.405-1.276-0.667
		c-0.387-0.261-0.721-0.556-1-0.884c-0.281-0.329-0.479-0.696-0.595-1.103c-0.077-0.212-0.188-0.435-0.334-0.667
		c-0.145-0.231-0.246-0.454-0.304-0.667v-0.058c0.019-0.116,0.198-0.228,0.536-0.334c0.338-0.105,0.72-0.203,1.146-0.29
		c0.425-0.087,0.831-0.174,1.218-0.261s0.647-0.188,0.783-0.305c0.174-0.135,0.328-0.087,0.464,0.146
		c0.135,0.231,0.295,0.526,0.479,0.884c0.184,0.358,0.406,0.706,0.667,1.044c0.261,0.339,0.595,0.547,1.001,0.624
		c0.192,0.039,0.453,0.063,0.782,0.072s0.59,0.015,0.783,0.015c0.116-0.116,0.251-0.174,0.406-0.174
		c0.174,0,0.333-0.005,0.479-0.015c0.145-0.01,0.28-0.067,0.406-0.174c0.125-0.106,0.217-0.334,0.275-0.682V75.99
		c0-0.02-0.005-0.087-0.015-0.203s-0.024-0.236-0.044-0.362s-0.033-0.242-0.043-0.349c-0.01-0.105-0.024-0.159-0.044-0.159
		c-0.464-0.367-0.875-0.7-1.232-1s-0.696-0.6-1.015-0.899c-0.319-0.3-0.639-0.613-0.957-0.942c-0.319-0.329-0.663-0.706-1.029-1.131
		c-0.175,0-0.314-0.048-0.421-0.146c-0.106-0.097-0.188-0.212-0.246-0.348c-0.059-0.135-0.116-0.275-0.175-0.421
		c-0.058-0.145-0.126-0.266-0.202-0.362c-0.02-0.038-0.063-0.105-0.131-0.203c-0.068-0.097-0.141-0.203-0.218-0.318
		c-0.077-0.116-0.149-0.228-0.218-0.334c-0.067-0.105-0.12-0.188-0.159-0.246c-0.444-0.367-0.778-0.74-1-1.117
		c-0.223-0.377-0.368-0.758-0.436-1.146c-0.067-0.386-0.087-0.787-0.058-1.203c0.029-0.415,0.082-0.855,0.159-1.319
		c0.039-0.213,0.106-0.469,0.203-0.769s0.222-0.595,0.377-0.885c0.154-0.29,0.334-0.556,0.536-0.797
		c0.203-0.242,0.431-0.421,0.682-0.537c0.734-0.328,1.596-0.536,2.581-0.623c0.986-0.087,1.904-0.063,2.755,0.072
		c0.232,0.039,0.479,0.111,0.74,0.218c0.261,0.106,0.531,0.217,0.812,0.333s0.556,0.232,0.826,0.349
		c0.271,0.115,0.532,0.202,0.783,0.261c0.02,0.097,0.149,0.198,0.392,0.305c0.241,0.106,0.512,0.241,0.813,0.405
		c0.299,0.165,0.594,0.349,0.884,0.552c0.29,0.202,0.493,0.43,0.609,0.681c0.058,0.116,0.131,0.252,0.218,0.406
		c0.087,0.155,0.174,0.31,0.261,0.464c0.087,0.155,0.154,0.31,0.203,0.464c0.048,0.155,0.063,0.301,0.043,0.436
		c-0.039,0.155-0.222,0.28-0.551,0.377s-0.706,0.179-1.131,0.246c-0.426,0.068-0.837,0.111-1.232,0.131
		c-0.396,0.02-0.672,0.02-0.826,0c-0.098-0.02-0.228-0.044-0.392-0.072c-0.165-0.029-0.275-0.092-0.334-0.188l-0.898-1.596
		c-0.078-0.096-0.228-0.164-0.45-0.202c-0.223-0.039-0.382-0.068-0.479-0.088c-0.31-0.058-0.628-0.105-0.957-0.145
		c-0.329-0.038-0.633-0.038-0.913,0c-0.28,0.039-0.518,0.136-0.711,0.29c-0.193,0.155-0.318,0.387-0.377,0.696
		c-0.02,0.135-0.058,0.28-0.115,0.435c-0.059,0.155-0.098,0.31-0.116,0.464c-0.02,0.155-0.015,0.31,0.015,0.464
		c0.028,0.155,0.12,0.301,0.275,0.436c0.387,0.367,0.734,0.691,1.044,0.972c0.309,0.28,0.604,0.551,0.885,0.812
		c0.279,0.261,0.56,0.527,0.841,0.798c0.279,0.271,0.584,0.58,0.913,0.928c0.174,0.213,0.338,0.392,0.493,0.536
		c0.154,0.146,0.348,0.314,0.58,0.508c0.154,0.136,0.333,0.3,0.536,0.493s0.406,0.392,0.609,0.595s0.396,0.405,0.58,0.608
		c0.184,0.203,0.333,0.382,0.449,0.537c0.116,0.213,0.241,0.454,0.377,0.725c0.135,0.271,0.31,0.483,0.522,0.638
		c-0.039,0.464-0.087,1.011-0.146,1.639c-0.058,0.629-0.126,1.165-0.203,1.609c-0.115,0.678-0.353,1.194-0.71,1.552
		c-0.358,0.358-0.803,0.619-1.334,0.783c-0.532,0.164-1.137,0.261-1.813,0.29c-0.677,0.028-1.383,0.054-2.117,0.072
		c-0.02,0-0.087,0-0.203,0c-0.097,0-0.223,0-0.377,0c-0.136,0-0.271,0-0.406,0c-0.135,0-0.242-0.01-0.318-0.029l-0.349-0.058
		c-0.039,0-0.106,0.029-0.203,0.087s-0.154,0.087-0.174,0.087c-0.154,0.02-0.261-0.033-0.318-0.159
		c-0.059-0.126-0.107-0.266-0.146-0.421L132.15,80.021z"/>
</g>
</svg>
