<?xml version="1.0" encoding="utf-8"?>
<!-- Generator: Adobe Illustrator 16.0.0, SVG Export Plug-In . SVG Version: 6.00 Build 0)  -->
<!DOCTYPE svg PUBLIC "-//W3C//DTD SVG 1.1//EN" "http://www.w3.org/Graphics/SVG/1.1/DTD/svg11.dtd">
<svg version="1.1" id="Capa_1" xmlns="http://www.w3.org/2000/svg" xmlns:xlink="http://www.w3.org/1999/xlink" x="0px" y="0px"
	 width="270px" height="150px" viewBox="-152.528 -53.979 270 150" enable-background="new -152.528 -53.979 270 150"
	 xml:space="preserve">
<g id="XMLID_151_">
	<path id="XMLID_167_" fill="#D4AF8E" d="M-69.741-14.393c-2.783,0-5.042,2.259-5.042,5.042V5.15c0,2.783,2.258,5.045,5.042,5.045
		h1.676c-0.08-1.256-0.193-2.5-0.193-3.767c0-7.855,0.642-14.738,1.762-20.822L-69.741-14.393L-69.741-14.393z"/>
	<path id="XMLID_166_" fill="#D4AF8E" d="M33.097-14.393h-3.249C30.974-8.31,31.614-1.426,31.614,6.43
		c0,1.266-0.11,2.51-0.194,3.766h1.678c2.786,0,5.042-2.262,5.042-5.045v-14.5C38.139-12.134,35.883-14.393,33.097-14.393z"/>
	<path id="XMLID_152_" fill="#D4AF8E" d="M-18.321-50.07c-31.978,0-42.41,25.294-42.41,56.5c0,31.202,26.339,56.5,42.41,56.5
		s42.403-25.298,42.403-56.5C24.083-24.776,13.655-50.07-18.321-50.07z M-10.789-35.793c2.523,0,4.579,2.055,4.579,4.587
		c0,2.534-2.056,4.59-4.579,4.59c-2.539,0-4.593-2.055-4.593-4.59C-15.382-33.739-13.327-35.793-10.789-35.793z M-25.848-35.793
		c2.532,0,4.586,2.055,4.586,4.587c0,2.534-2.055,4.59-4.586,4.59c-2.535,0-4.587-2.055-4.587-4.59
		C-30.435-33.739-28.383-35.793-25.848-35.793z M-33.376,37.37c-2.532,0-4.586-2.056-4.586-4.586c0-2.531,2.055-4.587,4.586-4.587
		c2.53,0,4.587,2.056,4.587,4.587C-28.789,35.314-30.846,37.37-33.376,37.37z M-33.376,22.313c-2.532,0-4.586-2.049-4.586-4.586
		c0-2.532,2.055-4.587,4.586-4.587c2.53,0,4.587,2.055,4.587,4.587C-28.791,20.264-30.846,22.313-33.376,22.313z M-37.501,7.347
		c-7.204,0-13.049-3.938-13.049-8.793c0-4.856,5.846-8.794,13.049-8.794c7.215,0,13.053,3.938,13.053,8.794
		C-24.448,3.41-30.286,7.347-37.501,7.347z M-18.321,52.433c-2.531,0-4.586-2.056-4.586-4.593c0-2.532,2.055-4.588,4.586-4.588
		c2.531,0,4.587,2.056,4.587,4.588C-13.732,50.377-15.789,52.433-18.321,52.433z M-18.321,37.37c-2.531,0-4.586-2.056-4.586-4.586
		c0-2.531,2.055-4.587,4.586-4.587c2.531,0,4.587,2.056,4.587,4.587C-13.734,35.314-15.789,37.37-18.321,37.37z M-18.321,22.313
		c-2.531,0-4.586-2.049-4.586-4.586c0-2.532,2.055-4.587,4.586-4.587c2.531,0,4.587,2.055,4.587,4.587
		C-13.732,20.264-15.789,22.313-18.321,22.313z M-18.321-11.562c-2.531,0-4.586-2.055-4.586-4.59c0-2.531,2.055-4.586,4.586-4.586
		c2.531,0,4.587,2.055,4.587,4.586C-13.732-13.616-15.789-11.562-18.321-11.562z M-3.264,37.37c-2.532,0-4.587-2.056-4.587-4.586
		c0-2.531,2.055-4.587,4.587-4.587c2.531,0,4.587,2.056,4.587,4.587C1.323,35.314-0.733,37.37-3.264,37.37z M-3.264,22.313
		c-2.532,0-4.587-2.049-4.587-4.586c0-2.532,2.055-4.587,4.587-4.587c2.531,0,4.587,2.055,4.587,4.587
		C1.323,20.264-0.733,22.313-3.264,22.313z M13.909-1.446c0,4.855-5.841,8.793-13.049,8.793c-7.215,0-13.056-3.938-13.056-8.793
		c0-4.856,5.841-8.794,13.056-8.794C8.068-10.24,13.909-6.302,13.909-1.446z"/>
</g>
<g>
	<path fill="#D4AF8E" d="M-132.119,90.759c0.054-0.287,0.125-0.635,0.216-1.039c0.09-0.405,0.117-0.761,0.081-1.066l0.189-1.863
		c0.036-0.432,0.099-0.778,0.189-1.04c0.09-0.26,0.135-0.57,0.135-0.931c-0.145,0-0.261-0.027-0.351-0.081
		c-0.09-0.055-0.189-0.063-0.297-0.027c-0.289,0.09-0.527,0.283-0.716,0.58c-0.189,0.298-0.311,0.581-0.364,0.851
		c-0.162,0.595-0.329,1.161-0.5,1.701c-0.171,0.54-0.32,1.188-0.446,1.944c-0.054,0.27-0.13,0.455-0.229,0.554
		s-0.211,0.157-0.337,0.175c-0.126,0.019-0.261,0.027-0.405,0.027c-0.126,0-0.252,0.036-0.378,0.108
		c-0.145,0.071-0.261,0.157-0.351,0.256c-0.09,0.1-0.176,0.194-0.257,0.284c-0.081,0.09-0.18,0.166-0.297,0.229
		c-0.117,0.063-0.266,0.094-0.445,0.094c-0.63,0-1.058-0.085-1.283-0.256s-0.337-0.563-0.337-1.175V89.22
		c0.09-0.449,0.216-1.075,0.378-1.876s0.337-1.634,0.526-2.498c0.189-0.863,0.374-1.696,0.554-2.497
		c0.18-0.801,0.324-1.418,0.432-1.85c0.054-0.216,0.122-0.513,0.202-0.891c0.081-0.379,0.176-0.788,0.284-1.229
		c0.108-0.44,0.225-0.899,0.351-1.376c0.125-0.477,0.252-0.922,0.378-1.336s0.247-0.778,0.365-1.094
		c0.117-0.314,0.229-0.526,0.337-0.634l1.863-0.432c0.036,0,0.144-0.031,0.324-0.094c0.18-0.063,0.355-0.099,0.526-0.108
		c0.171-0.009,0.301,0.036,0.392,0.135c0.09,0.099,0.072,0.311-0.054,0.634c0.036,0.234,0.104,0.36,0.203,0.378
		c0.099,0.018,0.203,0.022,0.311,0.013c0.108-0.009,0.203,0.005,0.283,0.041c0.081,0.036,0.122,0.189,0.122,0.459
		c0,0.468-0.067,0.972-0.202,1.512c-0.135,0.54-0.194,1.008-0.176,1.404c0.018,0.324-0.032,0.72-0.148,1.188
		c-0.117,0.468-0.234,0.904-0.351,1.31c-0.117,0.404-0.189,0.733-0.216,0.985c-0.027,0.252,0.058,0.323,0.256,0.216
		c0.054,0,0.139,0.009,0.256,0.027c0.117,0.018,0.234,0.018,0.351,0c0.117-0.019,0.229-0.05,0.337-0.095
		c0.108-0.045,0.18-0.14,0.216-0.284l2.43-10.26l1.566-0.567c0.071-0.018,0.135,0.018,0.189,0.108
		c0.054,0.09,0.108,0.194,0.162,0.311c0.054,0.117,0.104,0.221,0.149,0.311c0.044,0.09,0.094,0.126,0.148,0.108
		c0.09-0.018,0.171-0.031,0.243-0.041c0.072-0.009,0.144-0.013,0.216-0.013c0.198,0,0.337,0.112,0.418,0.337
		s0.076,0.644-0.014,1.255c-0.036,0.234-0.022,0.415,0.041,0.54c0.063,0.126,0.135,0.234,0.216,0.324
		c0.081,0.09,0.158,0.18,0.23,0.27c0.071,0.09,0.108,0.216,0.108,0.378c0,0.504-0.095,1.071-0.284,1.701
		c-0.189,0.63-0.337,1.188-0.445,1.674l-0.324,1.539c-0.396,1.656-0.733,3.051-1.012,4.185c-0.279,1.135-0.522,2.115-0.729,2.943
		c-0.208,0.828-0.378,1.557-0.513,2.187c-0.135,0.631-0.256,1.278-0.365,1.944l0.135,1.107c0.018,0.09-0.005,0.171-0.067,0.242
		c-0.063,0.072-0.14,0.131-0.229,0.176c-0.09,0.045-0.171,0.085-0.243,0.122c-0.072,0.035-0.108,0.063-0.108,0.081
		c-0.126,0.323-0.261,0.549-0.405,0.675c-0.144,0.125-0.261,0.188-0.351,0.188h-0.162c-0.018-0.018-0.037-0.076-0.054-0.175
		c-0.018-0.1-0.032-0.212-0.041-0.338c-0.009-0.126-0.022-0.239-0.041-0.338s-0.036-0.157-0.054-0.175
		c-0.108-0.036-0.216-0.072-0.324-0.108s-0.216-0.036-0.324,0c-0.18,0.072-0.315,0.121-0.405,0.148
		c-0.09,0.027-0.243-0.031-0.459-0.176c-0.09-0.071-0.203-0.121-0.337-0.148c-0.135-0.026-0.261-0.067-0.378-0.121
		c-0.117-0.054-0.226-0.144-0.324-0.271C-132.042,91.228-132.101,91.029-132.119,90.759z"/>
	<path fill="#D4AF8E" d="M-123.667,87.816c-0.072-0.342-0.221-0.648-0.446-0.918c-0.225-0.271-0.418-0.55-0.581-0.838
		c-0.054-0.071-0.077-0.166-0.067-0.283c0.009-0.117,0.018-0.233,0.027-0.351s0.004-0.229-0.013-0.338
		c-0.018-0.107-0.09-0.18-0.216-0.216l-0.243-1.215l-0.135-0.081v-0.378c0-0.486,0.059-0.949,0.176-1.391
		c0.117-0.441,0.184-0.913,0.202-1.418c0.144-0.035,0.225-0.162,0.243-0.378c0.018-0.216,0.045-0.396,0.081-0.54
		c0.666-1.116,1.472-2.137,2.417-3.064s1.939-1.759,2.983-2.498c0.072-0.054,0.216-0.108,0.432-0.162
		c0.216-0.054,0.445-0.112,0.688-0.176c0.243-0.063,0.459-0.125,0.648-0.189c0.189-0.063,0.292-0.121,0.311-0.175h2.538
		c0.09,0.144,0.225,0.252,0.405,0.324c0.18,0.072,0.369,0.126,0.567,0.162c0.198,0.037,0.391,0.077,0.58,0.122
		c0.189,0.045,0.355,0.122,0.5,0.229c0.594,0.45,1.192,0.972,1.796,1.566c0.603,0.594,1.174,1.207,1.714,1.836
		c0.054,0.09,0.099,0.135,0.135,0.135c0.468,0.342,0.824,0.738,1.066,1.188c0.243,0.45,0.463,0.919,0.662,1.404
		c0.018,0.054,0.036,0.091,0.054,0.108c0.054,0.468,0.148,0.913,0.283,1.336c0.135,0.424,0.203,0.869,0.203,1.337
		c0,1.17-0.292,2.291-0.877,3.361c-0.585,1.071-1.354,2.003-2.309,2.795c-0.018,0-0.18,0.099-0.486,0.297
		c-0.306,0.198-0.653,0.423-1.04,0.675c-0.387,0.252-0.774,0.49-1.161,0.716c-0.387,0.225-0.68,0.364-0.877,0.418
		c-0.468,0.198-0.909,0.369-1.323,0.514c-0.415,0.144-0.945,0.216-1.593,0.216s-1.319-0.131-2.011-0.392
		c-0.693-0.261-1.368-0.594-2.025-0.999s-1.273-0.851-1.849-1.337C-122.786,88.734-123.272,88.267-123.667,87.816z M-121.076,83.334
		c0.018,0.036,0.063,0.095,0.135,0.176c0.071,0.081,0.117,0.131,0.135,0.148c0.036,0.126,0.108,0.274,0.216,0.445
		c0.108,0.171,0.171,0.274,0.189,0.311v0.188v0.324v0.352v0.188c0.036,0.234,0.117,0.414,0.243,0.54s0.274,0.234,0.446,0.324
		c0.17,0.09,0.346,0.171,0.526,0.243c0.18,0.072,0.333,0.171,0.459,0.297c0.072,0.09,0.18,0.157,0.324,0.202
		s0.301,0.091,0.473,0.135c0.171,0.046,0.342,0.081,0.513,0.108c0.171,0.027,0.319,0.067,0.445,0.121c0.018,0,0.063,0,0.135,0
		c0.071,0,0.152,0.005,0.243,0.014c0.09,0.01,0.18,0.014,0.27,0.014c0.09,0,0.162,0,0.216,0c0.198,0,0.526-0.049,0.985-0.148
		c0.459-0.099,0.927-0.233,1.404-0.405c0.477-0.171,0.905-0.364,1.283-0.58s0.594-0.441,0.648-0.675
		c0-0.036,0.004-0.117,0.014-0.243c0.009-0.126,0.018-0.266,0.027-0.419c0.009-0.152,0.018-0.297,0.027-0.432
		c0.009-0.135,0.014-0.229,0.014-0.283c0.18-0.09,0.274-0.229,0.283-0.419c0.009-0.188,0.095-0.319,0.257-0.392
		c0.108-0.342,0.171-0.621,0.189-0.837c0.018-0.216,0.027-0.459,0.027-0.729v-0.676c-0.252-0.359-0.463-0.688-0.634-0.985
		c-0.171-0.297-0.351-0.566-0.54-0.81s-0.41-0.468-0.662-0.676c-0.252-0.206-0.576-0.4-0.972-0.58
		c-0.108-0.054-0.175-0.099-0.202-0.135c-0.027-0.036-0.045-0.076-0.054-0.122c-0.009-0.044-0.018-0.09-0.027-0.135
		c-0.009-0.045-0.041-0.112-0.095-0.203c-0.054-0.072-0.14-0.122-0.256-0.148c-0.117-0.027-0.243-0.054-0.378-0.081
		c-0.135-0.027-0.261-0.063-0.378-0.108c-0.118-0.045-0.212-0.112-0.284-0.203h-2.025c-0.037,0.145-0.113,0.234-0.229,0.27
		c-0.117,0.036-0.203,0.126-0.257,0.27c-0.036,0.036-0.09,0.135-0.162,0.297c-0.072,0.162-0.126,0.261-0.162,0.297
		c-0.234-0.054-0.518,0.063-0.851,0.351c-0.333,0.288-0.657,0.631-0.972,1.026c-0.315,0.396-0.585,0.788-0.81,1.175
		c-0.226,0.388-0.338,0.652-0.338,0.797c0,0.252,0.045,0.477,0.135,0.675c0.09,0.198,0.135,0.396,0.135,0.594v0.324
		C-121.04,83.244-121.076,83.316-121.076,83.334z M-112.328,74.046c0.036,0,0.054,0.045,0.054,0.135
		c0,0.072-0.019,0.108-0.054,0.108c-0.09,0-0.135-0.036-0.135-0.108C-112.462,74.091-112.418,74.046-112.328,74.046z"/>
	<path fill="#D4AF8E" d="M-106.712,90.894c0-0.018,0.027-0.076,0.081-0.175c0.054-0.099,0.108-0.203,0.162-0.311
		c0.054-0.108,0.108-0.212,0.162-0.311c0.054-0.099,0.081-0.157,0.081-0.176c0.144-0.468,0.233-0.989,0.27-1.565
		c0.036-0.576,0.027-1.099-0.027-1.566c0.486-1.979,0.945-3.938,1.377-5.873c0.432-1.935,0.81-3.91,1.134-5.926
		c0.036-0.162,0.063-0.324,0.081-0.486c0.018-0.162,0.036-0.314,0.054-0.459c0.018-0.09,0-0.175-0.054-0.256
		c-0.054-0.081-0.104-0.157-0.148-0.229c-0.045-0.072-0.081-0.139-0.108-0.203c-0.027-0.063-0.005-0.122,0.067-0.175
		c0.27-0.18,0.643-0.306,1.121-0.378c0.477-0.072,0.962-0.112,1.458-0.122c0.495-0.009,0.962,0,1.404,0.027
		c0.441,0.027,0.751,0.041,0.932,0.041c0,0.144,0.018,0.256,0.054,0.337s0.063,0.162,0.081,0.243
		c0.018,0.081,0.004,0.193-0.041,0.337c-0.045,0.145-0.148,0.36-0.311,0.648c-0.342,0.576-0.617,1.215-0.823,1.917
		c-0.208,0.702-0.365,1.414-0.473,2.133c-0.144,0.863-0.274,1.719-0.392,2.564c-0.117,0.847-0.248,1.684-0.392,2.512
		s-0.333,1.656-0.567,2.483c-0.234,0.828-0.549,1.647-0.945,2.457c0.072,0.216,0.252,0.338,0.54,0.364
		c0.288,0.027,0.616,0.01,0.985-0.054c0.369-0.063,0.751-0.135,1.147-0.216s0.747-0.121,1.053-0.121
		c0.108,0.036,0.238,0.117,0.392,0.242c0.152,0.127,0.306,0.275,0.459,0.446c0.152,0.171,0.288,0.337,0.405,0.499
		c0.117,0.162,0.185,0.288,0.203,0.378c0.018,0.091,0.063,0.193,0.135,0.311c0.072,0.117,0.148,0.239,0.229,0.364
		c0.081,0.126,0.144,0.248,0.189,0.365s0.049,0.202,0.014,0.256c-0.09,0.108-0.279,0.203-0.567,0.284
		c-0.288,0.08-0.604,0.144-0.945,0.188s-0.675,0.081-0.999,0.108c-0.324,0.026-0.558,0.05-0.702,0.067
		c-0.216,0.036-0.549,0.076-0.999,0.121c-0.45,0.045-0.918,0.09-1.404,0.135c-0.486,0.045-0.936,0.086-1.35,0.122
		c-0.415,0.036-0.693,0.063-0.837,0.081c-0.036,0-0.14,0.004-0.311,0.014c-0.171,0.009-0.301,0.013-0.391,0.013
		c-0.162,0-0.338-0.04-0.527-0.121s-0.36-0.189-0.513-0.324c-0.153-0.135-0.275-0.287-0.365-0.459
		C-106.721,91.276-106.748,91.092-106.712,90.894z"/>
	<path fill="#D4AF8E" d="M-96.128,90.894c0-0.018,0.027-0.076,0.081-0.175c0.054-0.099,0.108-0.203,0.162-0.311
		c0.054-0.108,0.108-0.212,0.162-0.311c0.054-0.099,0.081-0.157,0.081-0.176c0.144-0.468,0.233-0.989,0.27-1.565
		c0.036-0.576,0.027-1.099-0.027-1.566c0.486-1.979,0.945-3.938,1.377-5.873c0.432-1.935,0.81-3.91,1.134-5.926
		c0.036-0.162,0.063-0.324,0.081-0.486c0.018-0.162,0.036-0.314,0.054-0.459c0.018-0.09,0-0.175-0.054-0.256
		c-0.054-0.081-0.104-0.157-0.148-0.229c-0.045-0.072-0.081-0.139-0.108-0.203c-0.027-0.063-0.005-0.122,0.067-0.175
		c0.27-0.18,0.643-0.306,1.121-0.378c0.477-0.072,0.962-0.112,1.458-0.122c0.495-0.009,0.962,0,1.404,0.027
		c0.441,0.027,0.751,0.041,0.932,0.041c0,0.144,0.018,0.256,0.054,0.337s0.063,0.162,0.081,0.243
		c0.018,0.081,0.004,0.193-0.041,0.337c-0.045,0.145-0.148,0.36-0.311,0.648c-0.342,0.576-0.617,1.215-0.823,1.917
		c-0.208,0.702-0.365,1.414-0.473,2.133c-0.144,0.863-0.274,1.719-0.392,2.564c-0.117,0.847-0.248,1.684-0.392,2.512
		s-0.333,1.656-0.567,2.483c-0.234,0.828-0.549,1.647-0.945,2.457c0.072,0.216,0.252,0.338,0.54,0.364
		c0.288,0.027,0.616,0.01,0.985-0.054c0.369-0.063,0.751-0.135,1.147-0.216s0.747-0.121,1.053-0.121
		c0.108,0.036,0.238,0.117,0.392,0.242c0.152,0.127,0.306,0.275,0.459,0.446c0.152,0.171,0.288,0.337,0.405,0.499
		c0.117,0.162,0.185,0.288,0.203,0.378c0.018,0.091,0.063,0.193,0.135,0.311c0.072,0.117,0.148,0.239,0.229,0.364
		c0.081,0.126,0.144,0.248,0.189,0.365s0.049,0.202,0.014,0.256c-0.09,0.108-0.279,0.203-0.567,0.284
		c-0.288,0.08-0.604,0.144-0.945,0.188s-0.675,0.081-0.999,0.108c-0.324,0.026-0.558,0.05-0.702,0.067
		c-0.216,0.036-0.549,0.076-0.999,0.121c-0.45,0.045-0.918,0.09-1.404,0.135c-0.486,0.045-0.936,0.086-1.35,0.122
		c-0.415,0.036-0.693,0.063-0.837,0.081c-0.036,0-0.14,0.004-0.311,0.014c-0.171,0.009-0.301,0.013-0.391,0.013
		c-0.162,0-0.338-0.04-0.527-0.121s-0.36-0.189-0.513-0.324c-0.153-0.135-0.275-0.287-0.365-0.459
		C-96.137,91.276-96.164,91.092-96.128,90.894z"/>
	<path fill="#D4AF8E" d="M-84.626,92.514l-0.891-0.891l1.782-5.319c0.018-0.071,0.054-0.185,0.108-0.337
		c0.054-0.153,0.117-0.328,0.189-0.526s0.144-0.405,0.216-0.621c0.072-0.217,0.144-0.423,0.216-0.621
		c0.072-0.216,0.153-0.423,0.243-0.621c0.09-0.198,0.153-0.342,0.189-0.433c-0.036-0.035-0.095-0.121-0.175-0.256
		c-0.081-0.135-0.167-0.284-0.257-0.445c-0.09-0.162-0.167-0.315-0.229-0.459c-0.063-0.145-0.094-0.243-0.094-0.298
		c-0.145-1.043-0.288-1.93-0.432-2.659c-0.145-0.729-0.279-1.386-0.405-1.971c-0.126-0.585-0.226-1.152-0.297-1.701
		c-0.072-0.549-0.108-1.174-0.108-1.876c0-0.09,0.004-0.261,0.014-0.513c0.009-0.251,0.013-0.422,0.013-0.513
		c0-0.018,0.036-0.041,0.108-0.068c0.071-0.027,0.148-0.058,0.229-0.094c0.081-0.036,0.157-0.067,0.229-0.095
		c0.071-0.027,0.108-0.049,0.108-0.067c0-0.162,0.072-0.297,0.216-0.405s0.297-0.185,0.459-0.229s0.306-0.045,0.432,0
		c0.125,0.045,0.18,0.131,0.162,0.256c0.18,0.27,0.324,0.441,0.432,0.513c0.108,0.072,0.261,0.099,0.459,0.081l1.404,4.05
		c0.054,0.27,0.112,0.41,0.175,0.418c0.063,0.009,0.153-0.072,0.27-0.243c0.117-0.171,0.266-0.418,0.446-0.742
		c0.18-0.324,0.422-0.684,0.729-1.08c0.108-0.144,0.225-0.328,0.351-0.554c0.126-0.225,0.261-0.445,0.405-0.661
		c0.144-0.216,0.311-0.405,0.5-0.567c0.189-0.162,0.392-0.251,0.607-0.27l0.918-0.054l0.945-0.054l1.377,0.135
		c0.144,0.018,0.225,0.117,0.243,0.297c0.018,0.18,0.027,0.297,0.027,0.351c0,0.036-0.004,0.099-0.013,0.189
		c-0.009,0.09-0.014,0.153-0.014,0.189c-0.126,0.126-0.288,0.333-0.486,0.621c-0.198,0.288-0.423,0.621-0.675,0.999
		s-0.513,0.774-0.783,1.188s-0.522,0.814-0.756,1.201c-0.234,0.387-0.446,0.738-0.635,1.053s-0.329,0.554-0.418,0.716
		c-0.198,0.306-0.418,0.697-0.662,1.174c-0.243,0.478-0.491,0.968-0.742,1.472c-0.09,0.198-0.216,0.374-0.378,0.526
		c-0.162,0.153-0.252,0.257-0.27,0.311l-2.214,8.073c-0.036,0.126-0.09,0.27-0.162,0.432c-0.072,0.162-0.158,0.302-0.257,0.419
		c-0.099,0.117-0.216,0.197-0.351,0.243c-0.135,0.045-0.283,0.014-0.445-0.095c-0.198-0.144-0.369-0.198-0.513-0.162
		s-0.274,0.104-0.391,0.202c-0.118,0.1-0.226,0.203-0.324,0.311c-0.099,0.108-0.203,0.162-0.311,0.162L-84.626,92.514z"/>
	<path fill="#D4AF8E" d="M-53.333,73.56c-0.054,0.324-0.104,0.711-0.148,1.161c-0.045,0.45-0.099,0.891-0.162,1.323
		s-0.14,0.814-0.229,1.147c-0.09,0.333-0.207,0.526-0.351,0.581c-0.144,0.072-0.239,0.189-0.283,0.351
		c-0.045,0.162-0.077,0.342-0.095,0.54c-0.018,0.198-0.036,0.392-0.054,0.58c-0.019,0.189-0.063,0.347-0.135,0.473l-2.025,8.479
		c-0.09,0.144-0.194,0.392-0.311,0.742c-0.117,0.351-0.248,0.702-0.392,1.053c-0.144,0.352-0.302,0.662-0.473,0.932
		c-0.171,0.271-0.355,0.396-0.553,0.378l-1.944-0.188c-0.289-0.162-0.504-0.266-0.648-0.311s-0.256-0.055-0.337-0.027
		s-0.148,0.063-0.202,0.108c-0.054,0.045-0.145,0.067-0.27,0.067c-0.288,0-0.536-0.193-0.743-0.581
		c-0.207-0.387-0.392-0.827-0.554-1.322c-0.162-0.495-0.301-0.973-0.418-1.432s-0.229-0.76-0.337-0.904
		c0-0.036-0.036-0.054-0.108-0.054c-0.054,0-0.099,0.018-0.135,0.054c-0.234,0.414-0.509,0.882-0.823,1.404
		c-0.315,0.522-0.625,1.003-0.932,1.444s-0.594,0.81-0.864,1.106c-0.27,0.298-0.486,0.428-0.648,0.392
		c-0.18-0.035-0.365,0.005-0.554,0.122s-0.374,0.27-0.553,0.459c-0.18,0.188-0.356,0.404-0.527,0.647
		c-0.171,0.243-0.329,0.464-0.472,0.662h-0.243c-0.036,0-0.117,0.014-0.243,0.04c-0.126,0.027-0.261,0.054-0.405,0.081
		c-0.145,0.027-0.279,0.054-0.405,0.081s-0.207,0.041-0.243,0.041c-0.307,0-0.594-0.1-0.864-0.298s-0.531-0.369-0.783-0.513
		c-0.162-0.072-0.27-0.229-0.324-0.473s-0.09-0.517-0.108-0.823c-0.018-0.306-0.018-0.616,0-0.932
		c0.018-0.314,0.027-0.571,0.027-0.77c0-0.126,0.014-0.368,0.041-0.729s0.063-0.738,0.108-1.135
		c0.045-0.396,0.099-0.751,0.162-1.066c0.063-0.314,0.13-0.481,0.203-0.499l2.16-8.505c-0.036-0.108-0.027-0.36,0.027-0.756
		c0.054-0.396,0.153-0.828,0.297-1.296c0.072-0.198,0.148-0.382,0.229-0.554c0.081-0.171,0.166-0.328,0.256-0.472
		c0.108-0.162,0.203-0.301,0.284-0.418s0.193-0.193,0.337-0.229c0.108-0.018,0.18-0.09,0.216-0.216
		c0.036-0.125,0.067-0.252,0.094-0.378c0.027-0.125,0.049-0.225,0.067-0.297c0.018-0.072,0.063-0.054,0.135,0.054
		c0.018,0.019,0.112,0.068,0.283,0.149c0.171,0.081,0.329,0.148,0.473,0.202c0.144,0.054,0.225,0.081,0.243,0.081
		c0.108,0.054,0.238,0.086,0.392,0.095c0.152,0.009,0.301,0.013,0.445,0.013c0.162,0,0.311,0.014,0.445,0.041
		c0.135,0.027,0.248,0.086,0.338,0.176l0.702,0.729c0,0.468-0.067,0.958-0.203,1.471c-0.135,0.513-0.248,1.004-0.337,1.472
		c-0.054,0.252-0.094,0.464-0.122,0.634c-0.027,0.171-0.059,0.383-0.094,0.635c-0.18,0.468-0.342,0.873-0.486,1.215
		c-0.145,0.342-0.297,0.716-0.459,1.12c-0.162,0.405-0.315,0.779-0.459,1.121c-0.145,0.342-0.261,0.63-0.351,0.864
		c-0.09,0.233-0.135,0.36-0.135,0.378c0.018,0,0.095-0.112,0.229-0.338c0.135-0.225,0.301-0.508,0.5-0.851
		c0.198-0.342,0.414-0.711,0.648-1.106c0.234-0.396,0.45-0.761,0.648-1.094s0.369-0.612,0.513-0.837
		c0.144-0.226,0.225-0.329,0.243-0.311c0.18,0.071,0.414,0.121,0.702,0.148c0.288,0.026,0.54,0.085,0.756,0.176
		c0.198,0.071,0.454,0.131,0.77,0.175c0.314,0.046,0.544,0.086,0.688,0.122c0.288,0.198,0.49,0.432,0.607,0.702
		c0.117,0.27,0.22,0.62,0.311,1.053c0.09,0.468,0.225,0.927,0.405,1.377c0.18,0.45,0.342,0.855,0.486,1.215
		c0.126-0.198,0.239-0.473,0.338-0.823c0.099-0.352,0.189-0.702,0.27-1.053c0.081-0.352,0.166-0.676,0.256-0.973
		c0.09-0.297,0.18-0.499,0.27-0.607c0.108-0.126,0.193-0.314,0.256-0.566s0.117-0.522,0.162-0.811s0.081-0.571,0.108-0.851
		c0.027-0.279,0.058-0.508,0.095-0.688c0.125-0.54,0.247-1.057,0.364-1.552s0.234-0.922,0.351-1.283
		c0.117-0.36,0.234-0.652,0.351-0.877c0.117-0.225,0.238-0.337,0.364-0.337c0.252,0,0.459-0.049,0.621-0.148
		c0.162-0.099,0.311-0.207,0.446-0.324c0.135-0.117,0.279-0.225,0.432-0.324s0.355-0.167,0.608-0.203l1.836,0.945L-53.333,73.56z"/>
	<path fill="#D4AF8E" d="M-51.902,87.816c-0.072-0.342-0.221-0.648-0.446-0.918c-0.225-0.271-0.418-0.55-0.581-0.838
		c-0.054-0.071-0.077-0.166-0.067-0.283c0.009-0.117,0.018-0.233,0.027-0.351s0.004-0.229-0.013-0.338
		c-0.018-0.107-0.09-0.18-0.216-0.216l-0.243-1.215l-0.135-0.081v-0.378c0-0.486,0.059-0.949,0.176-1.391
		c0.117-0.441,0.184-0.913,0.202-1.418c0.144-0.035,0.225-0.162,0.243-0.378c0.018-0.216,0.045-0.396,0.081-0.54
		c0.666-1.116,1.472-2.137,2.417-3.064s1.939-1.759,2.983-2.498c0.072-0.054,0.216-0.108,0.432-0.162
		c0.216-0.054,0.445-0.112,0.688-0.176c0.243-0.063,0.459-0.125,0.648-0.189c0.189-0.063,0.292-0.121,0.311-0.175h2.538
		c0.09,0.144,0.225,0.252,0.405,0.324c0.18,0.072,0.369,0.126,0.567,0.162c0.198,0.037,0.391,0.077,0.58,0.122
		c0.189,0.045,0.355,0.122,0.5,0.229c0.594,0.45,1.192,0.972,1.796,1.566c0.603,0.594,1.174,1.207,1.714,1.836
		c0.054,0.09,0.099,0.135,0.135,0.135c0.468,0.342,0.824,0.738,1.066,1.188c0.243,0.45,0.463,0.919,0.662,1.404
		c0.018,0.054,0.036,0.091,0.054,0.108c0.054,0.468,0.148,0.913,0.283,1.336c0.135,0.424,0.203,0.869,0.203,1.337
		c0,1.17-0.292,2.291-0.877,3.361c-0.585,1.071-1.354,2.003-2.309,2.795c-0.018,0-0.18,0.099-0.486,0.297
		c-0.306,0.198-0.653,0.423-1.04,0.675c-0.387,0.252-0.774,0.49-1.161,0.716c-0.387,0.225-0.68,0.364-0.877,0.418
		c-0.468,0.198-0.909,0.369-1.323,0.514c-0.415,0.144-0.945,0.216-1.593,0.216s-1.319-0.131-2.011-0.392
		c-0.693-0.261-1.368-0.594-2.025-0.999s-1.273-0.851-1.849-1.337C-51.021,88.734-51.506,88.267-51.902,87.816z M-49.31,83.334
		c0.018,0.036,0.063,0.095,0.135,0.176c0.071,0.081,0.117,0.131,0.135,0.148c0.036,0.126,0.108,0.274,0.216,0.445
		c0.108,0.171,0.171,0.274,0.189,0.311v0.188v0.324v0.352v0.188c0.036,0.234,0.117,0.414,0.243,0.54s0.274,0.234,0.446,0.324
		c0.17,0.09,0.346,0.171,0.526,0.243c0.18,0.072,0.333,0.171,0.459,0.297c0.072,0.09,0.18,0.157,0.324,0.202
		s0.301,0.091,0.473,0.135c0.171,0.046,0.342,0.081,0.513,0.108c0.171,0.027,0.319,0.067,0.445,0.121c0.018,0,0.063,0,0.135,0
		c0.071,0,0.152,0.005,0.243,0.014c0.09,0.01,0.18,0.014,0.27,0.014c0.09,0,0.162,0,0.216,0c0.198,0,0.526-0.049,0.985-0.148
		c0.459-0.099,0.927-0.233,1.404-0.405c0.477-0.171,0.905-0.364,1.283-0.58s0.594-0.441,0.648-0.675
		c0-0.036,0.004-0.117,0.014-0.243c0.009-0.126,0.018-0.266,0.027-0.419c0.009-0.152,0.018-0.297,0.027-0.432
		c0.009-0.135,0.014-0.229,0.014-0.283c0.18-0.09,0.274-0.229,0.283-0.419c0.009-0.188,0.095-0.319,0.257-0.392
		c0.108-0.342,0.171-0.621,0.189-0.837c0.018-0.216,0.027-0.459,0.027-0.729v-0.676c-0.252-0.359-0.463-0.688-0.634-0.985
		c-0.171-0.297-0.351-0.566-0.54-0.81s-0.41-0.468-0.662-0.676c-0.252-0.206-0.576-0.4-0.972-0.58
		c-0.108-0.054-0.175-0.099-0.202-0.135c-0.027-0.036-0.045-0.076-0.054-0.122c-0.009-0.044-0.018-0.09-0.027-0.135
		c-0.009-0.045-0.041-0.112-0.095-0.203c-0.054-0.072-0.14-0.122-0.256-0.148c-0.117-0.027-0.243-0.054-0.378-0.081
		c-0.135-0.027-0.261-0.063-0.378-0.108c-0.118-0.045-0.212-0.112-0.284-0.203h-2.025c-0.037,0.145-0.113,0.234-0.229,0.27
		c-0.117,0.036-0.203,0.126-0.257,0.27c-0.036,0.036-0.09,0.135-0.162,0.297c-0.072,0.162-0.126,0.261-0.162,0.297
		c-0.234-0.054-0.518,0.063-0.851,0.351c-0.333,0.288-0.657,0.631-0.972,1.026c-0.315,0.396-0.585,0.788-0.81,1.175
		c-0.226,0.388-0.338,0.652-0.338,0.797c0,0.252,0.045,0.477,0.135,0.675c0.09,0.198,0.135,0.396,0.135,0.594v0.324
		C-49.274,83.244-49.31,83.316-49.31,83.334z M-40.562,74.046c0.036,0,0.054,0.045,0.054,0.135c0,0.072-0.019,0.108-0.054,0.108
		c-0.09,0-0.135-0.036-0.135-0.108C-40.697,74.091-40.652,74.046-40.562,74.046z"/>
	<path fill="#D4AF8E" d="M-33.461,87.816c-0.072-0.342-0.221-0.648-0.446-0.918c-0.225-0.271-0.418-0.55-0.581-0.838
		c-0.054-0.071-0.077-0.166-0.067-0.283c0.009-0.117,0.018-0.233,0.027-0.351s0.004-0.229-0.013-0.338
		c-0.018-0.107-0.09-0.18-0.216-0.216L-35,83.658l-0.135-0.081v-0.378c0-0.486,0.059-0.949,0.176-1.391
		c0.117-0.441,0.184-0.913,0.202-1.418c0.144-0.035,0.225-0.162,0.243-0.378c0.018-0.216,0.045-0.396,0.081-0.54
		c0.666-1.116,1.472-2.137,2.417-3.064s1.939-1.759,2.983-2.498c0.072-0.054,0.216-0.108,0.432-0.162
		c0.216-0.054,0.445-0.112,0.688-0.176c0.243-0.063,0.459-0.125,0.648-0.189c0.189-0.063,0.292-0.121,0.311-0.175h2.538
		c0.09,0.144,0.225,0.252,0.405,0.324c0.18,0.072,0.369,0.126,0.567,0.162c0.198,0.037,0.391,0.077,0.58,0.122
		c0.189,0.045,0.355,0.122,0.5,0.229c0.594,0.45,1.192,0.972,1.796,1.566c0.603,0.594,1.174,1.207,1.714,1.836
		c0.054,0.09,0.099,0.135,0.135,0.135c0.468,0.342,0.824,0.738,1.066,1.188c0.243,0.45,0.463,0.919,0.662,1.404
		c0.018,0.054,0.036,0.091,0.054,0.108c0.054,0.468,0.148,0.913,0.283,1.336c0.135,0.424,0.203,0.869,0.203,1.337
		c0,1.17-0.292,2.291-0.877,3.361c-0.585,1.071-1.354,2.003-2.309,2.795c-0.018,0-0.18,0.099-0.486,0.297
		c-0.306,0.198-0.653,0.423-1.04,0.675c-0.387,0.252-0.774,0.49-1.161,0.716c-0.387,0.225-0.68,0.364-0.877,0.418
		c-0.468,0.198-0.909,0.369-1.323,0.514c-0.415,0.144-0.945,0.216-1.593,0.216s-1.319-0.131-2.011-0.392
		c-0.693-0.261-1.368-0.594-2.025-0.999s-1.273-0.851-1.849-1.337C-32.58,88.734-33.065,88.267-33.461,87.816z M-30.869,83.334
		c0.018,0.036,0.063,0.095,0.135,0.176c0.071,0.081,0.117,0.131,0.135,0.148c0.036,0.126,0.108,0.274,0.216,0.445
		c0.108,0.171,0.171,0.274,0.189,0.311v0.188v0.324v0.352v0.188c0.036,0.234,0.117,0.414,0.243,0.54s0.274,0.234,0.446,0.324
		c0.17,0.09,0.346,0.171,0.526,0.243c0.18,0.072,0.333,0.171,0.459,0.297c0.072,0.09,0.18,0.157,0.324,0.202
		s0.301,0.091,0.473,0.135c0.171,0.046,0.342,0.081,0.513,0.108c0.171,0.027,0.319,0.067,0.445,0.121c0.018,0,0.063,0,0.135,0
		c0.071,0,0.152,0.005,0.243,0.014c0.09,0.01,0.18,0.014,0.27,0.014c0.09,0,0.162,0,0.216,0c0.198,0,0.526-0.049,0.985-0.148
		c0.459-0.099,0.927-0.233,1.404-0.405c0.477-0.171,0.905-0.364,1.283-0.58s0.594-0.441,0.648-0.675
		c0-0.036,0.004-0.117,0.014-0.243c0.009-0.126,0.018-0.266,0.027-0.419c0.009-0.152,0.018-0.297,0.027-0.432
		c0.009-0.135,0.014-0.229,0.014-0.283c0.18-0.09,0.274-0.229,0.283-0.419c0.009-0.188,0.095-0.319,0.257-0.392
		c0.108-0.342,0.171-0.621,0.189-0.837c0.018-0.216,0.027-0.459,0.027-0.729v-0.676c-0.252-0.359-0.463-0.688-0.634-0.985
		c-0.171-0.297-0.351-0.566-0.54-0.81s-0.41-0.468-0.662-0.676c-0.252-0.206-0.576-0.4-0.972-0.58
		c-0.108-0.054-0.175-0.099-0.202-0.135c-0.027-0.036-0.045-0.076-0.054-0.122c-0.009-0.044-0.018-0.09-0.027-0.135
		c-0.009-0.045-0.041-0.112-0.095-0.203c-0.054-0.072-0.14-0.122-0.256-0.148c-0.117-0.027-0.243-0.054-0.378-0.081
		c-0.135-0.027-0.261-0.063-0.378-0.108c-0.118-0.045-0.212-0.112-0.284-0.203h-2.025c-0.037,0.145-0.113,0.234-0.229,0.27
		c-0.117,0.036-0.203,0.126-0.257,0.27c-0.036,0.036-0.09,0.135-0.162,0.297c-0.072,0.162-0.126,0.261-0.162,0.297
		c-0.234-0.054-0.518,0.063-0.851,0.351c-0.333,0.288-0.657,0.631-0.972,1.026c-0.315,0.396-0.585,0.788-0.81,1.175
		c-0.226,0.388-0.338,0.652-0.338,0.797c0,0.252,0.045,0.477,0.135,0.675c0.09,0.198,0.135,0.396,0.135,0.594v0.324
		C-30.833,83.244-30.869,83.316-30.869,83.334z M-22.121,74.046c0.036,0,0.054,0.045,0.054,0.135c0,0.072-0.019,0.108-0.054,0.108
		c-0.09,0-0.135-0.036-0.135-0.108C-22.256,74.091-22.211,74.046-22.121,74.046z"/>
	<path fill="#D4AF8E" d="M-17.126,87.06c0.126-0.432,0.301-1.053,0.526-1.862c0.225-0.811,0.468-1.67,0.729-2.579
		c0.261-0.908,0.513-1.791,0.756-2.646s0.437-1.544,0.581-2.066c0.054-0.251,0.108-0.44,0.162-0.567
		c0.054-0.125,0.09-0.233,0.108-0.324c0.018-0.054,0.049-0.13,0.095-0.229c0.044-0.099,0.094-0.229,0.148-0.392l0.324-1.026
		c0.144-0.342,0.27-0.67,0.378-0.986c0.108-0.314,0.189-0.517,0.243-0.607c0-0.072,0.018-0.153,0.054-0.243
		c0.036-0.09,0.071-0.171,0.108-0.243c0.036-0.072,0.058-0.139,0.067-0.203c0.009-0.063-0.014-0.104-0.067-0.122
		c-0.145-0.054-0.306-0.103-0.486-0.148c-0.18-0.044-0.355-0.099-0.526-0.162c-0.171-0.063-0.315-0.135-0.432-0.216
		s-0.175-0.166-0.175-0.256c0-0.108-0.009-0.252-0.027-0.432c-0.018-0.18-0.023-0.351-0.014-0.513
		c0.009-0.162,0.045-0.301,0.108-0.418c0.063-0.117,0.176-0.166,0.337-0.148c0.954,0.054,1.728,0.126,2.322,0.216
		c0.594,0.09,1.152,0.252,1.674,0.486c0.144,0.108,0.311,0.198,0.5,0.27c0.189,0.072,0.355,0.18,0.5,0.324
		c0.198,0.18,0.4,0.347,0.607,0.5C-8.32,72.62-8.145,72.741-8,72.831c0.108,0.09,0.184,0.162,0.229,0.216
		c0.044,0.054,0.081,0.108,0.108,0.162s0.063,0.117,0.108,0.189c0.045,0.072,0.122,0.153,0.229,0.243
		c0.198,0.18,0.445,0.333,0.743,0.459c0.297,0.126,0.526,0.297,0.688,0.513c0.756,0.99,1.327,2.062,1.714,3.213
		c0.387,1.151,0.589,2.322,0.607,3.51c0,0.432-0.059,0.864-0.175,1.296c-0.117,0.433-0.261,0.851-0.432,1.256
		c-0.171,0.404-0.36,0.796-0.567,1.174c-0.207,0.379-0.401,0.738-0.581,1.08c-0.288,0.486-0.666,0.914-1.134,1.283
		c-0.469,0.369-0.977,0.697-1.526,0.985c-0.549,0.288-1.103,0.545-1.66,0.77c-0.558,0.225-1.063,0.428-1.512,0.607
		c-0.09,0.036-0.239,0.095-0.445,0.176c-0.208,0.081-0.329,0.121-0.365,0.121l-4.455,0.189l-0.783-0.514
		c0.054-0.359,0.094-0.652,0.122-0.877c0.027-0.226,0.049-0.446,0.067-0.662s0.027-0.351,0.027-0.404L-17.126,87.06z M-13.13,86.25
		c0.27-0.018,0.639-0.085,1.107-0.202c0.468-0.117,0.931-0.266,1.39-0.446c0.459-0.18,0.868-0.382,1.229-0.607
		c0.36-0.225,0.585-0.463,0.675-0.715l1.35-4.671l-1.917-3.268c-0.036-0.018-0.121-0.049-0.256-0.094
		c-0.135-0.045-0.229-0.085-0.283-0.122c-0.072-0.018-0.126-0.027-0.162-0.027c-0.018,0-0.054,0.009-0.108,0.027
		c-0.019,0.018-0.05,0.09-0.095,0.216c-0.045,0.126-0.085,0.234-0.122,0.324c-0.252,0.738-0.481,1.462-0.688,2.173
		c-0.207,0.712-0.418,1.428-0.634,2.147c-0.216,0.72-0.446,1.449-0.688,2.187c-0.243,0.738-0.518,1.494-0.824,2.269L-13.13,86.25z"
		/>
	<path fill="#D4AF8E" d="M6.31,91.353c-0.522-0.144-1.049-0.323-1.58-0.54c-0.531-0.216-1.031-0.463-1.499-0.742
		c-0.468-0.278-0.869-0.603-1.202-0.972s-0.553-0.77-0.662-1.201c-0.072-0.252-0.175-0.49-0.311-0.716
		c-0.135-0.225-0.229-0.464-0.283-0.716l0.027-0.081c0.018-0.126,0.216-0.252,0.594-0.378s0.796-0.233,1.255-0.324
		c0.459-0.09,0.909-0.157,1.35-0.202c0.441-0.045,0.742-0.05,0.904-0.014c0.378,0.072,0.639,0.243,0.783,0.513
		c0.144,0.271,0.265,0.559,0.364,0.864c0.099,0.307,0.229,0.594,0.392,0.864c0.162,0.27,0.45,0.45,0.864,0.54
		c0.216,0.036,0.499,0.072,0.85,0.108s0.625,0.054,0.824,0.054c0.125-0.126,0.27-0.185,0.432-0.176
		c0.162,0.01,0.314,0.014,0.459,0.014c0.162,0,0.306-0.054,0.432-0.162s0.234-0.351,0.324-0.729l0.027-0.108
		c0-0.036-0.004-0.117-0.013-0.243c-0.009-0.126-0.041-0.207-0.095-0.243c-0.468-0.396-0.873-0.813-1.215-1.255
		c-0.342-0.441-0.667-0.892-0.972-1.351c-0.306-0.459-0.612-0.922-0.918-1.391c-0.306-0.468-0.639-0.936-0.999-1.403
		c-0.198,0-0.351-0.041-0.459-0.122s-0.198-0.18-0.27-0.297c-0.072-0.117-0.14-0.238-0.203-0.364s-0.131-0.243-0.202-0.352
		c-0.037-0.018-0.086-0.08-0.149-0.188s-0.13-0.225-0.202-0.351c-0.072-0.126-0.145-0.252-0.216-0.379
		c-0.072-0.125-0.135-0.216-0.189-0.27c-0.882-0.846-1.413-1.701-1.593-2.565c-0.18-0.864-0.171-1.782,0.027-2.754
		c0.054-0.234,0.144-0.49,0.27-0.77c0.126-0.279,0.274-0.544,0.446-0.797c0.17-0.251,0.364-0.486,0.58-0.702
		c0.216-0.216,0.45-0.378,0.702-0.486c0.396-0.18,0.851-0.328,1.364-0.445c0.513-0.117,1.043-0.203,1.593-0.256
		c0.549-0.054,1.093-0.072,1.633-0.054c0.54,0.018,1.035,0.072,1.485,0.162c0.233,0.036,0.49,0.117,0.77,0.243
		c0.279,0.126,0.558,0.261,0.837,0.405c0.279,0.144,0.562,0.288,0.851,0.432c0.288,0.144,0.558,0.252,0.81,0.324
		c0.018,0.09,0.153,0.198,0.405,0.324c0.252,0.126,0.531,0.279,0.837,0.459c0.306,0.18,0.603,0.378,0.891,0.594
		c0.288,0.216,0.486,0.459,0.594,0.729c0.108,0.288,0.266,0.608,0.473,0.958c0.207,0.351,0.292,0.68,0.256,0.986
		c-0.054,0.162-0.261,0.297-0.621,0.405c-0.36,0.108-0.761,0.189-1.202,0.243c-0.441,0.054-0.874,0.085-1.296,0.094
		c-0.423,0.009-0.716-0.004-0.877-0.041c-0.09-0.036-0.226-0.071-0.405-0.108c-0.18-0.036-0.297-0.108-0.351-0.216l-0.864-1.755
		c-0.072-0.126-0.229-0.216-0.473-0.27c-0.243-0.054-0.41-0.09-0.5-0.108c-0.324-0.071-0.652-0.135-0.985-0.189
		c-0.333-0.054-0.648-0.063-0.945-0.027c-0.297,0.036-0.553,0.131-0.769,0.284c-0.216,0.153-0.36,0.4-0.432,0.742
		c-0.036,0.162-0.059,0.279-0.067,0.351c-0.009,0.072,0.004,0.14,0.041,0.203c0.036,0.063,0.094,0.131,0.175,0.203
		s0.203,0.189,0.364,0.351c0.378,0.415,0.698,0.801,0.958,1.161c0.261,0.36,0.509,0.716,0.743,1.066
		c0.234,0.352,0.473,0.702,0.715,1.054c0.243,0.351,0.527,0.725,0.851,1.12c0.162,0.234,0.301,0.486,0.418,0.757
		c0.117,0.27,0.301,0.53,0.554,0.782c0.144,0.145,0.314,0.32,0.513,0.526c0.198,0.208,0.4,0.428,0.607,0.662
		c0.207,0.234,0.4,0.459,0.581,0.675c0.18,0.216,0.324,0.414,0.432,0.594c0.144,0.253,0.252,0.509,0.324,0.77
		c0.072,0.262,0.225,0.482,0.459,0.662c-0.072,0.504-0.108,1.008-0.108,1.512s-0.045,0.99-0.135,1.458
		c-0.144,0.702-0.423,1.265-0.837,1.688s-0.914,0.747-1.499,0.972c-0.585,0.226-1.242,0.374-1.971,0.445
		c-0.729,0.072-1.48,0.108-2.254,0.108c-0.018,0-0.085-0.004-0.202-0.014c-0.118-0.009-0.248-0.018-0.392-0.026
		c-0.145-0.01-0.293-0.019-0.446-0.027s-0.266-0.022-0.337-0.041L7.2,91.812c-0.036-0.018-0.108,0.01-0.216,0.081
		c-0.108,0.072-0.171,0.108-0.189,0.108c-0.145,0-0.248-0.071-0.311-0.216C6.421,91.642,6.363,91.497,6.31,91.353z"/>
	<path fill="#D4AF8E" d="M16.677,90.894c0-0.018,0.027-0.076,0.081-0.175c0.054-0.099,0.108-0.203,0.162-0.311
		c0.054-0.108,0.108-0.212,0.162-0.311c0.054-0.099,0.081-0.157,0.081-0.176c0.144-0.468,0.233-0.989,0.27-1.565
		c0.036-0.576,0.027-1.099-0.027-1.566c0.486-1.979,0.945-3.938,1.377-5.873c0.432-1.935,0.81-3.91,1.134-5.926
		c0.036-0.162,0.063-0.324,0.081-0.486c0.018-0.162,0.036-0.314,0.054-0.459c0.018-0.09,0-0.175-0.054-0.256
		c-0.054-0.081-0.104-0.157-0.148-0.229c-0.045-0.072-0.081-0.139-0.108-0.203c-0.027-0.063-0.005-0.122,0.067-0.175
		c0.27-0.18,0.643-0.306,1.121-0.378c0.477-0.072,0.962-0.112,1.458-0.122c0.495-0.009,0.962,0,1.404,0.027
		c0.441,0.027,0.751,0.041,0.932,0.041c0,0.144,0.018,0.256,0.054,0.337s0.063,0.162,0.081,0.243
		c0.018,0.081,0.004,0.193-0.041,0.337c-0.045,0.145-0.148,0.36-0.311,0.648c-0.342,0.576-0.617,1.215-0.823,1.917
		c-0.208,0.702-0.365,1.414-0.473,2.133c-0.144,0.863-0.274,1.719-0.392,2.564c-0.117,0.847-0.248,1.684-0.392,2.512
		s-0.333,1.656-0.567,2.483c-0.234,0.828-0.549,1.647-0.945,2.457c0.072,0.216,0.252,0.338,0.54,0.364
		c0.288,0.027,0.616,0.01,0.985-0.054c0.369-0.063,0.751-0.135,1.147-0.216s0.747-0.121,1.053-0.121
		c0.108,0.036,0.238,0.117,0.392,0.242c0.152,0.127,0.306,0.275,0.459,0.446c0.152,0.171,0.288,0.337,0.405,0.499
		c0.117,0.162,0.185,0.288,0.203,0.378c0.018,0.091,0.063,0.193,0.135,0.311c0.072,0.117,0.148,0.239,0.229,0.364
		c0.081,0.126,0.144,0.248,0.189,0.365s0.049,0.202,0.014,0.256c-0.09,0.108-0.279,0.203-0.567,0.284
		c-0.288,0.08-0.604,0.144-0.945,0.188s-0.675,0.081-0.999,0.108c-0.324,0.026-0.558,0.05-0.702,0.067
		c-0.216,0.036-0.549,0.076-0.999,0.121c-0.45,0.045-0.918,0.09-1.404,0.135c-0.486,0.045-0.936,0.086-1.35,0.122
		c-0.415,0.036-0.693,0.063-0.837,0.081c-0.036,0-0.14,0.004-0.311,0.014c-0.171,0.009-0.301,0.013-0.391,0.013
		c-0.162,0-0.338-0.04-0.527-0.121s-0.36-0.189-0.513-0.324c-0.153-0.135-0.275-0.287-0.365-0.459
		C16.668,91.276,16.642,91.092,16.677,90.894z"/>
	<path fill="#D4AF8E" d="M31.406,87.168c-0.243,0.036-0.445,0.108-0.607,0.216c-0.324,0.216-0.576,0.526-0.756,0.932
		c-0.18,0.405-0.342,0.788-0.486,1.147c-0.145,0.36-0.302,0.644-0.473,0.851c-0.171,0.207-0.401,0.229-0.688,0.067
		c-0.09-0.054-0.221-0.04-0.392,0.041c-0.171,0.081-0.302,0.076-0.392-0.014c-0.198-0.198-0.373-0.36-0.526-0.486
		c-0.153-0.126-0.229-0.297-0.229-0.513c0-0.018,0.023-0.076,0.067-0.176c0.045-0.099,0.099-0.202,0.162-0.311
		c0.063-0.107,0.117-0.207,0.162-0.297s0.067-0.144,0.067-0.162c0-0.054-0.009-0.126-0.027-0.216s-0.041-0.18-0.068-0.271
		c-0.027-0.09-0.054-0.18-0.081-0.27c-0.027-0.09-0.041-0.152-0.041-0.189l2.835-5.211c-0.037-0.18-0.086-0.337-0.148-0.472
		c-0.063-0.136-0.077-0.274-0.041-0.419c0.054-0.233,0.157-0.481,0.311-0.742c0.152-0.261,0.283-0.5,0.391-0.716
		c0.108-0.198,0.297-0.594,0.567-1.188c0.27-0.594,0.558-1.232,0.864-1.917c0.306-0.684,0.598-1.332,0.877-1.944
		c0.279-0.612,0.481-1.026,0.607-1.242c0.198-0.36,0.459-0.648,0.783-0.864c0.324-0.216,0.693-0.324,1.107-0.324
		c0.108,0.09,0.166,0.171,0.175,0.243s0.018,0.135,0.027,0.189c0.009,0.054,0.044,0.108,0.108,0.162
		c0.063,0.054,0.203,0.09,0.418,0.108c0.324,0.324,0.581,0.698,0.77,1.12c0.189,0.423,0.346,0.86,0.473,1.31
		c0.125,0.45,0.216,0.9,0.27,1.35c0.054,0.45,0.108,0.864,0.162,1.242c0.018,0.144,0.018,0.323,0,0.54
		c-0.018,0.216-0.027,0.342-0.027,0.378l-1.998,7.722c0.018,0.271,0.018,0.594,0,0.973c-0.018,0.378-0.05,0.747-0.094,1.106
		c-0.045,0.36-0.095,0.685-0.148,0.972c-0.054,0.289-0.108,0.486-0.162,0.595c-0.18,0.27-0.302,0.531-0.365,0.783
		s-0.175,0.495-0.337,0.729h-0.621h-0.432c-0.252,0-0.522-0.031-0.81-0.095c-0.289-0.063-0.432-0.185-0.432-0.364
		c-0.054-0.576-0.05-1.134,0.014-1.674c0.063-0.54,0.094-1.089,0.094-1.647c0-0.396-0.036-0.765-0.108-1.106
		C31.923,87.114,31.649,87.132,31.406,87.168z M33.255,80.904c-0.126,0.18-0.279,0.441-0.459,0.782
		c-0.18,0.343-0.324,0.631-0.432,0.864c-0.108,0.234-0.171,0.369-0.189,0.405l-0.216,1.08c0.198,0,0.369,0.026,0.513,0.081
		c0.144,0.054,0.27-0.009,0.378-0.189c0.125-0.197,0.233-0.454,0.324-0.77c0.09-0.314,0.158-0.63,0.203-0.944
		c0.045-0.315,0.076-0.607,0.094-0.878c0.018-0.27,0.027-0.459,0.027-0.567v-0.107C33.372,80.697,33.292,80.778,33.255,80.904z"/>
	<path fill="#D4AF8E" d="M40.815,91.326c-0.468-0.108-0.918-0.247-1.35-0.419c-0.432-0.171-0.829-0.378-1.188-0.621
		c-0.36-0.242-0.671-0.517-0.932-0.823c-0.261-0.306-0.446-0.647-0.554-1.026c-0.072-0.197-0.175-0.404-0.311-0.62
		c-0.135-0.217-0.229-0.423-0.283-0.621v-0.055c0.018-0.107,0.185-0.211,0.5-0.311c0.314-0.099,0.67-0.188,1.066-0.27
		c0.396-0.081,0.773-0.162,1.134-0.243c0.36-0.081,0.603-0.176,0.729-0.283c0.162-0.126,0.306-0.081,0.432,0.135
		s0.274,0.49,0.445,0.823c0.171,0.334,0.378,0.657,0.621,0.973c0.243,0.314,0.554,0.509,0.932,0.58
		c0.18,0.036,0.423,0.059,0.729,0.067c0.306,0.01,0.549,0.014,0.729,0.014c0.108-0.108,0.234-0.162,0.378-0.162
		c0.162,0,0.311-0.004,0.445-0.014c0.135-0.009,0.261-0.063,0.378-0.162c0.117-0.099,0.202-0.311,0.256-0.634v-0.081
		c0-0.018-0.005-0.081-0.014-0.189c-0.009-0.107-0.022-0.22-0.041-0.337s-0.031-0.226-0.041-0.324s-0.022-0.148-0.041-0.148
		c-0.432-0.342-0.814-0.652-1.147-0.932s-0.648-0.558-0.945-0.837s-0.594-0.571-0.891-0.878c-0.297-0.306-0.617-0.656-0.958-1.053
		c-0.162,0-0.292-0.045-0.392-0.135s-0.175-0.198-0.229-0.324c-0.054-0.126-0.108-0.257-0.162-0.392
		c-0.054-0.135-0.118-0.247-0.189-0.338c-0.019-0.035-0.059-0.099-0.122-0.188c-0.063-0.09-0.131-0.189-0.203-0.297
		c-0.072-0.108-0.14-0.212-0.203-0.311s-0.112-0.176-0.148-0.229c-0.414-0.342-0.725-0.688-0.932-1.04
		c-0.207-0.351-0.342-0.706-0.405-1.066c-0.063-0.359-0.081-0.733-0.054-1.12c0.027-0.387,0.077-0.796,0.149-1.229
		c0.036-0.198,0.099-0.437,0.189-0.716c0.09-0.279,0.207-0.553,0.351-0.823s0.311-0.517,0.5-0.743c0.189-0.225,0.4-0.391,0.635-0.5
		c0.684-0.306,1.485-0.5,2.403-0.581c0.918-0.081,1.773-0.058,2.565,0.068c0.216,0.036,0.446,0.104,0.688,0.202
		c0.243,0.099,0.495,0.203,0.756,0.311c0.261,0.108,0.517,0.216,0.77,0.324c0.251,0.108,0.495,0.189,0.729,0.243
		c0.018,0.09,0.139,0.185,0.364,0.283c0.225,0.099,0.477,0.226,0.756,0.378c0.279,0.153,0.554,0.324,0.824,0.513
		s0.459,0.401,0.567,0.634c0.054,0.108,0.122,0.234,0.203,0.378s0.162,0.288,0.243,0.432c0.081,0.145,0.144,0.288,0.189,0.432
		c0.044,0.145,0.058,0.279,0.041,0.405c-0.037,0.145-0.208,0.261-0.513,0.351c-0.306,0.09-0.657,0.167-1.053,0.229
		c-0.396,0.063-0.779,0.104-1.147,0.121c-0.369,0.019-0.625,0.019-0.77,0c-0.09-0.018-0.211-0.04-0.364-0.067
		c-0.153-0.026-0.256-0.085-0.311-0.175l-0.837-1.485c-0.072-0.09-0.212-0.153-0.418-0.189c-0.208-0.036-0.356-0.063-0.446-0.081
		c-0.288-0.054-0.585-0.099-0.891-0.135c-0.307-0.036-0.59-0.036-0.851,0c-0.261,0.036-0.482,0.126-0.662,0.27
		c-0.18,0.144-0.297,0.36-0.351,0.648c-0.018,0.126-0.054,0.261-0.108,0.405c-0.054,0.145-0.09,0.288-0.108,0.432
		c-0.018,0.144-0.014,0.288,0.013,0.432c0.027,0.144,0.112,0.279,0.257,0.404c0.36,0.343,0.684,0.645,0.972,0.905
		s0.563,0.513,0.824,0.756c0.261,0.243,0.522,0.49,0.783,0.742c0.261,0.253,0.544,0.54,0.851,0.864
		c0.162,0.198,0.315,0.364,0.459,0.499c0.144,0.136,0.324,0.293,0.54,0.473c0.144,0.126,0.311,0.279,0.5,0.459
		c0.189,0.181,0.378,0.365,0.567,0.554c0.189,0.189,0.369,0.378,0.54,0.567c0.171,0.188,0.311,0.355,0.418,0.499
		c0.108,0.198,0.225,0.424,0.351,0.675c0.126,0.253,0.288,0.45,0.486,0.595c-0.037,0.432-0.081,0.94-0.135,1.525
		c-0.054,0.585-0.117,1.084-0.189,1.498c-0.108,0.631-0.329,1.112-0.662,1.444c-0.333,0.334-0.747,0.577-1.242,0.729
		c-0.496,0.153-1.058,0.243-1.688,0.27c-0.63,0.027-1.287,0.05-1.971,0.068c-0.018,0-0.081,0-0.189,0c-0.09,0-0.207,0-0.351,0
		c-0.126,0-0.252,0-0.378,0s-0.225-0.01-0.297-0.027l-0.324-0.054c-0.036,0-0.099,0.026-0.189,0.081
		c-0.09,0.054-0.144,0.08-0.162,0.08c-0.144,0.019-0.243-0.031-0.297-0.148c-0.054-0.116-0.099-0.247-0.135-0.391L40.815,91.326z"/>
	<path fill="#D4AF8E" d="M56.448,90.921c0.054-0.252,0.126-0.567,0.216-0.945c0.09-0.378,0.117-0.711,0.081-0.999l0.162-1.728
		c0.036-0.414,0.099-0.738,0.189-0.972c0.09-0.234,0.135-0.522,0.135-0.864c-0.145,0-0.256-0.027-0.337-0.081
		s-0.176-0.063-0.284-0.027c-0.288,0.091-0.522,0.271-0.702,0.54c-0.18,0.271-0.297,0.531-0.351,0.783
		c-0.162,0.559-0.324,1.094-0.486,1.606s-0.306,1.111-0.432,1.796c-0.054,0.252-0.13,0.423-0.229,0.513s-0.211,0.14-0.337,0.148
		c-0.126,0.01-0.261,0.014-0.405,0.014c-0.126,0-0.252,0.036-0.378,0.107c-0.145,0.072-0.257,0.153-0.338,0.243
		c-0.081,0.091-0.162,0.176-0.243,0.257s-0.176,0.153-0.284,0.216c-0.108,0.063-0.252,0.095-0.432,0.095
		c-0.63,0-1.053-0.076-1.269-0.229C50.508,91.241,50.4,90.876,50.4,90.3v-0.81c0.09-0.414,0.216-0.994,0.378-1.742
		c0.162-0.746,0.333-1.525,0.513-2.335c0.18-0.811,0.355-1.58,0.526-2.309c0.171-0.729,0.311-1.3,0.418-1.715
		c0.072-0.287,0.185-0.737,0.337-1.35c0.153-0.611,0.315-1.242,0.486-1.891c0.171-0.647,0.351-1.246,0.54-1.795
		c0.189-0.549,0.364-0.904,0.526-1.066l1.809-0.378c0.036,0,0.144-0.031,0.324-0.095c0.18-0.063,0.351-0.099,0.513-0.108
		c0.162-0.009,0.288,0.032,0.378,0.122c0.09,0.09,0.072,0.288-0.054,0.594c0.036,0.216,0.104,0.333,0.203,0.351
		c0.099,0.018,0.203,0.023,0.311,0.014c0.108-0.009,0.203,0.004,0.284,0.041s0.121,0.18,0.121,0.432
		c0,0.216-0.022,0.446-0.067,0.688c-0.045,0.243-0.09,0.482-0.135,0.716c-0.045,0.234-0.086,0.463-0.122,0.688
		c-0.036,0.225-0.054,0.428-0.054,0.607c0.018,0.307-0.031,0.675-0.148,1.107c-0.117,0.432-0.229,0.837-0.337,1.215
		s-0.18,0.684-0.216,0.918c-0.037,0.234,0.044,0.297,0.243,0.188c0.054,0,0.139,0.01,0.257,0.027
		c0.117,0.019,0.233,0.022,0.351,0.014s0.229-0.041,0.338-0.095c0.108-0.054,0.18-0.144,0.216-0.27l2.349-9.531l1.566-0.513
		c0.054-0.018,0.108,0.014,0.162,0.094c0.054,0.081,0.108,0.176,0.162,0.284c0.054,0.108,0.104,0.207,0.149,0.297
		c0.044,0.09,0.094,0.126,0.148,0.108c0.09-0.018,0.171-0.031,0.243-0.041s0.135-0.014,0.189-0.014c0.198,0,0.338,0.104,0.419,0.311
		c0.081,0.207,0.076,0.59-0.014,1.147c-0.036,0.216-0.027,0.383,0.027,0.5c0.054,0.117,0.122,0.216,0.203,0.297
		s0.157,0.167,0.229,0.256c0.072,0.09,0.108,0.208,0.108,0.351c0,0.234-0.027,0.486-0.081,0.756
		c-0.054,0.27-0.117,0.544-0.189,0.823c-0.072,0.279-0.148,0.554-0.229,0.823c-0.081,0.271-0.148,0.522-0.203,0.756l-0.324,1.432
		c-0.378,1.548-0.707,2.844-0.985,3.888c-0.279,1.044-0.518,1.953-0.716,2.728c-0.198,0.773-0.364,1.453-0.5,2.038
		c-0.135,0.585-0.256,1.184-0.364,1.796l0.135,1.025c0.018,0.091-0.004,0.167-0.067,0.229c-0.063,0.063-0.135,0.117-0.216,0.162
		s-0.158,0.081-0.229,0.108c-0.072,0.026-0.108,0.049-0.108,0.067c-0.126,0.306-0.256,0.517-0.391,0.635
		c-0.135,0.116-0.248,0.175-0.338,0.175H59.31c-0.018-0.018-0.037-0.076-0.054-0.175c-0.018-0.1-0.032-0.203-0.041-0.311
		c-0.009-0.108-0.023-0.208-0.041-0.298c-0.018-0.09-0.036-0.144-0.054-0.161c-0.108-0.037-0.216-0.072-0.324-0.108
		s-0.207-0.036-0.297,0c-0.18,0.071-0.315,0.121-0.405,0.148c-0.09,0.027-0.243-0.031-0.459-0.176
		c-0.09-0.071-0.198-0.116-0.324-0.135c-0.126-0.018-0.252-0.054-0.378-0.107c-0.126-0.055-0.234-0.14-0.324-0.257
		C56.52,91.357,56.466,91.173,56.448,90.921z"/>
	<path fill="#D4AF8E" d="M63.117,90.354l0.027-0.08c0.145-0.055,0.266-0.126,0.365-0.217c0.099-0.09,0.148-0.152,0.148-0.188
		l-0.162-0.514c0.054-0.233,0.13-0.598,0.229-1.093c0.099-0.495,0.216-1.054,0.351-1.674c0.135-0.621,0.274-1.27,0.418-1.944
		s0.284-1.318,0.418-1.931c0.135-0.611,0.261-1.161,0.378-1.646c0.117-0.486,0.211-0.847,0.284-1.08
		c0.018-0.055,0.044-0.229,0.081-0.526c0.036-0.298,0.081-0.617,0.135-0.959c0.054-0.342,0.104-0.657,0.148-0.945
		s0.085-0.459,0.122-0.513c0.054-0.162,0.157-0.436,0.311-0.824c0.153-0.387,0.301-0.783,0.445-1.188
		c0.144-0.405,0.257-0.769,0.338-1.093s0.067-0.486-0.041-0.486c-0.018,0-0.059-0.018-0.122-0.054
		c-0.063-0.036-0.126-0.076-0.189-0.122c-0.063-0.044-0.108-0.094-0.135-0.148c-0.027-0.054-0.013-0.099,0.041-0.135
		c0.162-0.144,0.544-0.243,1.147-0.297c0.603-0.054,1.256-0.081,1.958-0.081c0.702,0,1.359,0.009,1.971,0.027
		c0.612,0.018,1.008,0.036,1.188,0.054l0.648,0.054c0.342,0.018,0.688,0.081,1.04,0.189s0.625,0.315,0.823,0.621
		c0.18,0.27,0.36,0.45,0.54,0.54c0.18,0.09,0.324,0.207,0.432,0.351c0.234,0.378,0.342,0.801,0.324,1.269
		c0,0.018-0.009,0.045-0.027,0.081c-0.036,0.037-0.09,0.099-0.162,0.189c-0.072,0.09-0.148,0.18-0.229,0.27
		c-0.081,0.09-0.162,0.176-0.243,0.257s-0.148,0.131-0.203,0.148c-0.09,0.018-0.193,0.009-0.311-0.027s-0.234-0.068-0.351-0.095
		s-0.229-0.036-0.337-0.027c-0.108,0.009-0.189,0.05-0.243,0.122c-0.054,0.09-0.248,0.153-0.581,0.189
		c-0.333,0.036-0.729,0.059-1.188,0.067c-0.459,0.009-0.941,0.014-1.445,0.014c-0.486,0-0.918,0.009-1.296,0.027
		c-0.036,0.09-0.081,0.252-0.135,0.486c-0.054,0.234-0.117,0.504-0.189,0.81c-0.072,0.307-0.148,0.626-0.229,0.959
		s-0.158,0.635-0.229,0.904l-0.027,0.135c0.018,0.019,0.054,0.055,0.108,0.108c0.054,0.054,0.099,0.091,0.135,0.108
		c0.234,0.018,0.513,0.045,0.837,0.081c0.324,0.036,0.652,0.081,0.985,0.135s0.662,0.117,0.986,0.188
		c0.324,0.072,0.603,0.162,0.837,0.271c0.09,0.054,0.144,0.14,0.162,0.257c0.018,0.117,0.027,0.247,0.027,0.391
		c-0.018,0.091-0.023,0.194-0.014,0.311c0.009,0.117,0.041,0.212,0.095,0.284c0.144,0.216,0.265,0.378,0.364,0.485
		c0.099,0.108,0.239,0.262,0.418,0.459c0.054,0.072,0.004,0.148-0.148,0.229s-0.333,0.158-0.54,0.229
		c-0.207,0.072-0.41,0.131-0.607,0.176c-0.198,0.045-0.315,0.067-0.351,0.067c-0.162,0.019-0.445,0.041-0.85,0.067
		c-0.405,0.027-0.837,0.055-1.296,0.081c-0.459,0.027-0.891,0.055-1.296,0.081c-0.405,0.027-0.688,0.041-0.851,0.041l-0.378,0.513
		l-0.837,3.321c0,0.18,0.144,0.292,0.432,0.337c0.288,0.046,0.639,0.067,1.053,0.067s0.846-0.009,1.296-0.026
		c0.45-0.018,0.837,0,1.161,0.054c0.072,0,0.167,0.063,0.284,0.189c0.117,0.126,0.238,0.274,0.364,0.445s0.239,0.347,0.338,0.526
		c0.099,0.18,0.166,0.324,0.202,0.432v0.136c-0.018,0.216-0.126,0.437-0.324,0.661c-0.198,0.226-0.496,0.364-0.891,0.418
		c-0.504,0.091-1.134,0.153-1.89,0.189c-0.756,0.036-1.485,0.054-2.187,0.054c-0.702,0-1.31-0.004-1.822-0.014
		c-0.513-0.009-0.779-0.013-0.796-0.013c-0.307-0.036-0.594-0.158-0.864-0.365C63.225,90.998,63.099,90.714,63.117,90.354z"/>
	<path fill="#D4AF8E" d="M75.185,92.541l0.675-2.808c0.036-0.217,0.059-0.374,0.067-0.473c0.009-0.099,0.004-0.185-0.014-0.257
		c-0.018,0-0.018-0.018,0-0.054l4.266-13.23c0-0.018,0.004-0.05,0.014-0.095c0.009-0.045,0.013-0.085,0.013-0.122
		c-0.018-0.27-0.207-0.441-0.567-0.513c-0.36-0.072-0.752-0.117-1.174-0.135c-0.423-0.018-0.81-0.036-1.161-0.054
		c-0.351-0.018-0.518-0.108-0.5-0.27c0-0.036,0.049-0.071,0.148-0.108c0.099-0.036,0.148-0.099,0.148-0.189
		c0-0.036-0.063-0.081-0.189-0.135c-0.126-0.072-0.117-0.167,0.027-0.284c0.144-0.117,0.261-0.193,0.351-0.229
		c1.08-0.09,2.196-0.189,3.348-0.297c1.152-0.108,2.268-0.18,3.348-0.216l0.351-0.027c0.198,0,0.405-0.009,0.621-0.027
		c0.216-0.018,0.423-0.027,0.621-0.027l0.351-0.027c0.054,0.108,0.031,0.194-0.067,0.257c-0.099,0.063-0.167,0.117-0.203,0.162
		c-0.036,0.045,0.004,0.081,0.122,0.108c0.117,0.027,0.436,0.05,0.958,0.067c0.27,0.018,0.581,0.05,0.932,0.094
		c0.351,0.045,0.684,0.118,0.999,0.216c0.315,0.099,0.581,0.229,0.797,0.392c0.216,0.162,0.333,0.378,0.351,0.648
		c0.018,0.27,0.071,0.495,0.162,0.675c0.09,0.18,0.144,0.405,0.162,0.675c0.018,0.72-0.072,1.346-0.27,1.877
		c-0.198,0.53-0.459,0.999-0.783,1.403c-0.324,0.405-0.68,0.752-1.067,1.04s-0.76,0.545-1.12,0.77
		c-0.36,0.226-0.671,0.423-0.932,0.594c-0.261,0.172-0.428,0.338-0.5,0.5c0.09,0.432,0.198,0.922,0.324,1.471
		c0.126,0.55,0.243,1.112,0.351,1.688c0.108,0.577,0.203,1.139,0.284,1.688c0.081,0.55,0.13,1.04,0.148,1.472
		c0,0.091,0.022,0.284,0.067,0.581s0.077,0.571,0.095,0.823c0.018,0.324,0.004,0.594-0.041,0.81
		c-0.045,0.217-0.059,0.369-0.041,0.459c0,0.055-0.027,0.055-0.081,0c-0.054-0.054-0.122-0.094-0.203-0.121
		s-0.167-0.022-0.256,0.014c-0.09,0.036-0.171,0.162-0.243,0.378c-0.144,0.486-0.283,0.837-0.418,1.053
		c-0.135,0.216-0.266,0.36-0.392,0.433c-0.126,0.071-0.243,0.099-0.351,0.08c-0.108-0.018-0.216-0.026-0.324-0.026
		c-0.144,0-0.252-0.032-0.324-0.095c-0.072-0.063-0.131-0.145-0.176-0.243s-0.077-0.212-0.094-0.337
		c-0.019-0.127-0.054-0.253-0.108-0.378l-0.243-2.053c-0.162-0.647-0.293-1.318-0.392-2.011c-0.099-0.693-0.194-1.354-0.284-1.985
		c-0.09-0.63-0.185-1.191-0.283-1.688c-0.099-0.494-0.221-0.859-0.365-1.093c-0.018,0-0.059-0.005-0.122-0.014
		s-0.112-0.014-0.148-0.014c-0.234,0.019-0.396,0.1-0.486,0.243c-0.09,0.145-0.18,0.306-0.27,0.485
		c-0.09,0.199-0.216,0.469-0.378,0.811s-0.315,0.693-0.459,1.053c-0.072,0.181-0.135,0.347-0.189,0.5
		c-0.054,0.153-0.117,0.292-0.189,0.418c-0.09,0.271-0.18,0.514-0.27,0.729c-0.09,0.216-0.162,0.414-0.216,0.594
		c-0.072,0.198-0.153,0.45-0.243,0.756c-0.09,0.307-0.176,0.612-0.257,0.918c-0.081,0.307-0.158,0.576-0.229,0.811
		c-0.072,0.233-0.117,0.378-0.135,0.432c-0.036,0.09-0.077,0.145-0.122,0.162s-0.113,0.027-0.203,0.027
		c-0.072,0-0.211,0.004-0.418,0.013c-0.207,0.01-0.355,0.067-0.445,0.176c-0.162,0.108-0.275,0.229-0.337,0.364
		c-0.063,0.136-0.118,0.271-0.162,0.405c-0.045,0.135-0.095,0.252-0.148,0.351c-0.054,0.1-0.135,0.148-0.243,0.148
		s-0.162-0.071-0.162-0.216c0-0.126-0.045-0.188-0.135-0.188c-0.054,0-0.108,0.031-0.162,0.095
		c-0.054,0.063-0.099,0.125-0.135,0.188c-0.036,0.063-0.072,0.108-0.108,0.135c-0.036,0.027-0.054,0.014-0.054-0.04L75.185,92.541z
		 M85.337,75.45c-0.504,0-0.855,0.04-1.053,0.121c-0.198,0.081-0.347,0.239-0.446,0.473c-0.099,0.234-0.193,0.563-0.283,0.985
		c-0.09,0.423-0.279,0.968-0.567,1.634c0,0.018-0.041,0.14-0.122,0.364c-0.081,0.226-0.148,0.433-0.203,0.621
		c-0.054,0.189-0.09,0.302-0.108,0.338c0.396-0.145,0.837-0.338,1.323-0.581c0.486-0.243,0.94-0.513,1.364-0.81
		c0.423-0.298,0.778-0.621,1.066-0.972c0.288-0.351,0.423-0.706,0.405-1.066c-0.019-0.432-0.122-0.725-0.311-0.877
		s-0.545-0.22-1.067-0.203V75.45z"/>
	<path fill="#D4AF8E" d="M93.275,91.326c-0.468-0.108-0.918-0.247-1.35-0.419c-0.432-0.171-0.829-0.378-1.188-0.621
		c-0.36-0.242-0.671-0.517-0.932-0.823c-0.261-0.306-0.446-0.647-0.554-1.026c-0.072-0.197-0.175-0.404-0.311-0.62
		c-0.135-0.217-0.229-0.423-0.283-0.621v-0.055c0.018-0.107,0.185-0.211,0.5-0.311c0.314-0.099,0.67-0.188,1.066-0.27
		c0.396-0.081,0.773-0.162,1.134-0.243c0.36-0.081,0.603-0.176,0.729-0.283c0.162-0.126,0.306-0.081,0.432,0.135
		s0.274,0.49,0.445,0.823c0.171,0.334,0.378,0.657,0.621,0.973c0.243,0.314,0.554,0.509,0.932,0.58
		c0.18,0.036,0.423,0.059,0.729,0.067c0.306,0.01,0.549,0.014,0.729,0.014c0.108-0.108,0.234-0.162,0.378-0.162
		c0.162,0,0.311-0.004,0.445-0.014c0.135-0.009,0.261-0.063,0.378-0.162c0.117-0.099,0.202-0.311,0.256-0.634v-0.081
		c0-0.018-0.005-0.081-0.014-0.189c-0.009-0.107-0.022-0.22-0.041-0.337s-0.031-0.226-0.041-0.324s-0.022-0.148-0.041-0.148
		c-0.432-0.342-0.814-0.652-1.147-0.932s-0.648-0.558-0.945-0.837s-0.594-0.571-0.891-0.878c-0.297-0.306-0.617-0.656-0.958-1.053
		c-0.162,0-0.292-0.045-0.392-0.135s-0.175-0.198-0.229-0.324c-0.054-0.126-0.108-0.257-0.162-0.392
		c-0.054-0.135-0.118-0.247-0.189-0.338c-0.019-0.035-0.059-0.099-0.122-0.188c-0.063-0.09-0.131-0.189-0.203-0.297
		c-0.072-0.108-0.14-0.212-0.203-0.311s-0.112-0.176-0.148-0.229c-0.414-0.342-0.725-0.688-0.932-1.04
		c-0.207-0.351-0.342-0.706-0.405-1.066c-0.063-0.359-0.081-0.733-0.054-1.12c0.027-0.387,0.077-0.796,0.149-1.229
		c0.036-0.198,0.099-0.437,0.189-0.716c0.09-0.279,0.207-0.553,0.351-0.823s0.311-0.517,0.5-0.743c0.189-0.225,0.4-0.391,0.635-0.5
		c0.684-0.306,1.485-0.5,2.403-0.581c0.918-0.081,1.773-0.058,2.565,0.068c0.216,0.036,0.446,0.104,0.688,0.202
		c0.243,0.099,0.495,0.203,0.756,0.311c0.261,0.108,0.517,0.216,0.77,0.324c0.251,0.108,0.495,0.189,0.729,0.243
		c0.018,0.09,0.139,0.185,0.364,0.283c0.225,0.099,0.477,0.226,0.756,0.378c0.279,0.153,0.554,0.324,0.824,0.513
		s0.459,0.401,0.567,0.634c0.054,0.108,0.122,0.234,0.203,0.378s0.162,0.288,0.243,0.432c0.081,0.145,0.144,0.288,0.189,0.432
		c0.044,0.145,0.058,0.279,0.041,0.405c-0.037,0.145-0.208,0.261-0.513,0.351c-0.306,0.09-0.657,0.167-1.053,0.229
		c-0.396,0.063-0.779,0.104-1.147,0.121c-0.369,0.019-0.625,0.019-0.77,0c-0.09-0.018-0.211-0.04-0.364-0.067
		c-0.153-0.026-0.256-0.085-0.311-0.175l-0.837-1.485c-0.072-0.09-0.212-0.153-0.418-0.189c-0.208-0.036-0.356-0.063-0.446-0.081
		c-0.288-0.054-0.585-0.099-0.891-0.135c-0.307-0.036-0.59-0.036-0.851,0c-0.261,0.036-0.482,0.126-0.662,0.27
		c-0.18,0.144-0.297,0.36-0.351,0.648c-0.018,0.126-0.054,0.261-0.108,0.405c-0.054,0.145-0.09,0.288-0.108,0.432
		c-0.018,0.144-0.014,0.288,0.013,0.432c0.027,0.144,0.112,0.279,0.257,0.404c0.36,0.343,0.684,0.645,0.972,0.905
		s0.563,0.513,0.824,0.756c0.261,0.243,0.522,0.49,0.783,0.742c0.261,0.253,0.544,0.54,0.851,0.864
		c0.162,0.198,0.315,0.364,0.459,0.499c0.144,0.136,0.324,0.293,0.54,0.473c0.144,0.126,0.311,0.279,0.5,0.459
		c0.189,0.181,0.378,0.365,0.567,0.554c0.189,0.189,0.369,0.378,0.54,0.567c0.171,0.188,0.311,0.355,0.418,0.499
		c0.108,0.198,0.225,0.424,0.351,0.675c0.126,0.253,0.288,0.45,0.486,0.595c-0.037,0.432-0.081,0.94-0.135,1.525
		c-0.054,0.585-0.117,1.084-0.189,1.498c-0.108,0.631-0.329,1.112-0.662,1.444c-0.333,0.334-0.747,0.577-1.242,0.729
		c-0.496,0.153-1.058,0.243-1.688,0.27c-0.63,0.027-1.287,0.05-1.971,0.068c-0.018,0-0.081,0-0.189,0c-0.09,0-0.207,0-0.351,0
		c-0.126,0-0.252,0-0.378,0s-0.225-0.01-0.297-0.027l-0.324-0.054c-0.036,0-0.099,0.026-0.189,0.081
		c-0.09,0.054-0.144,0.08-0.162,0.08c-0.144,0.019-0.243-0.031-0.297-0.148c-0.054-0.116-0.099-0.247-0.135-0.391L93.275,91.326z"/>
</g>
</svg>
