<?xml version="1.0" encoding="utf-8"?>
<!-- Generator: Adobe Illustrator 16.0.0, SVG Export Plug-In . SVG Version: 6.00 Build 0)  -->
<!DOCTYPE svg PUBLIC "-//W3C//DTD SVG 1.1//EN" "http://www.w3.org/Graphics/SVG/1.1/DTD/svg11.dtd">
<svg version="1.1" id="logoSVG" xmlns="http://www.w3.org/2000/svg" xmlns:xlink="http://www.w3.org/1999/xlink" x="0px" y="0px"
	 width="300px" height="156px" viewBox="-206.068 -84.663 300 156" enable-background="new -206.068 -84.663 300 156"
	 xml:space="preserve">
<defs>
	
	<script>var mainIcon = document.querySelector(&quot;#logoSVG&quot;);
	
	function logMe() {
		this.classList.toggle(&quot;clickTrigger&quot;);
	}
	
	mainIcon.addEventListener(&quot;click&quot;, logMe, false);
		</script>
</defs>
<g id="word">
	<path fill="#D4AF8E" d="M-174.3,39.159c0.293-1.337,0.669-2.976,1.145-4.973c0.467-1.996,0.604-3.755,0.421-5.256l0.852-9.085
		c0.193-2.198,0.523-3.893,0.989-5.13c0.476-1.235,0.714-2.737,0.714-4.542c-0.751,0-1.346-0.137-1.776-0.43
		c-0.421-0.284-0.925-0.321-1.493-0.138c-1.511,0.477-2.748,1.41-3.691,2.83c-0.943,1.419-1.557,2.802-1.84,4.13
		c-0.861,2.939-1.713,5.751-2.556,8.454c-0.852,2.691-1.612,5.833-2.281,9.432c-0.284,1.319-0.677,2.235-1.208,2.711
		c-0.513,0.467-1.109,0.724-1.777,0.778c-0.659,0.027-1.364,0.064-2.125,0.064c-0.669,0-1.319,0.201-1.987,0.577
		c-0.761,0.365-1.346,0.787-1.777,1.282c-0.43,0.467-0.861,0.907-1.282,1.337c-0.421,0.421-0.925,0.787-1.484,1.126
		c-0.568,0.34-1.328,0.513-2.28,0.513c-3.316,0-5.541-0.411-6.667-1.218c-1.135-0.797-1.712-2.711-1.712-5.751v-4.258
		c0.477-2.172,1.145-5.23,1.997-9.169c0.843-3.929,1.74-8.022,2.702-12.28c0.934-4.259,1.868-8.307,2.757-12.135
		c0.897-3.828,1.639-6.841,2.207-9.021c0.375-1.511,0.97-3.874,1.776-7.098c0.797-3.214,1.657-6.53,2.546-9.937
		c0.897-3.407,1.859-6.557,2.848-9.452c0.999-2.875,1.914-4.752,2.775-5.604l9.507-1.996c0.201,0,0.76-0.156,1.712-0.494
		c0.934-0.33,1.841-0.522,2.692-0.568c0.852-0.045,1.521,0.174,1.987,0.641c0.477,0.477,0.385,1.521-0.284,3.133
		c0.192,1.126,0.55,1.749,1.063,1.841c0.531,0.091,1.071,0.119,1.63,0.064c0.578-0.037,1.072,0.027,1.502,0.22
		c0.421,0.193,0.642,0.953,0.642,2.271c0,1.136-0.128,2.345-0.366,3.618c-0.229,1.282-0.477,2.536-0.706,3.764
		c-0.229,1.227-0.449,2.445-0.641,3.618c-0.193,1.181-0.284,2.253-0.284,3.196c0.091,1.612-0.165,3.553-0.779,5.825
		c-0.613,2.262-1.209,4.396-1.776,6.383s-0.943,3.599-1.136,4.826c-0.192,1.236,0.229,1.566,1.282,0.999
		c0.275,0,0.724,0.055,1.347,0.146c0.613,0.091,1.227,0.119,1.85,0.063c0.613-0.045,1.209-0.21,1.777-0.494
		c0.567-0.284,0.943-0.76,1.126-1.419l12.355-50.132l8.242-2.702c0.284-0.091,0.568,0.083,0.852,0.504
		c0.293,0.422,0.567,0.926,0.851,1.483c0.284,0.568,0.549,1.1,0.779,1.566c0.238,0.476,0.503,0.659,0.788,0.568
		c0.476-0.092,0.897-0.165,1.282-0.21c0.366-0.056,0.705-0.074,0.989-0.074c1.035,0,1.776,0.541,2.198,1.63
		c0.43,1.09,0.403,3.105-0.074,6.036c-0.192,1.136-0.137,2.015,0.137,2.62c0.285,0.623,0.642,1.145,1.072,1.566
		c0.431,0.439,0.833,0.897,1.218,1.364c0.375,0.477,0.568,1.09,0.568,1.85c0,1.237-0.146,2.556-0.431,3.975
		c-0.284,1.419-0.614,2.867-0.989,4.332c-0.385,1.465-0.787,2.903-1.208,4.332c-0.431,1.42-0.788,2.748-1.072,3.975l-1.703,7.528
		c-1.987,8.141-3.719,14.946-5.184,20.441c-1.475,5.514-2.729,10.285-3.764,14.342c-1.044,4.094-1.923,7.638-2.638,10.724
		c-0.705,3.078-1.336,6.218-1.904,9.45l0.706,5.396c0.091,0.476-0.027,0.88-0.357,1.218c-0.339,0.339-0.705,0.604-1.135,0.843
		c-0.422,0.247-0.834,0.431-1.209,0.576c-0.375,0.139-0.568,0.257-0.568,0.358c-0.659,1.611-1.346,2.72-2.051,3.333
		c-0.714,0.604-1.31,0.916-1.776,0.916h-0.861c-0.092-0.092-0.193-0.395-0.284-0.916c-0.092-0.513-0.165-1.071-0.21-1.63
		c-0.055-0.568-0.119-1.09-0.211-1.566c-0.11-0.477-0.201-0.76-0.293-0.852c-0.568-0.184-1.136-0.385-1.704-0.568
		c-0.568-0.191-1.09-0.191-1.557,0c-0.953,0.385-1.658,0.642-2.134,0.788c-0.477,0.137-1.282-0.165-2.418-0.935
		c-0.477-0.384-1.044-0.622-1.703-0.704c-0.66-0.082-1.328-0.284-1.988-0.577c-0.668-0.284-1.236-0.724-1.703-1.338
		C-173.916,41.458-174.2,40.479-174.3,39.159z"/>
	<path fill="#D4AF8E" d="M-138.657,34.745c0.293-1.602,0.651-3.534,1.082-5.814c0.421-2.291,0.916-4.524,1.483-6.751
		c0.568-2.234,1.181-4.167,1.841-5.823c0.669-1.658,1.383-2.665,2.134-3.06c0.76-0.283,1.282-0.824,1.565-1.64
		c0.284-0.797,0.477-1.684,0.568-2.691c0.092-0.999,0.165-1.96,0.22-2.904c0.045-0.952,0.256-1.749,0.631-2.426l10.514-42.595
		c0.467-0.668,0.898-1.85,1.273-3.543c0.384-1.713,0.806-3.462,1.273-5.266c0.476-1.786,1.044-3.325,1.713-4.616
		c0.659-1.272,1.511-1.868,2.555-1.776l10.083,0.861c1.52,0.852,2.62,1.365,3.333,1.557c0.706,0.193,1.273,0.238,1.695,0.147
		c0.43-0.101,0.787-0.256,1.071-0.504c0.284-0.229,0.76-0.357,1.419-0.357c0.944,0,1.841,0.641,2.702,1.923
		c0.852,1.273,1.64,2.876,2.344,4.827c0.715,1.941,1.374,4.075,1.987,6.392c0.623,2.317,1.154,4.515,1.639,6.594
		c0.467,2.088,0.917,3.938,1.347,5.541c0.431,1.612,0.833,2.656,1.218,3.123c0,0.1,0.092,0.165,0.275,0.21
		c0.192,0.046,0.338,0.073,0.43,0.073c0.184,0,0.375-0.092,0.568-0.284c1.228-2.088,2.738-4.753,4.542-8.023
		c1.794-3.269,3.599-6.419,5.394-9.442c1.805-3.031,3.48-5.596,5.046-7.675c1.566-2.079,2.766-3.077,3.618-2.985
		c0.952,0.192,1.886,0,2.848-0.568c0.935-0.567,1.886-1.346,2.839-2.344c0.943-0.999,1.841-2.079,2.692-3.26
		c0.852-1.182,1.657-2.253,2.418-3.196h1.419c0.366,0,1.036-0.385,1.987-1.136c0.944-0.76,1.658-1.136,2.125-1.136
		c1.612,0,3.114,0.522,4.469,1.557c1.383,1.044,2.738,1.896,4.057,2.555c0.843,0.385,1.42,1.199,1.694,2.417
		c0.302,1.227,0.467,2.61,0.576,4.122c0.101,1.511,0.101,3.05,0,4.615c-0.109,1.575-0.137,2.876-0.137,3.911
		c0,0.568-0.073,1.777-0.219,3.627c-0.156,1.841-0.339,3.754-0.559,5.751c-0.238,1.978-0.54,3.755-0.861,5.321
		c-0.321,1.565-0.696,2.381-1.071,2.491l-11.072,42.731c0.193,0.477,0.138,1.714-0.146,3.691c-0.274,1.996-0.806,4.176-1.557,6.549
		c-0.375,0.942-0.788,1.84-1.209,2.692c-0.421,0.842-0.879,1.656-1.346,2.408c-0.477,0.852-1.117,1.594-1.914,2.217
		c-0.815,0.612-1.594,0.951-2.345,1.053c-0.577,0.1-1.071,0.678-1.493,1.704c-0.421,1.034-0.861,2.077-1.282,3.132
		c-0.421,1.025-0.797,1.914-1.127,2.618c-0.338,0.715-0.695,0.797-1.08,0.22c-0.091-0.101-0.275-0.642-0.568-1.639
		c-0.275-0.999-0.541-1.896-0.769-2.693c-0.238-0.805-0.357-1.245-0.357-1.354c-0.568-0.283-1.265-0.439-2.061-0.504
		c-0.806-0.036-1.584-0.063-2.345-0.063c-0.751,0-1.492-0.056-2.198-0.138c-0.714-0.101-1.31-0.395-1.776-0.87l-3.7-3.682
		c0-2.29,0.357-4.68,1.071-7.235c0.705-2.555,1.301-5.027,1.777-7.399c0.283-1.319,0.494-2.427,0.641-3.324
		c0.137-0.897,0.302-1.914,0.495-3.068c0.952-2.362,1.795-4.396,2.556-6.099c0.75-1.703,1.538-3.571,2.344-5.605
		c0.806-2.042,1.585-3.938,2.345-5.687c0.751-1.749,1.603-3.819,2.546-6.182c-0.091,0-0.513,0.55-1.273,1.64
		c-0.75,1.081-1.676,2.436-2.765,4.048c-1.09,1.603-2.253,3.361-3.48,5.247c-1.228,1.887-2.39,3.654-3.471,5.257
		c-1.099,1.612-2.015,2.949-2.775,4.03c-0.761,1.1-1.181,1.594-1.273,1.502c-0.953-0.366-2.042-0.467-3.27-0.283
		c-1.227,0.201-2.409,0.101-3.544-0.266c-1.053-0.375-2.39-0.696-4.048-0.953c-1.658-0.22-2.821-0.385-3.48-0.467
		c-1.419-1.153-2.436-2.408-3.05-3.773c-0.614-1.383-1.172-3.159-1.63-5.33c-0.476-2.28-1.191-4.551-2.134-6.813
		c-0.943-2.281-1.804-4.314-2.555-6.118c-0.659,1.053-1.254,2.445-1.786,4.194c-0.513,1.749-0.98,3.508-1.419,5.257
		c-0.421,1.749-0.843,3.361-1.273,4.827c-0.43,1.475-0.87,2.481-1.347,3.05c-0.577,0.659-1.025,1.639-1.355,2.912
		c-0.33,1.283-0.586,2.656-0.77,4.13c-0.201,1.448-0.384,2.903-0.567,4.324c-0.202,1.428-0.385,2.554-0.577,3.405
		c-0.66,2.758-1.273,5.331-1.841,7.722c-0.568,2.444-1.163,4.569-1.786,6.41c-0.614,1.85-1.218,3.314-1.841,4.405
		c-0.614,1.09-1.245,1.639-1.914,1.639c-1.318,0-2.39,0.267-3.195,0.78c-0.807,0.521-1.558,1.061-2.272,1.619
		c-0.714,0.578-1.465,1.154-2.271,1.723c-0.806,0.56-1.823,0.879-3.059,0.979l-9.507-4.834L-138.657,34.745z"/>
	<path fill="#D4AF8E" d="M-46.342,18.847c0.659-2.28,1.575-5.55,2.757-9.79c1.19-4.268,2.473-8.792,3.846-13.572
		c1.365-4.781,2.684-9.424,3.975-13.921c1.283-4.505,2.299-8.123,3.041-10.87c0.311-1.319,0.577-2.317,0.86-2.977
		c0.293-0.66,0.477-1.218,0.559-1.704c0.101-0.274,0.275-0.687,0.513-1.209c0.237-0.513,0.485-1.208,0.769-2.061l1.712-5.394
		c0.76-1.795,1.42-3.535,1.978-5.193c0.577-1.657,0.999-2.72,1.292-3.187c0-0.375,0.101-0.796,0.265-1.273
		c0.202-0.485,0.395-0.906,0.577-1.282c0.202-0.375,0.303-0.732,0.375-1.071c0.028-0.33-0.082-0.541-0.375-0.632
		c-0.741-0.284-1.611-0.541-2.555-0.788c-0.943-0.238-1.877-0.513-2.756-0.843c-0.916-0.338-1.658-0.714-2.28-1.145
		c-0.614-0.421-0.934-0.87-0.934-1.355c0-0.568-0.027-1.319-0.138-2.262c-0.101-0.953-0.119-1.859-0.064-2.702
		c0.037-0.852,0.238-1.584,0.577-2.207c0.32-0.605,0.916-0.871,1.759-0.779c5.019,0.284,9.094,0.66,12.207,1.136
		c3.132,0.477,6.054,1.328,8.819,2.555c0.76,0.568,1.64,1.035,2.62,1.419c0.989,0.385,1.877,0.953,2.638,1.713
		c1.044,0.934,2.097,1.813,3.178,2.619c1.099,0.806,2.024,1.447,2.775,1.923c0.568,0.467,0.98,0.852,1.218,1.126
		c0.238,0.293,0.421,0.578,0.577,0.861c0.128,0.284,0.32,0.614,0.558,0.998c0.229,0.375,0.642,0.806,1.191,1.273
		c1.053,0.953,2.372,1.75,3.929,2.409c1.557,0.668,2.775,1.566,3.617,2.702c3.975,5.211,6.97,10.843,9.021,16.906
		c2.043,6.063,3.096,12.208,3.196,18.454c0,2.271-0.312,4.542-0.915,6.814c-0.632,2.28-1.383,4.478-2.281,6.603
		c-0.896,2.143-1.896,4.204-2.994,6.182c-1.08,1.987-2.098,3.874-3.049,5.669c-1.521,2.573-3.499,4.817-5.953,6.768
		c-2.473,1.923-5.139,3.646-8.032,5.175c-2.894,1.521-5.797,2.876-8.728,4.057c-2.939,1.182-5.596,2.235-7.968,3.179
		c-0.467,0.2-1.245,0.503-2.326,0.934c-1.081,0.421-1.731,0.641-1.932,0.641l-23.427,0.998l-4.112-2.71
		c0.275-1.887,0.495-3.417,0.641-4.615c0.146-1.182,0.256-2.346,0.349-3.462c0.1-1.154,0.155-1.869,0.155-2.135L-46.342,18.847z
		 M-25.333,14.578c1.429-0.082,3.37-0.457,5.834-1.062c2.454-0.604,4.89-1.383,7.308-2.335c2.399-0.942,4.57-2.033,6.465-3.215
		c1.887-1.181,3.077-2.436,3.554-3.755l7.098-24.571L-5.158-37.54c-0.202-0.092-0.641-0.257-1.355-0.503
		c-0.706-0.229-1.209-0.44-1.483-0.632c-0.385-0.092-0.678-0.146-0.861-0.146c-0.083,0-0.284,0.055-0.559,0.146
		c-0.1,0.091-0.274,0.476-0.512,1.135c-0.238,0.659-0.458,1.228-0.641,1.703c-1.319,3.883-2.537,7.693-3.617,11.439
		c-1.081,3.736-2.198,7.5-3.352,11.283c-1.109,3.791-2.336,7.619-3.618,11.502c-1.273,3.883-2.702,7.858-4.332,11.934
		L-25.333,14.578z"/>
	<path fill="#D4AF8E" d="M18.827,47.375c0-2.08,0.459-4.058,1.355-5.954c0.907-1.895,1.585-3.919,2.061-6.116
		c0.477-1.896,0.972-3.893,1.492-6.026c0.523-2.135,1.009-4.23,1.484-6.329c-0.164-0.101-0.402-0.266-0.641-0.567
		c-0.238-0.275-0.238-0.504-0.073-0.714c0-0.164,0.219-0.706,0.65-1.621c0.439-0.897,0.642-1.456,0.642-1.622
		c0.576-1.52,0.824-2.994,0.778-4.413c-0.037-1.42,0.165-2.932,0.642-4.552c0.476-1.502,1.116-3.682,1.931-6.53
		c0.807-2.839,1.567-5.696,2.326-8.591c0.77-2.884,1.476-5.513,2.135-7.875c0.659-2.372,1.081-3.883,1.282-4.543
		c0.374-1.043,0.796-2.464,1.272-4.268c0.468-1.804,0.926-3.69,1.355-5.678c0.422-1.987,0.788-3.901,1.063-5.751
		c0.292-1.85,0.438-3.288,0.438-4.332H22.253c-1.035-0.567-1.694-0.952-1.988-1.136c-0.558-1.035-0.704-2.033-0.42-2.985
		c0.265-0.943,0.42-1.841,0.42-2.693c0-0.568-0.283-1.135-0.859-1.703c1.52-0.943,3.278-1.447,5.274-1.493
		c1.979-0.055,3.718-0.586,5.248-1.63v0.705c0.201-0.091,0.439-0.229,0.779-0.43c0.329-0.183,0.584-0.274,0.786-0.274
		c2.189-0.861,4.827-1.584,7.949-2.198c3.132-0.623,6.311-1.164,9.589-1.64c3.271-0.467,6.466-0.833,9.579-1.071
		c3.142-0.229,5.78-0.348,7.959-0.348c0.668,0,1.476,0.33,2.418,0.999c0.952,0.659,1.557,1.364,1.832,2.125h6.969
		c0.283,0.943,1.008,1.465,2.198,1.557c1.181,0.101,2.161,0.293,2.903,0.568c4.258,1.52,7.171,3.865,8.746,7.033
		c1.575,3.178,2.344,6.887,2.344,11.154c0,4.167-0.385,7.51-1.145,10.01c-0.742,2.509-1.84,4.68-3.261,6.53
		c-1.429,1.841-3.168,3.645-5.266,5.404c-2.061,1.749-4.432,3.992-7.098,6.731c0.385,0.485,0.86,0.861,1.42,1.145
		c0.577,0.274,1.117,0.604,1.64,0.989c0.521,0.385,1.034,0.852,1.501,1.419c0.477,0.568,0.853,1.419,1.118,2.546
		c0.678,1.896,1.182,4.094,1.574,6.548c0.367,2.445,0.56,4.213,0.56,5.256c0,0.266-0.019,0.597-0.064,0.917
		c-0.037,0.338-0.073,0.54-0.073,0.641c0,0.102-0.229,0.504-0.705,1.218c-0.477,0.705-0.714,1.199-0.714,1.483v0.853v1.557v1.722
		v0.843c0,0.101-0.11,0.339-0.357,0.715c-0.238,0.375-0.467,0.777-0.705,1.198c-0.238,0.422-0.477,0.861-0.715,1.274
		c-0.238,0.438-0.356,0.704-0.356,0.787v0.559c-0.742,0.952-2.089,2.372-4.058,4.268c-1.924,1.887-4.021,3.783-6.218,5.679
		c-2.234,1.896-4.47,3.553-6.704,4.973c-2.217,1.418-3.984,2.133-5.303,2.133c-2.656,0.468-5.504,0.66-8.527,0.568
		c-3.049-0.101-6.153-0.283-9.368-0.568c-0.678-0.375-1.08-0.613-1.282-0.715c-0.375-0.475-0.613-0.712-0.715-0.712h-0.266
		c-0.393,0-0.951,0.209-1.729,0.575c-0.742,0.375-1.539,0.815-2.335,1.282c-0.807,0.468-1.549,0.935-2.208,1.411
		c-0.659,0.468-1.054,0.859-1.136,1.125c-0.101,0.11,0.137,0.532,0.705,1.293c-0.102,0.183-0.367,0.402-0.843,0.641
		c-0.494,0.238-0.704,0.439-0.704,0.642c-0.211,0.559-0.294,0.979-0.294,1.272c-1.236,0-2.372,0.237-3.396,0.705
		c-1.055,0.477-2.236,0.715-3.554,0.715c-2.098,0-3.381-0.733-3.856-2.198C19.085,50.388,18.827,48.903,18.827,47.375z
		 M27.793,10.613c-0.211,0-0.293,0.102-0.293,0.266c0,0.385,0.082,0.477,0.293,0.303C28.719,10.979,28.719,10.797,27.793,10.613z
		 M53.903,7.326c-0.274,0.11-0.741,0.979-1.419,2.647c-0.659,1.656-1.282,3.516-1.914,5.549c-0.622,2.024-1.163,3.947-1.64,5.807
		c-0.476,1.85-0.705,3.05-0.705,3.627c0,0.201,0.027,0.522,0.082,0.998c0.047,0.466,0.065,0.787,0.065,0.998
		c1.135-0.578,2.591-1.329,4.331-2.271c1.739-0.952,3.471-2.052,5.128-3.278c1.64-1.219,3.097-2.537,4.323-3.893
		c1.219-1.392,1.832-2.83,1.832-4.35c0-2.181-0.577-3.682-1.759-4.543c-1.182-0.852-2.912-1.273-5.192-1.273h-3.133V7.326
		L53.903,7.326z M73.502-31.862v-0.989c0-0.852-0.119-1.822-0.357-2.913c-0.229-1.08-0.741-1.63-1.483-1.63h-7.811
		c-0.367,0-0.953,0.916-1.695,2.766c-0.769,1.85-1.521,3.929-2.28,6.245c-0.761,2.326-1.42,4.552-1.979,6.677
		c-0.575,2.134-0.859,3.435-0.859,3.901c0.559,0,1.657-0.467,3.26-1.419c1.621-0.943,3.316-2.033,5.11-3.261
		c1.804-1.227,3.444-2.417,4.899-3.553c1.476-1.135,2.336-1.941,2.647-2.417c0.082-0.091,0.182-0.522,0.266-1.273
		c0.1-0.76,0.2-1.364,0.283-1.85V-31.862L73.502-31.862z"/>
</g>
</svg>
