<?xml version="1.0" encoding="utf-8"?>
<!-- Generator: Adobe Illustrator 16.0.0, SVG Export Plug-In . SVG Version: 6.00 Build 0)  -->
<!DOCTYPE svg PUBLIC "-//W3C//DTD SVG 1.1//EN" "http://www.w3.org/Graphics/SVG/1.1/DTD/svg11.dtd">
<svg version="1.1" id="logoSVG" xmlns="http://www.w3.org/2000/svg" xmlns:xlink="http://www.w3.org/1999/xlink" x="0px" y="0px"
	 width="270px" height="150px" viewBox="36 20.293 270 150" enable-background="new 36 20.293 270 150" xml:space="preserve">
<defs>
	
	<script>var mainIcon = document.querySelector(&quot;#logoSVG&quot;);
	
	function logMe() {
		this.classList.toggle(&quot;clickTrigger&quot;);
	}
	
	mainIcon.addEventListener(&quot;click&quot;, logMe, false);
		</script>
</defs>
<g id="word">
	<path fill="#D4AF8E" d="M65.376,119.187c0.262-1.194,0.598-2.658,1.022-4.442c0.418-1.783,0.539-3.354,0.377-4.695l0.761-8.117
		c0.172-1.963,0.467-3.477,0.884-4.582c0.425-1.104,0.638-2.445,0.638-4.059c-0.671,0-1.203-0.121-1.587-0.383
		c-0.376-0.254-0.826-0.287-1.334-0.123c-1.35,0.425-2.455,1.259-3.297,2.527c-0.843,1.268-1.391,2.503-1.645,3.689
		c-0.769,2.625-1.53,5.139-2.283,7.553c-0.761,2.404-1.439,5.211-2.037,8.426c-0.254,1.179-0.605,1.996-1.08,2.422
		c-0.458,0.418-0.99,0.646-1.587,0.695c-0.589,0.023-1.219,0.057-1.898,0.057c-0.598,0-1.179,0.18-1.775,0.516
		c-0.68,0.326-1.202,0.703-1.587,1.146c-0.385,0.417-0.77,0.811-1.146,1.194c-0.375,0.377-0.826,0.703-1.325,1.006
		c-0.507,0.304-1.187,0.459-2.036,0.459c-2.963,0-4.951-0.367-5.957-1.088c-1.014-0.713-1.529-2.422-1.529-5.139v-3.803
		c0.427-1.941,1.023-4.674,1.784-8.191c0.753-3.51,1.555-7.167,2.414-10.971c0.835-3.806,1.669-7.422,2.463-10.842
		c0.802-3.419,1.464-6.111,1.972-8.059c0.335-1.35,0.867-3.461,1.587-6.341c0.712-2.872,1.479-5.834,2.274-8.877
		c0.801-3.044,1.66-5.858,2.545-8.444c0.892-2.569,1.709-4.245,2.479-5.006l8.493-1.783c0.18,0,0.679-0.139,1.529-0.441
		c0.834-0.294,1.646-0.466,2.405-0.507c0.761-0.041,1.358,0.155,1.775,0.572c0.426,0.426,0.344,1.359-0.254,2.799
		c0.171,1.006,0.49,1.563,0.949,1.645c0.475,0.082,0.957,0.106,1.456,0.058c0.517-0.033,0.958,0.024,1.343,0.196
		c0.375,0.173,0.572,0.852,0.572,2.029c0,1.015-0.113,2.095-0.326,3.232c-0.205,1.146-0.426,2.266-0.631,3.362
		c-0.205,1.096-0.401,2.185-0.572,3.232c-0.173,1.055-0.254,2.013-0.254,2.855c0.081,1.44-0.147,3.174-0.696,5.204
		c-0.548,2.021-1.08,3.927-1.587,5.703c-0.506,1.775-0.842,3.215-1.015,4.311c-0.171,1.105,0.204,1.4,1.146,0.894
		c0.246,0,0.646,0.049,1.203,0.13c0.548,0.082,1.097,0.106,1.652,0.057c0.549-0.04,1.08-0.188,1.588-0.441
		c0.507-0.254,0.843-0.68,1.006-1.268l11.037-44.787l7.363-2.414c0.254-0.082,0.508,0.074,0.762,0.45
		c0.262,0.377,0.506,0.828,0.76,1.325c0.254,0.508,0.491,0.983,0.696,1.399c0.212,0.425,0.45,0.588,0.704,0.507
		c0.425-0.082,0.801-0.147,1.146-0.187c0.327-0.05,0.63-0.066,0.884-0.066c0.924,0,1.586,0.484,1.963,1.456
		c0.385,0.974,0.359,2.774-0.066,5.393c-0.171,1.014-0.122,1.799,0.123,2.34c0.254,0.556,0.573,1.023,0.957,1.399
		c0.385,0.392,0.744,0.801,1.088,1.218c0.336,0.426,0.508,0.974,0.508,1.653c0,1.105-0.131,2.284-0.385,3.551
		s-0.549,2.561-0.884,3.87c-0.345,1.309-0.703,2.593-1.079,3.87c-0.385,1.269-0.703,2.455-0.957,3.551l-1.521,6.726
		c-1.775,7.272-3.323,13.353-4.632,18.261c-1.317,4.926-2.438,9.189-3.362,12.813c-0.934,3.658-1.719,6.824-2.356,9.581
		c-0.63,2.749-1.194,5.556-1.701,8.442l0.63,4.82c0.082,0.425-0.023,0.786-0.318,1.088c-0.303,0.303-0.63,0.539-1.014,0.754
		c-0.377,0.22-0.746,0.385-1.08,0.514c-0.336,0.125-0.508,0.23-0.508,0.32c-0.588,1.439-1.202,2.43-1.832,2.978
		c-0.639,0.54-1.17,0.817-1.586,0.817h-0.77c-0.082-0.081-0.173-0.352-0.254-0.817c-0.082-0.458-0.147-0.957-0.188-1.456
		c-0.049-0.508-0.106-0.974-0.189-1.398c-0.098-0.427-0.179-0.68-0.262-0.762c-0.508-0.164-1.014-0.344-1.521-0.508
		c-0.508-0.17-0.975-0.17-1.391,0c-0.852,0.344-1.481,0.574-1.907,0.704c-0.427,0.122-1.146-0.147-2.16-0.835
		c-0.427-0.344-0.933-0.557-1.521-0.629c-0.59-0.074-1.188-0.254-1.777-0.516c-0.596-0.254-1.104-0.646-1.521-1.195
		C65.719,121.24,65.465,120.366,65.376,119.187z"/>
	<path fill="#D4AF8E" d="M97.218,115.244c0.262-1.432,0.582-3.158,0.966-5.194c0.377-2.048,0.818-4.042,1.326-6.031
		c0.507-1.996,1.055-3.723,1.645-5.202c0.598-1.481,1.235-2.381,1.906-2.734c0.68-0.252,1.145-0.735,1.398-1.465
		c0.254-0.712,0.426-1.504,0.508-2.404c0.082-0.893,0.146-1.75,0.195-2.594c0.041-0.852,0.229-1.563,0.564-2.168l9.393-38.052
		c0.418-0.597,0.802-1.653,1.137-3.166c0.344-1.53,0.721-3.093,1.138-4.704c0.425-1.596,0.933-2.971,1.53-4.124
		c0.589-1.136,1.35-1.668,2.283-1.586l9.007,0.77c1.358,0.761,2.341,1.219,2.978,1.391c0.631,0.173,1.138,0.213,1.515,0.131
		c0.384-0.09,0.703-0.229,0.956-0.45c0.255-0.205,0.68-0.319,1.269-0.319c0.844,0,1.646,0.573,2.414,1.718
		c0.761,1.137,1.465,2.569,2.093,4.312c0.64,1.734,1.229,3.641,1.776,5.711c0.556,2.07,1.03,4.034,1.464,5.891
		c0.418,1.866,0.819,3.518,1.203,4.95c0.385,1.44,0.744,2.373,1.088,2.79c0,0.09,0.082,0.147,0.246,0.188
		c0.172,0.042,0.303,0.066,0.385,0.066c0.164,0,0.334-0.083,0.508-0.254c1.096-1.865,2.445-4.246,4.057-7.167
		c1.604-2.921,3.216-5.735,4.819-8.435c1.612-2.708,3.108-5,4.507-6.856c1.4-1.857,2.472-2.749,3.232-2.667
		c0.851,0.171,1.686,0,2.545-0.507c0.835-0.506,1.685-1.203,2.536-2.094c0.843-0.892,1.645-1.857,2.405-2.912
		c0.762-1.056,1.48-2.013,2.16-2.855h1.268c0.326,0,0.926-0.344,1.775-1.016c0.843-0.679,1.48-1.015,1.898-1.015
		c1.439,0,2.781,0.467,3.992,1.391c1.235,0.933,2.445,1.694,3.624,2.283c0.753,0.344,1.269,1.071,1.514,2.159
		c0.269,1.096,0.417,2.332,0.515,3.683c0.09,1.35,0.09,2.725,0,4.123c-0.098,1.407-0.123,2.569-0.123,3.494
		c0,0.508-0.064,1.588-0.195,3.241c-0.139,1.645-0.303,3.353-0.5,5.137c-0.213,1.768-0.481,3.354-0.769,4.754
		c-0.287,1.398-0.622,2.127-0.957,2.225l-9.892,38.174c0.174,0.427,0.124,1.532-0.131,3.298c-0.244,1.782-0.719,3.73-1.39,5.851
		c-0.335,0.841-0.704,1.644-1.08,2.405c-0.376,0.752-0.786,1.479-1.202,2.15c-0.427,0.761-0.998,1.424-1.711,1.98
		c-0.728,0.547-1.424,0.85-2.095,0.941c-0.515,0.088-0.956,0.605-1.333,1.521c-0.377,0.924-0.77,1.855-1.146,2.799
		c-0.375,0.916-0.711,1.709-1.006,2.338c-0.303,0.639-0.621,0.713-0.965,0.197c-0.082-0.091-0.246-0.574-0.508-1.465
		c-0.246-0.893-0.483-1.693-0.688-2.405c-0.212-0.72-0.318-1.112-0.318-1.21c-0.508-0.253-1.13-0.393-1.842-0.45
		c-0.72-0.032-1.414-0.056-2.094-0.056c-0.672,0-1.334-0.051-1.965-0.124c-0.637-0.09-1.17-0.353-1.586-0.777l-3.306-3.288
		c0-2.047,0.318-4.182,0.957-6.465c0.63-2.281,1.162-4.49,1.587-6.609c0.254-1.179,0.441-2.168,0.573-2.97
		c0.122-0.802,0.27-1.71,0.442-2.741c0.85-2.109,1.604-3.928,2.283-5.448c0.67-1.521,1.373-3.19,2.094-5.007
		c0.72-1.825,1.416-3.519,2.096-5.081c0.67-1.563,1.432-3.412,2.273-5.522c-0.081,0-0.457,0.49-1.137,1.465
		c-0.67,0.965-1.497,2.176-2.471,3.616c-0.974,1.433-2.012,3.003-3.108,4.688c-1.097,1.686-2.135,3.265-3.101,4.696
		c-0.982,1.439-1.801,2.635-2.479,3.601c-0.68,0.982-1.055,1.424-1.137,1.342c-0.852-0.327-1.825-0.417-2.921-0.253
		c-1.097,0.18-2.152,0.09-3.166-0.238c-0.941-0.334-2.136-0.621-3.617-0.851c-1.481-0.196-2.52-0.345-3.109-0.417
		c-1.268-1.03-2.176-2.152-2.725-3.371c-0.549-1.235-1.047-2.822-1.456-4.762c-0.425-2.037-1.063-4.065-1.906-6.086
		c-0.843-2.038-1.611-3.854-2.282-5.466c-0.589,0.941-1.121,2.185-1.596,3.748c-0.459,1.563-0.875,3.133-1.268,4.695
		c-0.377,1.563-0.754,3.003-1.138,4.313c-0.384,1.318-0.776,2.217-1.203,2.725c-0.516,0.589-0.915,1.465-1.211,2.602
		c-0.295,1.146-0.523,2.373-0.688,3.689c-0.18,1.294-0.343,2.594-0.507,3.863c-0.18,1.275-0.344,2.281-0.516,3.041
		c-0.59,2.465-1.137,4.764-1.645,6.9c-0.508,2.183-1.039,4.08-1.596,5.726c-0.549,1.653-1.088,2.961-1.645,3.935
		c-0.549,0.975-1.111,1.465-1.709,1.465c-1.178,0-2.136,0.238-2.855,0.697c-0.721,0.465-1.391,0.947-2.029,1.445
		c-0.638,0.518-1.309,1.031-2.029,1.54c-0.72,0.5-1.628,0.785-2.732,0.874l-8.493-4.318L97.218,115.244z"/>
	<path fill="#D4AF8E" d="M179.689,101.041c0.588-2.037,1.406-4.959,2.463-8.746c1.063-3.813,2.209-7.854,3.436-12.125
		c1.219-4.271,2.397-8.42,3.551-12.437c1.146-4.024,2.055-7.257,2.717-9.711c0.277-1.178,0.516-2.07,0.769-2.66
		c0.262-0.589,0.427-1.088,0.499-1.522c0.09-0.245,0.246-0.613,0.459-1.08c0.211-0.459,0.433-1.08,0.687-1.841l1.529-4.819
		c0.679-1.604,1.269-3.159,1.767-4.639c0.517-1.48,0.893-2.43,1.154-2.848c0-0.335,0.091-0.711,0.237-1.137
		c0.181-0.433,0.353-0.81,0.515-1.145c0.182-0.335,0.271-0.654,0.336-0.958c0.025-0.294-0.073-0.483-0.336-0.564
		c-0.661-0.253-1.438-0.483-2.281-0.704c-0.843-0.213-1.678-0.458-2.463-0.753c-0.818-0.302-1.48-0.638-2.037-1.023
		c-0.548-0.375-0.834-0.777-0.834-1.21c0-0.508-0.023-1.179-0.123-2.021c-0.091-0.852-0.106-1.661-0.057-2.414
		c0.032-0.761,0.212-1.415,0.515-1.972c0.286-0.54,0.817-0.778,1.571-0.696c4.484,0.254,8.125,0.589,10.906,1.015
		c2.797,0.426,5.408,1.187,7.878,2.283c0.679,0.508,1.465,0.925,2.341,1.268c0.883,0.344,1.677,0.852,2.356,1.531
		c0.933,0.834,1.873,1.62,2.839,2.339c0.982,0.721,1.809,1.293,2.479,1.719c0.507,0.417,0.876,0.761,1.089,1.005
		c0.211,0.262,0.375,0.517,0.515,0.77c0.114,0.253,0.286,0.548,0.498,0.892c0.205,0.335,0.574,0.72,1.064,1.137
		c0.94,0.852,2.119,1.564,3.511,2.152c1.391,0.597,2.479,1.399,3.23,2.414c3.551,4.656,6.227,9.687,8.059,15.103
		c1.825,5.417,2.766,10.906,2.855,16.486c0,2.028-0.278,4.058-0.817,6.088c-0.563,2.036-1.235,4.001-2.038,5.898
		c-0.8,1.915-1.693,3.756-2.674,5.522c-0.965,1.775-1.875,3.461-2.725,5.064c-1.358,2.299-3.125,4.305-5.317,6.047
		c-2.21,1.718-4.592,3.258-7.177,4.623c-2.585,1.359-5.178,2.569-7.797,3.625c-2.625,1.055-4.998,1.996-7.117,2.84
		c-0.418,0.178-1.113,0.449-2.079,0.834c-0.966,0.376-1.546,0.572-1.726,0.572l-20.929,0.892l-3.674-2.421
		c0.246-1.686,0.442-3.053,0.573-4.123c0.13-1.056,0.229-2.096,0.311-3.092c0.09-1.031,0.139-1.671,0.139-1.908L179.689,101.041z
		 M198.457,97.227c1.277-0.072,3.012-0.408,5.213-0.948c2.191-0.54,4.368-1.235,6.528-2.086c2.144-0.841,4.083-1.816,5.775-2.872
		c1.687-1.055,2.749-2.176,3.175-3.354l6.342-21.951l-9.01-15.348c-0.18-0.082-0.572-0.23-1.21-0.45
		c-0.63-0.205-1.08-0.393-1.325-0.565c-0.344-0.082-0.605-0.13-0.77-0.13c-0.073,0-0.253,0.049-0.498,0.13
		c-0.09,0.082-0.245,0.425-0.458,1.015c-0.212,0.588-0.409,1.097-0.572,1.521c-1.179,3.469-2.267,6.873-3.231,10.219
		c-0.967,3.337-1.964,6.7-2.994,10.079c-0.992,3.387-2.088,6.807-3.232,10.275c-1.139,3.47-2.414,7.021-3.87,10.662L198.457,97.227z
		"/>
	<path fill="#D4AF8E" d="M237.908,126.526c0-1.858,0.41-3.626,1.211-5.319c0.811-1.692,1.416-3.5,1.842-5.463
		c0.426-1.693,0.867-3.479,1.332-5.384c0.467-1.907,0.902-3.778,1.326-5.653c-0.146-0.091-0.359-0.238-0.572-0.508
		c-0.213-0.246-0.213-0.45-0.066-0.637c0-0.146,0.196-0.632,0.581-1.449c0.392-0.801,0.573-1.301,0.573-1.449
		c0.516-1.357,0.736-2.674,0.695-3.941c-0.033-1.27,0.147-2.619,0.573-4.067c0.426-1.342,0.997-3.289,1.726-5.833
		c0.721-2.537,1.4-5.09,2.078-7.676c0.688-2.576,1.318-4.924,1.907-7.035c0.589-2.119,0.966-3.469,1.146-4.058
		c0.334-0.932,0.711-2.201,1.137-3.813c0.418-1.611,0.826-3.297,1.21-5.072c0.377-1.775,0.704-3.485,0.95-5.138
		c0.26-1.653,0.391-2.938,0.391-3.87h-14.979c-0.924-0.506-1.513-0.851-1.775-1.015c-0.498-0.924-0.629-1.816-0.375-2.667
		c0.236-0.842,0.375-1.645,0.375-2.406c0-0.507-0.254-1.013-0.768-1.521c1.357-0.842,2.928-1.292,4.712-1.334
		c1.769-0.049,3.321-0.523,4.688-1.456v0.63c0.18-0.081,0.393-0.205,0.695-0.384c0.294-0.164,0.521-0.245,0.702-0.245
		c1.956-0.769,4.313-1.415,7.102-1.963c2.798-0.557,5.638-1.04,8.567-1.465c2.922-0.417,5.775-0.744,8.557-0.957
		c2.807-0.205,5.164-0.311,7.109-0.311c0.598,0,1.32,0.295,2.161,0.893c0.851,0.588,1.392,1.218,1.637,1.898h6.226
		c0.252,0.842,0.9,1.309,1.964,1.391c1.055,0.089,1.931,0.262,2.593,0.507c3.805,1.358,6.407,3.453,7.813,6.283
		c1.407,2.839,2.095,6.152,2.095,9.964c0,3.723-0.344,6.709-1.023,8.943c-0.663,2.241-1.644,4.181-2.913,5.834
		c-1.276,1.645-2.831,3.256-4.704,4.827c-1.842,1.563-3.96,3.566-6.342,6.013c0.344,0.434,0.768,0.77,1.269,1.023
		c0.517,0.245,0.998,0.539,1.466,0.884c0.465,0.344,0.924,0.761,1.34,1.268c0.427,0.508,0.764,1.268,1,2.274
		c0.605,1.693,1.056,3.657,1.406,5.85c0.328,2.185,0.499,3.764,0.499,4.695c0,0.238-0.017,0.533-0.056,0.82
		c-0.033,0.301-0.066,0.481-0.066,0.572s-0.204,0.45-0.63,1.088c-0.425,0.631-0.638,1.07-0.638,1.325v0.762v1.392v1.537v0.754
		c0,0.09-0.098,0.303-0.318,0.639c-0.213,0.334-0.417,0.693-0.63,1.07s-0.427,0.77-0.638,1.139
		c-0.213,0.391-0.319,0.628-0.319,0.702v0.499c-0.663,0.852-1.866,2.119-3.625,3.813c-1.718,1.688-3.593,3.381-5.556,5.074
		c-1.995,1.693-3.992,3.174-5.988,4.443c-1.981,1.266-3.56,1.904-4.738,1.904c-2.372,0.418-4.916,0.591-7.617,0.508
		c-2.724-0.09-5.497-0.252-8.369-0.508c-0.605-0.334-0.965-0.547-1.146-0.639c-0.335-0.424-0.548-0.636-0.638-0.636h-0.238
		c-0.352,0-0.85,0.187-1.545,0.515c-0.663,0.334-1.375,0.727-2.086,1.145c-0.721,0.418-1.385,0.836-1.973,1.26
		c-0.588,0.42-0.941,0.768-1.016,1.006c-0.09,0.099,0.123,0.476,0.631,1.155c-0.091,0.163-0.328,0.359-0.753,0.572
		c-0.441,0.213-0.63,0.393-0.63,0.574c-0.188,0.499-0.262,0.874-0.262,1.136c-1.105,0-2.119,0.212-3.033,0.631
		c-0.943,0.426-1.999,0.639-3.176,0.639c-1.875,0-3.021-0.656-3.445-1.964C238.139,129.219,237.908,127.892,237.908,126.526z
		 M245.918,93.685c-0.188,0-0.262,0.091-0.262,0.237c0,0.344,0.073,0.426,0.262,0.271C246.746,94.012,246.746,93.85,245.918,93.685z
		 M269.244,90.748c-0.245,0.099-0.662,0.875-1.268,2.365c-0.588,1.479-1.145,3.141-1.711,4.957
		c-0.555,1.809-1.038,3.525-1.465,5.188c-0.424,1.653-0.629,2.725-0.629,3.24c0,0.18,0.023,0.467,0.072,0.892
		c0.043,0.417,0.059,0.704,0.059,0.892c1.014-0.517,2.314-1.188,3.869-2.028c1.554-0.851,3.102-1.834,4.582-2.929
		c1.465-1.089,2.766-2.267,3.861-3.479c1.09-1.242,1.637-2.527,1.637-3.885c0-1.949-0.516-3.29-1.572-4.059
		c-1.055-0.762-2.601-1.139-4.637-1.139h-2.8L269.244,90.748L269.244,90.748z M286.753,55.739v-0.883
		c0-0.761-0.106-1.628-0.319-2.603c-0.204-0.965-0.661-1.457-1.324-1.457h-6.979c-0.328,0-0.852,0.818-1.514,2.471
		c-0.688,1.653-1.359,3.51-2.037,5.579c-0.68,2.078-1.268,4.067-1.768,5.965c-0.514,1.907-0.768,3.069-0.768,3.485
		c0.5,0,1.48-0.417,2.912-1.268c1.448-0.842,2.963-1.816,4.565-2.913c1.611-1.097,3.076-2.16,4.376-3.175
		c1.319-1.014,2.087-1.734,2.365-2.159c0.073-0.082,0.162-0.467,0.238-1.138c0.089-0.679,0.178-1.218,0.252-1.653L286.753,55.739
		L286.753,55.739z"/>
</g>
<g>
	<path fill="#D4AF8E" d="M43.94,163.587c0.054-0.287,0.125-0.635,0.216-1.039c0.09-0.405,0.117-0.761,0.081-1.066l0.189-1.863
		c0.036-0.432,0.099-0.778,0.189-1.04c0.09-0.26,0.135-0.57,0.135-0.931c-0.145,0-0.261-0.027-0.351-0.081
		c-0.09-0.055-0.189-0.063-0.297-0.027c-0.289,0.09-0.527,0.283-0.716,0.58c-0.189,0.298-0.311,0.581-0.364,0.851
		c-0.162,0.595-0.329,1.161-0.5,1.701c-0.171,0.54-0.32,1.188-0.446,1.944c-0.054,0.27-0.13,0.455-0.229,0.554
		s-0.211,0.157-0.337,0.175c-0.126,0.019-0.261,0.027-0.405,0.027c-0.126,0-0.252,0.036-0.378,0.108
		c-0.145,0.071-0.261,0.157-0.351,0.256c-0.09,0.1-0.176,0.194-0.257,0.284c-0.081,0.09-0.18,0.166-0.297,0.229
		c-0.117,0.063-0.266,0.094-0.445,0.094c-0.63,0-1.058-0.085-1.283-0.256s-0.337-0.563-0.337-1.175v-0.864
		c0.09-0.449,0.216-1.075,0.378-1.876s0.337-1.634,0.526-2.498c0.189-0.863,0.374-1.696,0.554-2.497
		c0.18-0.801,0.324-1.418,0.432-1.85c0.054-0.216,0.122-0.513,0.202-0.891c0.081-0.379,0.176-0.788,0.284-1.229
		c0.108-0.441,0.225-0.9,0.351-1.377c0.125-0.478,0.252-0.923,0.378-1.337s0.247-0.778,0.365-1.094
		c0.117-0.314,0.229-0.526,0.337-0.635l1.863-0.432c0.036,0,0.144-0.031,0.324-0.095c0.18-0.063,0.355-0.099,0.526-0.107
		c0.171-0.009,0.301,0.036,0.392,0.135c0.09,0.1,0.072,0.311-0.054,0.635c0.036,0.233,0.104,0.36,0.203,0.378
		c0.099,0.018,0.203,0.022,0.311,0.014s0.203,0.004,0.283,0.04c0.081,0.036,0.122,0.189,0.122,0.459
		c0,0.469-0.067,0.972-0.202,1.512c-0.135,0.54-0.194,1.009-0.176,1.404c0.018,0.324-0.032,0.721-0.148,1.188
		c-0.117,0.468-0.234,0.904-0.351,1.31c-0.117,0.404-0.189,0.733-0.216,0.985c-0.027,0.252,0.058,0.323,0.256,0.216
		c0.054,0,0.139,0.009,0.256,0.027c0.117,0.018,0.234,0.018,0.351,0c0.117-0.019,0.229-0.05,0.337-0.095
		c0.108-0.045,0.18-0.14,0.216-0.284l2.43-10.26l1.566-0.566c0.071-0.019,0.135,0.018,0.189,0.107
		c0.054,0.091,0.108,0.193,0.162,0.311c0.054,0.117,0.104,0.221,0.149,0.311c0.044,0.091,0.094,0.126,0.148,0.108
		c0.09-0.018,0.171-0.031,0.243-0.041c0.072-0.009,0.144-0.014,0.216-0.014c0.198,0,0.337,0.113,0.418,0.338
		c0.081,0.226,0.076,0.644-0.014,1.256c-0.036,0.233-0.022,0.414,0.041,0.54s0.135,0.233,0.216,0.323
		c0.081,0.091,0.158,0.181,0.23,0.271c0.071,0.09,0.108,0.216,0.108,0.378c0,0.504-0.095,1.071-0.284,1.701
		s-0.337,1.188-0.445,1.674l-0.324,1.539c-0.396,1.656-0.733,3.051-1.012,4.185c-0.279,1.135-0.522,2.115-0.729,2.943
		c-0.208,0.828-0.378,1.557-0.513,2.187c-0.135,0.631-0.256,1.278-0.365,1.944l0.135,1.107c0.018,0.09-0.005,0.171-0.067,0.242
		c-0.063,0.072-0.14,0.131-0.229,0.176c-0.09,0.045-0.171,0.085-0.243,0.122c-0.072,0.035-0.108,0.063-0.108,0.081
		c-0.126,0.323-0.261,0.549-0.405,0.675c-0.144,0.125-0.261,0.188-0.351,0.188h-0.162c-0.018-0.018-0.037-0.076-0.054-0.175
		c-0.018-0.1-0.032-0.212-0.041-0.338c-0.009-0.126-0.022-0.239-0.041-0.338s-0.036-0.157-0.054-0.175
		c-0.108-0.036-0.216-0.072-0.324-0.108s-0.216-0.036-0.324,0c-0.18,0.072-0.315,0.121-0.405,0.148
		c-0.09,0.027-0.243-0.031-0.459-0.176c-0.09-0.071-0.203-0.121-0.337-0.148c-0.135-0.026-0.261-0.067-0.378-0.121
		c-0.117-0.054-0.226-0.144-0.324-0.271C44.016,164.056,43.958,163.857,43.94,163.587z"/>
	<path fill="#D4AF8E" d="M52.391,160.645c-0.072-0.342-0.221-0.648-0.446-0.918c-0.225-0.271-0.418-0.55-0.581-0.838
		c-0.054-0.071-0.077-0.166-0.067-0.283c0.009-0.117,0.018-0.233,0.027-0.351s0.004-0.229-0.013-0.338
		c-0.018-0.107-0.09-0.18-0.216-0.216l-0.243-1.215l-0.135-0.081v-0.378c0-0.486,0.059-0.949,0.176-1.391
		c0.117-0.441,0.184-0.913,0.202-1.418c0.144-0.035,0.225-0.162,0.243-0.378c0.018-0.216,0.045-0.396,0.081-0.54
		c0.666-1.115,1.472-2.137,2.417-3.064c0.945-0.927,1.939-1.759,2.983-2.497c0.072-0.054,0.216-0.108,0.432-0.162
		s0.445-0.112,0.688-0.176c0.243-0.063,0.459-0.125,0.648-0.188s0.292-0.122,0.311-0.176h2.538c0.09,0.145,0.225,0.252,0.405,0.324
		c0.18,0.072,0.369,0.126,0.567,0.162c0.198,0.036,0.391,0.076,0.58,0.121s0.355,0.121,0.5,0.229
		c0.594,0.45,1.192,0.972,1.796,1.566c0.603,0.594,1.174,1.206,1.714,1.836c0.054,0.09,0.099,0.135,0.135,0.135
		c0.468,0.342,0.824,0.738,1.066,1.188c0.243,0.45,0.463,0.919,0.662,1.404c0.018,0.054,0.036,0.091,0.054,0.108
		c0.054,0.468,0.148,0.913,0.283,1.336c0.135,0.424,0.203,0.869,0.203,1.337c0,1.17-0.292,2.291-0.877,3.361
		c-0.585,1.071-1.354,2.003-2.309,2.795c-0.018,0-0.18,0.099-0.486,0.297c-0.306,0.198-0.653,0.423-1.04,0.675
		c-0.387,0.252-0.774,0.49-1.161,0.716c-0.387,0.225-0.68,0.364-0.877,0.418c-0.468,0.198-0.909,0.369-1.323,0.514
		c-0.415,0.144-0.945,0.216-1.593,0.216s-1.319-0.131-2.011-0.392c-0.693-0.261-1.368-0.594-2.025-0.999s-1.273-0.851-1.849-1.337
		C53.272,161.563,52.787,161.095,52.391,160.645z M54.983,156.162c0.018,0.036,0.063,0.095,0.135,0.176
		c0.071,0.081,0.117,0.131,0.135,0.148c0.036,0.126,0.108,0.274,0.216,0.445c0.108,0.171,0.171,0.274,0.189,0.311v0.188v0.324v0.352
		v0.188c0.036,0.234,0.117,0.414,0.243,0.54s0.274,0.234,0.446,0.324c0.17,0.09,0.346,0.171,0.526,0.243
		c0.18,0.072,0.333,0.171,0.459,0.297c0.072,0.09,0.18,0.157,0.324,0.202s0.301,0.091,0.473,0.135
		c0.171,0.046,0.342,0.081,0.513,0.108c0.171,0.027,0.319,0.067,0.445,0.121c0.018,0,0.063,0,0.135,0
		c0.071,0,0.152,0.005,0.243,0.014c0.09,0.01,0.18,0.014,0.27,0.014c0.09,0,0.162,0,0.216,0c0.198,0,0.526-0.049,0.985-0.148
		c0.459-0.099,0.927-0.233,1.404-0.405c0.477-0.171,0.905-0.364,1.283-0.58s0.594-0.441,0.648-0.675
		c0-0.036,0.004-0.117,0.014-0.243c0.009-0.126,0.018-0.266,0.027-0.419c0.009-0.152,0.018-0.297,0.027-0.432
		c0.009-0.135,0.014-0.229,0.014-0.283c0.18-0.09,0.274-0.229,0.283-0.419c0.009-0.188,0.095-0.319,0.257-0.392
		c0.108-0.342,0.171-0.621,0.189-0.837c0.018-0.216,0.027-0.459,0.027-0.729v-0.676c-0.252-0.359-0.463-0.688-0.634-0.985
		c-0.171-0.297-0.351-0.566-0.54-0.81s-0.41-0.468-0.662-0.675c-0.252-0.207-0.576-0.4-0.972-0.581
		c-0.108-0.054-0.175-0.099-0.202-0.135c-0.027-0.036-0.045-0.076-0.054-0.121c-0.009-0.045-0.018-0.09-0.027-0.136
		c-0.009-0.044-0.041-0.112-0.095-0.202c-0.054-0.071-0.14-0.121-0.256-0.148c-0.117-0.027-0.243-0.054-0.378-0.081
		c-0.135-0.027-0.261-0.063-0.378-0.108c-0.118-0.044-0.212-0.112-0.284-0.202h-2.025c-0.037,0.145-0.113,0.234-0.229,0.27
		c-0.117,0.037-0.203,0.127-0.257,0.271c-0.036,0.036-0.09,0.135-0.162,0.297c-0.072,0.162-0.126,0.262-0.162,0.297
		c-0.234-0.054-0.518,0.063-0.851,0.352s-0.657,0.63-0.972,1.025c-0.315,0.396-0.585,0.788-0.81,1.175
		c-0.226,0.388-0.338,0.652-0.338,0.797c0,0.252,0.045,0.477,0.135,0.675c0.09,0.198,0.135,0.396,0.135,0.594v0.324
		C55.019,156.072,54.983,156.145,54.983,156.162z M63.731,146.874c0.036,0,0.054,0.045,0.054,0.135c0,0.072-0.019,0.108-0.054,0.108
		c-0.09,0-0.135-0.036-0.135-0.108C63.596,146.919,63.641,146.874,63.731,146.874z"/>
	<path fill="#D4AF8E" d="M68.591,165.369l0.675-2.808c0.036-0.217,0.059-0.374,0.067-0.473c0.009-0.099,0.004-0.185-0.014-0.257
		c-0.018,0-0.018-0.018,0-0.054l4.266-13.23c0-0.018,0.004-0.049,0.014-0.095c0.009-0.044,0.013-0.085,0.013-0.121
		c-0.018-0.27-0.207-0.44-0.567-0.513c-0.36-0.072-0.752-0.117-1.174-0.135c-0.423-0.019-0.81-0.036-1.161-0.055
		c-0.351-0.018-0.518-0.107-0.5-0.27c0-0.036,0.049-0.072,0.148-0.108c0.099-0.036,0.148-0.099,0.148-0.188
		c0-0.036-0.063-0.081-0.189-0.136c-0.126-0.071-0.117-0.166,0.027-0.283s0.261-0.193,0.351-0.229
		c1.08-0.09,2.196-0.188,3.348-0.297c1.152-0.108,2.268-0.18,3.348-0.216l0.351-0.027c0.198,0,0.405-0.009,0.621-0.027
		c0.216-0.018,0.423-0.026,0.621-0.026l0.351-0.027c0.054,0.108,0.031,0.193-0.067,0.257c-0.099,0.063-0.167,0.117-0.203,0.162
		c-0.036,0.045,0.004,0.081,0.122,0.107c0.117,0.027,0.436,0.05,0.958,0.067c0.27,0.019,0.581,0.05,0.932,0.095
		c0.351,0.045,0.684,0.117,0.999,0.216c0.315,0.1,0.581,0.229,0.797,0.392c0.216,0.162,0.333,0.378,0.351,0.648
		c0.018,0.27,0.071,0.495,0.162,0.675c0.09,0.18,0.144,0.405,0.162,0.675c0.018,0.721-0.072,1.346-0.27,1.877
		c-0.198,0.531-0.459,0.999-0.783,1.403c-0.324,0.405-0.68,0.752-1.067,1.04s-0.76,0.545-1.12,0.77
		c-0.36,0.226-0.671,0.423-0.932,0.594c-0.261,0.172-0.428,0.338-0.5,0.5c0.09,0.432,0.198,0.922,0.324,1.471
		c0.126,0.55,0.243,1.112,0.351,1.688c0.108,0.577,0.203,1.139,0.284,1.688c0.081,0.55,0.13,1.04,0.148,1.472
		c0,0.091,0.022,0.284,0.067,0.581s0.077,0.571,0.095,0.823c0.018,0.324,0.004,0.594-0.041,0.81
		c-0.045,0.217-0.059,0.369-0.041,0.459c0,0.055-0.027,0.055-0.081,0c-0.054-0.054-0.122-0.094-0.203-0.121
		s-0.167-0.022-0.256,0.014c-0.09,0.036-0.171,0.162-0.243,0.378c-0.144,0.486-0.283,0.837-0.418,1.053
		c-0.135,0.216-0.266,0.36-0.392,0.433c-0.126,0.071-0.243,0.099-0.351,0.08c-0.108-0.018-0.216-0.026-0.324-0.026
		c-0.144,0-0.252-0.032-0.324-0.095c-0.072-0.063-0.131-0.145-0.176-0.243s-0.077-0.212-0.094-0.337
		c-0.019-0.127-0.054-0.253-0.108-0.378l-0.243-2.053c-0.162-0.647-0.293-1.318-0.392-2.011c-0.099-0.693-0.194-1.354-0.284-1.985
		c-0.09-0.63-0.185-1.191-0.283-1.688c-0.099-0.494-0.221-0.859-0.365-1.093c-0.018,0-0.059-0.005-0.122-0.014
		s-0.112-0.014-0.148-0.014c-0.234,0.019-0.396,0.1-0.486,0.243c-0.09,0.145-0.18,0.306-0.27,0.485
		c-0.09,0.199-0.216,0.469-0.378,0.811s-0.315,0.693-0.459,1.053c-0.072,0.181-0.135,0.347-0.189,0.5
		c-0.054,0.153-0.117,0.292-0.189,0.418c-0.09,0.271-0.18,0.514-0.27,0.729c-0.09,0.216-0.162,0.414-0.216,0.594
		c-0.072,0.198-0.153,0.45-0.243,0.756c-0.09,0.307-0.176,0.612-0.257,0.918c-0.081,0.307-0.158,0.576-0.229,0.811
		c-0.072,0.233-0.117,0.378-0.135,0.432c-0.036,0.09-0.077,0.145-0.122,0.162s-0.113,0.027-0.203,0.027
		c-0.072,0-0.211,0.004-0.418,0.013c-0.207,0.01-0.355,0.067-0.445,0.176c-0.162,0.108-0.275,0.229-0.337,0.364
		c-0.063,0.136-0.118,0.271-0.162,0.405c-0.045,0.135-0.095,0.252-0.148,0.351c-0.054,0.1-0.135,0.148-0.243,0.148
		s-0.162-0.071-0.162-0.216c0-0.126-0.045-0.188-0.135-0.188c-0.054,0-0.108,0.031-0.162,0.095
		c-0.054,0.063-0.099,0.125-0.135,0.188c-0.036,0.063-0.072,0.108-0.108,0.135c-0.036,0.027-0.054,0.014-0.054-0.04L68.591,165.369z
		 M78.743,148.278c-0.504,0-0.855,0.04-1.053,0.121c-0.198,0.081-0.347,0.239-0.446,0.473c-0.099,0.234-0.193,0.563-0.283,0.985
		c-0.09,0.423-0.279,0.968-0.567,1.634c0,0.018-0.041,0.14-0.122,0.364c-0.081,0.226-0.148,0.433-0.203,0.621
		c-0.054,0.189-0.09,0.302-0.108,0.338c0.396-0.145,0.837-0.338,1.323-0.581c0.486-0.243,0.94-0.513,1.364-0.81
		c0.423-0.297,0.778-0.621,1.066-0.973c0.288-0.351,0.423-0.706,0.405-1.066c-0.019-0.432-0.122-0.724-0.311-0.877
		s-0.545-0.221-1.067-0.203V148.278z"/>
	<path fill="#D4AF8E" d="M82.01,165.369l0.675-2.808c0.036-0.217,0.059-0.374,0.067-0.473c0.009-0.099,0.004-0.185-0.014-0.257
		c-0.018,0-0.018-0.018,0-0.054l4.266-13.23c0-0.018,0.004-0.049,0.014-0.095c0.009-0.044,0.013-0.085,0.013-0.121
		c-0.018-0.27-0.207-0.44-0.567-0.513c-0.36-0.072-0.752-0.117-1.174-0.135c-0.423-0.019-0.81-0.036-1.161-0.055
		c-0.351-0.018-0.518-0.107-0.5-0.27c0-0.036,0.049-0.072,0.148-0.108c0.099-0.036,0.148-0.099,0.148-0.188
		c0-0.036-0.063-0.081-0.189-0.136c-0.126-0.071-0.117-0.166,0.027-0.283s0.261-0.193,0.351-0.229
		c1.08-0.09,2.196-0.188,3.348-0.297c1.152-0.108,2.268-0.18,3.348-0.216l0.351-0.027c0.198,0,0.405-0.009,0.621-0.027
		c0.216-0.018,0.423-0.026,0.621-0.026l0.351-0.027c0.054,0.108,0.031,0.193-0.067,0.257c-0.099,0.063-0.167,0.117-0.203,0.162
		c-0.036,0.045,0.004,0.081,0.122,0.107c0.117,0.027,0.436,0.05,0.958,0.067c0.27,0.019,0.581,0.05,0.932,0.095
		c0.351,0.045,0.684,0.117,0.999,0.216c0.315,0.1,0.581,0.229,0.797,0.392c0.216,0.162,0.333,0.378,0.351,0.648
		c0.018,0.27,0.071,0.495,0.162,0.675c0.09,0.18,0.144,0.405,0.162,0.675c0.018,0.721-0.072,1.346-0.27,1.877
		c-0.198,0.531-0.459,0.999-0.783,1.403c-0.324,0.405-0.68,0.752-1.067,1.04s-0.76,0.545-1.12,0.77
		c-0.36,0.226-0.671,0.423-0.932,0.594c-0.261,0.172-0.428,0.338-0.5,0.5c0.09,0.432,0.198,0.922,0.324,1.471
		c0.126,0.55,0.243,1.112,0.351,1.688c0.108,0.577,0.203,1.139,0.284,1.688c0.081,0.55,0.13,1.04,0.148,1.472
		c0,0.091,0.022,0.284,0.067,0.581s0.077,0.571,0.095,0.823c0.018,0.324,0.004,0.594-0.041,0.81
		c-0.045,0.217-0.059,0.369-0.041,0.459c0,0.055-0.027,0.055-0.081,0c-0.054-0.054-0.122-0.094-0.203-0.121
		s-0.167-0.022-0.256,0.014c-0.09,0.036-0.171,0.162-0.243,0.378c-0.144,0.486-0.283,0.837-0.418,1.053
		c-0.135,0.216-0.266,0.36-0.392,0.433c-0.126,0.071-0.243,0.099-0.351,0.08c-0.108-0.018-0.216-0.026-0.324-0.026
		c-0.144,0-0.252-0.032-0.324-0.095c-0.072-0.063-0.131-0.145-0.176-0.243s-0.077-0.212-0.094-0.337
		c-0.019-0.127-0.054-0.253-0.108-0.378l-0.243-2.053c-0.162-0.647-0.293-1.318-0.392-2.011c-0.099-0.693-0.194-1.354-0.284-1.985
		c-0.09-0.63-0.185-1.191-0.283-1.688c-0.099-0.494-0.221-0.859-0.365-1.093c-0.018,0-0.059-0.005-0.122-0.014
		s-0.112-0.014-0.148-0.014c-0.234,0.019-0.396,0.1-0.486,0.243c-0.09,0.145-0.18,0.306-0.27,0.485
		c-0.09,0.199-0.216,0.469-0.378,0.811s-0.315,0.693-0.459,1.053c-0.072,0.181-0.135,0.347-0.189,0.5
		c-0.054,0.153-0.117,0.292-0.189,0.418c-0.09,0.271-0.18,0.514-0.27,0.729c-0.09,0.216-0.162,0.414-0.216,0.594
		c-0.072,0.198-0.153,0.45-0.243,0.756c-0.09,0.307-0.176,0.612-0.257,0.918c-0.081,0.307-0.158,0.576-0.229,0.811
		c-0.072,0.233-0.117,0.378-0.135,0.432c-0.036,0.09-0.077,0.145-0.122,0.162s-0.113,0.027-0.203,0.027
		c-0.072,0-0.211,0.004-0.418,0.013c-0.207,0.01-0.355,0.067-0.445,0.176c-0.162,0.108-0.275,0.229-0.337,0.364
		c-0.063,0.136-0.118,0.271-0.162,0.405c-0.045,0.135-0.095,0.252-0.148,0.351c-0.054,0.1-0.135,0.148-0.243,0.148
		s-0.162-0.071-0.162-0.216c0-0.126-0.045-0.188-0.135-0.188c-0.054,0-0.108,0.031-0.162,0.095
		c-0.054,0.063-0.099,0.125-0.135,0.188c-0.036,0.063-0.072,0.108-0.108,0.135c-0.036,0.027-0.054,0.014-0.054-0.04L82.01,165.369z
		 M92.162,148.278c-0.504,0-0.855,0.04-1.053,0.121c-0.198,0.081-0.347,0.239-0.446,0.473c-0.099,0.234-0.193,0.563-0.283,0.985
		c-0.09,0.423-0.279,0.968-0.567,1.634c0,0.018-0.041,0.14-0.122,0.364c-0.081,0.226-0.148,0.433-0.203,0.621
		c-0.054,0.189-0.09,0.302-0.108,0.338c0.396-0.145,0.837-0.338,1.323-0.581c0.486-0.243,0.94-0.513,1.364-0.81
		c0.423-0.297,0.778-0.621,1.066-0.973c0.288-0.351,0.423-0.706,0.405-1.066c-0.019-0.432-0.122-0.724-0.311-0.877
		s-0.545-0.221-1.067-0.203V148.278z"/>
	<path fill="#D4AF8E" d="M97.67,160.645c-0.072-0.342-0.221-0.648-0.446-0.918c-0.225-0.271-0.418-0.55-0.581-0.838
		c-0.054-0.071-0.077-0.166-0.067-0.283c0.009-0.117,0.018-0.233,0.027-0.351s0.004-0.229-0.013-0.338
		c-0.018-0.107-0.09-0.18-0.216-0.216l-0.243-1.215l-0.135-0.081v-0.378c0-0.486,0.059-0.949,0.176-1.391
		c0.117-0.441,0.184-0.913,0.202-1.418c0.144-0.035,0.225-0.162,0.243-0.378c0.018-0.216,0.045-0.396,0.081-0.54
		c0.666-1.115,1.472-2.137,2.417-3.064c0.945-0.927,1.939-1.759,2.983-2.497c0.072-0.054,0.216-0.108,0.432-0.162
		s0.445-0.112,0.688-0.176c0.243-0.063,0.459-0.125,0.648-0.188s0.292-0.122,0.311-0.176h2.538c0.09,0.145,0.225,0.252,0.405,0.324
		c0.18,0.072,0.369,0.126,0.567,0.162c0.198,0.036,0.391,0.076,0.58,0.121s0.355,0.121,0.5,0.229
		c0.594,0.45,1.192,0.972,1.796,1.566c0.603,0.594,1.174,1.206,1.714,1.836c0.054,0.09,0.099,0.135,0.135,0.135
		c0.468,0.342,0.824,0.738,1.066,1.188c0.243,0.45,0.463,0.919,0.662,1.404c0.018,0.054,0.036,0.091,0.054,0.108
		c0.054,0.468,0.148,0.913,0.283,1.336c0.135,0.424,0.203,0.869,0.203,1.337c0,1.17-0.292,2.291-0.877,3.361
		c-0.585,1.071-1.354,2.003-2.309,2.795c-0.018,0-0.18,0.099-0.486,0.297c-0.306,0.198-0.653,0.423-1.04,0.675
		c-0.387,0.252-0.774,0.49-1.161,0.716c-0.387,0.225-0.68,0.364-0.877,0.418c-0.468,0.198-0.909,0.369-1.323,0.514
		c-0.415,0.144-0.945,0.216-1.593,0.216s-1.319-0.131-2.011-0.392c-0.693-0.261-1.368-0.594-2.025-0.999s-1.273-0.851-1.849-1.337
		C98.551,161.563,98.065,161.095,97.67,160.645z M100.262,156.162c0.018,0.036,0.063,0.095,0.135,0.176
		c0.071,0.081,0.117,0.131,0.135,0.148c0.036,0.126,0.108,0.274,0.216,0.445c0.108,0.171,0.171,0.274,0.189,0.311v0.188v0.324v0.352
		v0.188c0.036,0.234,0.117,0.414,0.243,0.54s0.274,0.234,0.446,0.324c0.17,0.09,0.346,0.171,0.526,0.243
		c0.18,0.072,0.333,0.171,0.459,0.297c0.072,0.09,0.18,0.157,0.324,0.202s0.301,0.091,0.473,0.135
		c0.171,0.046,0.342,0.081,0.513,0.108c0.171,0.027,0.319,0.067,0.445,0.121c0.018,0,0.063,0,0.135,0
		c0.071,0,0.152,0.005,0.243,0.014c0.09,0.01,0.18,0.014,0.27,0.014c0.09,0,0.162,0,0.216,0c0.198,0,0.526-0.049,0.985-0.148
		c0.459-0.099,0.927-0.233,1.404-0.405c0.477-0.171,0.905-0.364,1.283-0.58s0.594-0.441,0.648-0.675
		c0-0.036,0.004-0.117,0.014-0.243c0.009-0.126,0.018-0.266,0.027-0.419c0.009-0.152,0.018-0.297,0.027-0.432
		c0.009-0.135,0.014-0.229,0.014-0.283c0.18-0.09,0.274-0.229,0.283-0.419c0.009-0.188,0.095-0.319,0.257-0.392
		c0.108-0.342,0.171-0.621,0.189-0.837c0.018-0.216,0.027-0.459,0.027-0.729v-0.676c-0.252-0.359-0.463-0.688-0.634-0.985
		c-0.171-0.297-0.351-0.566-0.54-0.81s-0.41-0.468-0.662-0.675c-0.252-0.207-0.576-0.4-0.972-0.581
		c-0.108-0.054-0.175-0.099-0.202-0.135c-0.027-0.036-0.045-0.076-0.054-0.121c-0.009-0.045-0.018-0.09-0.027-0.136
		c-0.009-0.044-0.041-0.112-0.095-0.202c-0.054-0.071-0.14-0.121-0.256-0.148c-0.117-0.027-0.243-0.054-0.378-0.081
		c-0.135-0.027-0.261-0.063-0.378-0.108c-0.118-0.044-0.212-0.112-0.284-0.202h-2.025c-0.037,0.145-0.113,0.234-0.229,0.27
		c-0.117,0.037-0.203,0.127-0.257,0.271c-0.036,0.036-0.09,0.135-0.162,0.297c-0.072,0.162-0.126,0.262-0.162,0.297
		c-0.234-0.054-0.518,0.063-0.851,0.352s-0.657,0.63-0.972,1.025c-0.315,0.396-0.585,0.788-0.81,1.175
		c-0.226,0.388-0.338,0.652-0.338,0.797c0,0.252,0.045,0.477,0.135,0.675c0.09,0.198,0.135,0.396,0.135,0.594v0.324
		C100.298,156.072,100.262,156.145,100.262,156.162z M109.01,146.874c0.036,0,0.054,0.045,0.054,0.135
		c0,0.072-0.019,0.108-0.054,0.108c-0.09,0-0.135-0.036-0.135-0.108C108.875,146.919,108.919,146.874,109.01,146.874z"/>
	<path fill="#D4AF8E" d="M113.87,165.369l0.675-2.808c0.036-0.217,0.059-0.374,0.067-0.473c0.009-0.099,0.004-0.185-0.014-0.257
		c-0.018,0-0.018-0.018,0-0.054l4.266-13.23c0-0.018,0.004-0.049,0.014-0.095c0.009-0.044,0.013-0.085,0.013-0.121
		c-0.018-0.27-0.207-0.44-0.567-0.513c-0.36-0.072-0.752-0.117-1.174-0.135c-0.423-0.019-0.81-0.036-1.161-0.055
		c-0.351-0.018-0.518-0.107-0.5-0.27c0-0.036,0.049-0.072,0.148-0.108c0.099-0.036,0.148-0.099,0.148-0.188
		c0-0.036-0.063-0.081-0.189-0.136c-0.126-0.071-0.117-0.166,0.027-0.283s0.261-0.193,0.351-0.229
		c1.08-0.09,2.196-0.188,3.348-0.297c1.152-0.108,2.268-0.18,3.348-0.216l0.351-0.027c0.198,0,0.405-0.009,0.621-0.027
		c0.216-0.018,0.423-0.026,0.621-0.026l0.351-0.027c0.054,0.108,0.031,0.193-0.067,0.257c-0.099,0.063-0.167,0.117-0.203,0.162
		c-0.036,0.045,0.004,0.081,0.122,0.107c0.117,0.027,0.436,0.05,0.958,0.067c0.27,0.019,0.581,0.05,0.932,0.095
		c0.351,0.045,0.684,0.117,0.999,0.216c0.315,0.1,0.581,0.229,0.797,0.392c0.216,0.162,0.333,0.378,0.351,0.648
		c0.018,0.27,0.071,0.495,0.162,0.675c0.09,0.18,0.144,0.405,0.162,0.675c0.018,0.721-0.072,1.346-0.27,1.877
		c-0.198,0.531-0.459,0.999-0.783,1.403c-0.324,0.405-0.68,0.752-1.067,1.04s-0.76,0.545-1.12,0.77
		c-0.36,0.226-0.671,0.423-0.932,0.594c-0.261,0.172-0.428,0.338-0.5,0.5c0.09,0.432,0.198,0.922,0.324,1.471
		c0.126,0.55,0.243,1.112,0.351,1.688c0.108,0.577,0.203,1.139,0.284,1.688c0.081,0.55,0.13,1.04,0.148,1.472
		c0,0.091,0.022,0.284,0.067,0.581s0.077,0.571,0.095,0.823c0.018,0.324,0.004,0.594-0.041,0.81
		c-0.045,0.217-0.059,0.369-0.041,0.459c0,0.055-0.027,0.055-0.081,0c-0.054-0.054-0.122-0.094-0.203-0.121
		s-0.167-0.022-0.256,0.014c-0.09,0.036-0.171,0.162-0.243,0.378c-0.144,0.486-0.283,0.837-0.418,1.053
		c-0.135,0.216-0.266,0.36-0.392,0.433c-0.126,0.071-0.243,0.099-0.351,0.08c-0.108-0.018-0.216-0.026-0.324-0.026
		c-0.144,0-0.252-0.032-0.324-0.095c-0.072-0.063-0.131-0.145-0.176-0.243s-0.077-0.212-0.094-0.337
		c-0.019-0.127-0.054-0.253-0.108-0.378l-0.243-2.053c-0.162-0.647-0.293-1.318-0.392-2.011c-0.099-0.693-0.194-1.354-0.284-1.985
		c-0.09-0.63-0.185-1.191-0.283-1.688c-0.099-0.494-0.221-0.859-0.365-1.093c-0.018,0-0.059-0.005-0.122-0.014
		s-0.112-0.014-0.148-0.014c-0.234,0.019-0.396,0.1-0.486,0.243c-0.09,0.145-0.18,0.306-0.27,0.485
		c-0.09,0.199-0.216,0.469-0.378,0.811s-0.315,0.693-0.459,1.053c-0.072,0.181-0.135,0.347-0.189,0.5
		c-0.054,0.153-0.117,0.292-0.189,0.418c-0.09,0.271-0.18,0.514-0.27,0.729c-0.09,0.216-0.162,0.414-0.216,0.594
		c-0.072,0.198-0.153,0.45-0.243,0.756c-0.09,0.307-0.176,0.612-0.257,0.918c-0.081,0.307-0.158,0.576-0.229,0.811
		c-0.072,0.233-0.117,0.378-0.135,0.432c-0.036,0.09-0.077,0.145-0.122,0.162s-0.113,0.027-0.203,0.027
		c-0.072,0-0.211,0.004-0.418,0.013c-0.207,0.01-0.355,0.067-0.445,0.176c-0.162,0.108-0.275,0.229-0.337,0.364
		c-0.063,0.136-0.118,0.271-0.162,0.405c-0.045,0.135-0.095,0.252-0.148,0.351c-0.054,0.1-0.135,0.148-0.243,0.148
		s-0.162-0.071-0.162-0.216c0-0.126-0.045-0.188-0.135-0.188c-0.054,0-0.108,0.031-0.162,0.095
		c-0.054,0.063-0.099,0.125-0.135,0.188c-0.036,0.063-0.072,0.108-0.108,0.135c-0.036,0.027-0.054,0.014-0.054-0.04L113.87,165.369z
		 M124.021,148.278c-0.504,0-0.855,0.04-1.053,0.121c-0.198,0.081-0.347,0.239-0.446,0.473c-0.099,0.234-0.193,0.563-0.283,0.985
		c-0.09,0.423-0.279,0.968-0.567,1.634c0,0.018-0.041,0.14-0.122,0.364c-0.081,0.226-0.148,0.433-0.203,0.621
		c-0.054,0.189-0.09,0.302-0.108,0.338c0.396-0.145,0.837-0.338,1.323-0.581c0.486-0.243,0.94-0.513,1.364-0.81
		c0.423-0.297,0.778-0.621,1.066-0.973c0.288-0.351,0.423-0.706,0.405-1.066c-0.019-0.432-0.122-0.724-0.311-0.877
		s-0.545-0.221-1.067-0.203V148.278z"/>
	<path fill="#D4AF8E" d="M133.525,164.073c0.054-0.342,0.108-0.756,0.162-1.242c0.054-0.486,0.112-0.968,0.175-1.444
		s0.144-0.892,0.243-1.242c0.099-0.351,0.22-0.563,0.364-0.635c0.144-0.071,0.243-0.193,0.297-0.364
		c0.054-0.171,0.09-0.364,0.108-0.58c0.018-0.217,0.036-0.428,0.054-0.635s0.063-0.382,0.135-0.526l2.16-9.181
		c0.09-0.144,0.175-0.404,0.256-0.782s0.175-0.766,0.283-1.161c0.108-0.396,0.234-0.738,0.378-1.026
		c0.144-0.287,0.324-0.423,0.54-0.405l2.052,0.189c0.306,0.198,0.535,0.315,0.688,0.351c0.153,0.037,0.27,0.046,0.351,0.027
		c0.081-0.018,0.153-0.054,0.216-0.108c0.063-0.054,0.158-0.08,0.284-0.08c0.198,0,0.382,0.121,0.553,0.364s0.329,0.554,0.473,0.932
		s0.279,0.792,0.405,1.241c0.125,0.45,0.238,0.883,0.337,1.297c0.099,0.414,0.189,0.778,0.27,1.093
		c0.081,0.315,0.157,0.526,0.229,0.635c0,0.019,0.018,0.031,0.054,0.041c0.036,0.009,0.063,0.013,0.081,0.013
		c0.054,0,0.099-0.018,0.135-0.054c0.252-0.449,0.553-0.999,0.904-1.646c0.351-0.648,0.702-1.26,1.053-1.837
		c0.351-0.575,0.684-1.066,0.999-1.471c0.314-0.405,0.553-0.59,0.715-0.554c0.18,0.036,0.369-0.009,0.567-0.135
		c0.198-0.126,0.392-0.298,0.581-0.514s0.374-0.449,0.554-0.702c0.18-0.251,0.351-0.485,0.513-0.701h0.271
		c0.035,0,0.103-0.022,0.202-0.068c0.099-0.044,0.202-0.094,0.311-0.148c0.108-0.054,0.211-0.103,0.311-0.148
		c0.099-0.044,0.166-0.067,0.202-0.067c0.324,0,0.63,0.108,0.918,0.324s0.567,0.396,0.837,0.54c0.162,0.09,0.261,0.266,0.297,0.526
		c0.036,0.262,0.045,0.559,0.027,0.891c-0.018,0.334-0.05,0.671-0.095,1.013c-0.045,0.343-0.067,0.621-0.067,0.837
		c0,0.127-0.014,0.388-0.04,0.783c-0.027,0.396-0.067,0.806-0.122,1.229c-0.054,0.423-0.117,0.806-0.188,1.147
		c-0.072,0.343-0.145,0.522-0.216,0.54l-2.269,9.207c0.036,0.126,0.022,0.405-0.04,0.837c-0.063,0.433-0.167,0.9-0.311,1.404
		c-0.072,0.198-0.153,0.392-0.243,0.58c-0.09,0.189-0.18,0.365-0.27,0.526c-0.108,0.181-0.198,0.334-0.27,0.459
		c-0.072,0.127-0.18,0.208-0.324,0.243c-0.108,0.019-0.207,0.136-0.297,0.352c-0.09,0.216-0.175,0.441-0.256,0.675
		s-0.162,0.423-0.243,0.567c-0.081,0.144-0.158,0.161-0.229,0.054c-0.018-0.019-0.059-0.135-0.122-0.352
		c-0.063-0.216-0.117-0.404-0.162-0.566c-0.045-0.162-0.068-0.261-0.068-0.297c-0.126-0.055-0.27-0.086-0.432-0.095
		c-0.162-0.009-0.324-0.014-0.486-0.014s-0.315-0.014-0.459-0.04c-0.144-0.027-0.261-0.095-0.351-0.203l-0.729-0.783
		c0-0.503,0.072-1.029,0.216-1.579c0.144-0.549,0.261-1.084,0.351-1.606c0.054-0.27,0.099-0.504,0.135-0.702
		c0.036-0.197,0.072-0.423,0.108-0.675c0.198-0.504,0.369-0.94,0.513-1.31c0.144-0.369,0.306-0.77,0.486-1.201
		c0.18-0.433,0.342-0.837,0.486-1.215c0.144-0.379,0.265-0.693,0.364-0.945c0.099-0.252,0.148-0.387,0.148-0.405
		c-0.018,0-0.108,0.117-0.27,0.352c-0.162,0.233-0.355,0.53-0.581,0.891s-0.468,0.747-0.729,1.161s-0.509,0.801-0.742,1.161
		c-0.234,0.36-0.432,0.652-0.594,0.877c-0.162,0.226-0.252,0.338-0.27,0.338c-0.198-0.09-0.405-0.126-0.621-0.108
		c-0.216,0.019-0.441-0.018-0.675-0.107c-0.216-0.09-0.491-0.157-0.823-0.203c-0.333-0.045-0.572-0.085-0.716-0.121
		c-0.306-0.233-0.522-0.495-0.648-0.783s-0.234-0.666-0.324-1.134c-0.09-0.504-0.23-0.999-0.419-1.485
		c-0.189-0.485-0.364-0.927-0.526-1.323c-0.126,0.217-0.243,0.514-0.351,0.892s-0.207,0.756-0.297,1.134
		c-0.09,0.378-0.18,0.729-0.27,1.053c-0.09,0.324-0.18,0.55-0.27,0.676c-0.108,0.144-0.198,0.351-0.27,0.62
		c-0.072,0.271-0.131,0.563-0.175,0.878c-0.045,0.315-0.086,0.626-0.122,0.932c-0.036,0.306-0.072,0.549-0.108,0.729
		c-0.126,0.595-0.252,1.152-0.378,1.675c-0.126,0.521-0.248,0.98-0.365,1.377c-0.117,0.396-0.243,0.715-0.378,0.958
		c-0.135,0.243-0.266,0.364-0.392,0.364c-0.27,0-0.491,0.055-0.662,0.162c-0.171,0.108-0.329,0.226-0.472,0.352
		c-0.145,0.125-0.297,0.247-0.459,0.364c-0.162,0.117-0.369,0.185-0.621,0.202l-1.593-0.999L133.525,164.073z"/>
	<path fill="#D4AF8E" d="M154.314,160.645c-0.072-0.342-0.221-0.648-0.445-0.918c-0.226-0.271-0.418-0.55-0.58-0.838
		c-0.055-0.071-0.077-0.166-0.067-0.283c0.009-0.117,0.018-0.233,0.026-0.351s0.005-0.229-0.014-0.338
		c-0.018-0.107-0.09-0.18-0.216-0.216l-0.243-1.215l-0.135-0.081v-0.378c0-0.486,0.059-0.949,0.176-1.391s0.185-0.913,0.202-1.418
		c0.145-0.035,0.225-0.162,0.243-0.378c0.018-0.216,0.045-0.396,0.081-0.54c0.666-1.115,1.472-2.137,2.417-3.064
		c0.944-0.927,1.938-1.759,2.983-2.497c0.071-0.054,0.216-0.108,0.432-0.162s0.445-0.112,0.688-0.176
		c0.243-0.063,0.459-0.125,0.648-0.188c0.188-0.063,0.292-0.122,0.311-0.176h2.537c0.09,0.145,0.226,0.252,0.405,0.324
		s0.369,0.126,0.567,0.162c0.197,0.036,0.392,0.076,0.58,0.121c0.189,0.045,0.355,0.121,0.5,0.229
		c0.594,0.45,1.192,0.972,1.795,1.566c0.604,0.594,1.175,1.206,1.715,1.836c0.054,0.09,0.099,0.135,0.135,0.135
		c0.468,0.342,0.823,0.738,1.066,1.188c0.243,0.45,0.464,0.919,0.662,1.404c0.018,0.054,0.035,0.091,0.054,0.108
		c0.054,0.468,0.148,0.913,0.283,1.336c0.135,0.424,0.203,0.869,0.203,1.337c0,1.17-0.293,2.291-0.878,3.361
		c-0.585,1.071-1.354,2.003-2.309,2.795c-0.018,0-0.18,0.099-0.486,0.297c-0.306,0.198-0.652,0.423-1.039,0.675
		c-0.388,0.252-0.774,0.49-1.161,0.716c-0.387,0.225-0.68,0.364-0.877,0.418c-0.469,0.198-0.909,0.369-1.323,0.514
		c-0.414,0.144-0.945,0.216-1.593,0.216c-0.648,0-1.319-0.131-2.012-0.392c-0.693-0.261-1.368-0.594-2.025-0.999
		s-1.273-0.851-1.85-1.337C155.196,161.563,154.711,161.095,154.314,160.645z M156.907,156.162c0.018,0.036,0.063,0.095,0.135,0.176
		c0.071,0.081,0.116,0.131,0.135,0.148c0.036,0.126,0.108,0.274,0.216,0.445c0.108,0.171,0.171,0.274,0.189,0.311v0.188v0.324v0.352
		v0.188c0.035,0.234,0.116,0.414,0.243,0.54c0.125,0.126,0.273,0.234,0.445,0.324c0.171,0.09,0.346,0.171,0.526,0.243
		c0.18,0.072,0.333,0.171,0.459,0.297c0.071,0.09,0.18,0.157,0.324,0.202c0.144,0.045,0.301,0.091,0.473,0.135
		c0.171,0.046,0.341,0.081,0.513,0.108c0.171,0.027,0.319,0.067,0.445,0.121c0.018,0,0.063,0,0.135,0s0.153,0.005,0.243,0.014
		c0.09,0.01,0.18,0.014,0.271,0.014c0.09,0,0.161,0,0.216,0c0.197,0,0.526-0.049,0.985-0.148c0.459-0.099,0.927-0.233,1.404-0.405
		c0.477-0.171,0.904-0.364,1.282-0.58s0.594-0.441,0.647-0.675c0-0.036,0.005-0.117,0.014-0.243s0.018-0.266,0.027-0.419
		c0.009-0.152,0.018-0.297,0.027-0.432c0.009-0.135,0.013-0.229,0.013-0.283c0.18-0.09,0.274-0.229,0.284-0.419
		c0.009-0.188,0.094-0.319,0.256-0.392c0.108-0.342,0.171-0.621,0.189-0.837c0.018-0.216,0.027-0.459,0.027-0.729v-0.676
		c-0.253-0.359-0.464-0.688-0.635-0.985c-0.172-0.297-0.352-0.566-0.54-0.81c-0.189-0.243-0.41-0.468-0.662-0.675
		s-0.576-0.4-0.972-0.581c-0.107-0.054-0.176-0.099-0.202-0.135c-0.027-0.036-0.045-0.076-0.054-0.121
		c-0.01-0.045-0.019-0.09-0.027-0.136c-0.01-0.044-0.041-0.112-0.095-0.202c-0.054-0.071-0.14-0.121-0.257-0.148
		s-0.242-0.054-0.378-0.081c-0.135-0.027-0.261-0.063-0.378-0.108c-0.117-0.044-0.212-0.112-0.283-0.202h-2.025
		c-0.036,0.145-0.112,0.234-0.229,0.27c-0.117,0.037-0.202,0.127-0.256,0.271c-0.036,0.036-0.091,0.135-0.162,0.297
		c-0.072,0.162-0.126,0.262-0.162,0.297c-0.234-0.054-0.518,0.063-0.851,0.352s-0.657,0.63-0.972,1.025
		c-0.315,0.396-0.585,0.788-0.811,1.175c-0.225,0.388-0.337,0.652-0.337,0.797c0,0.252,0.044,0.477,0.135,0.675
		c0.09,0.198,0.135,0.396,0.135,0.594v0.324C156.942,156.072,156.907,156.145,156.907,156.162z M165.655,146.874
		c0.035,0,0.054,0.045,0.054,0.135c0,0.072-0.019,0.108-0.054,0.108c-0.091,0-0.136-0.036-0.136-0.108
		C165.52,146.919,165.564,146.874,165.655,146.874z"/>
	<path fill="#D4AF8E" d="M171.541,147.171c0-0.144,0.031-0.243,0.095-0.297c0.063-0.054,0.144-0.095,0.243-0.121
		c0.099-0.027,0.202-0.055,0.311-0.081c0.107-0.027,0.206-0.086,0.297-0.176c0.197-0.252,0.396-0.414,0.594-0.486
		c0.198-0.071,0.396-0.107,0.594-0.107h0.864c0.342,0.198,0.607,0.495,0.797,0.891c0.188,0.396,0.337,0.828,0.445,1.296
		c0.108,0.469,0.193,0.941,0.257,1.418c0.063,0.477,0.139,0.877,0.229,1.201c0.054,0.162,0.157,0.526,0.311,1.094
		c0.152,0.566,0.323,1.179,0.513,1.836c0.188,0.657,0.368,1.296,0.54,1.917c0.171,0.621,0.292,1.076,0.364,1.363
		c0.018,0.072,0.054,0.198,0.108,0.378c0.054,0.181,0.099,0.297,0.135,0.352c0.126-0.036,0.207-0.117,0.243-0.243
		c0.054-0.126,0.148-0.477,0.283-1.053s0.292-1.26,0.473-2.053c0.18-0.792,0.378-1.629,0.594-2.511s0.432-1.701,0.648-2.457
		c0.216-0.756,0.418-1.386,0.607-1.89c0.188-0.504,0.346-0.774,0.473-0.811c0.306,0.055,0.63,0.055,0.972,0
		c0.342-0.054,0.679-0.125,1.013-0.216c0.333-0.09,0.652-0.18,0.958-0.27s0.576-0.136,0.811-0.136c0.197,0,0.351,0.077,0.459,0.229
		c0.107,0.153,0.162,0.32,0.162,0.5c0,0.018-0.005,0.04-0.014,0.067c-0.01,0.027-0.014,0.05-0.014,0.067
		c-0.45,1.404-0.864,2.79-1.242,4.158s-0.77,2.727-1.175,4.077c-0.404,1.35-0.846,2.695-1.322,4.036
		c-0.478,1.341-1.04,2.678-1.688,4.01c-0.108,0.234-0.203,0.495-0.284,0.783s-0.238,0.504-0.472,0.647
		c-0.738-0.107-1.319-0.095-1.742,0.041c-0.423,0.135-0.68,0.202-0.77,0.202c-0.288,0-0.563-0.059-0.823-0.176
		c-0.261-0.116-0.464-0.301-0.607-0.553c-0.198-0.342-0.307-0.693-0.324-1.054c-0.018-0.359-0.081-0.72-0.188-1.08
		c-0.307-1.17-0.599-2.33-0.878-3.482s-0.563-2.313-0.851-3.483c-0.145-0.611-0.328-1.242-0.554-1.89
		c-0.225-0.648-0.445-1.31-0.661-1.984c-0.216-0.676-0.4-1.346-0.554-2.012S171.541,147.802,171.541,147.171z"/>
	<path fill="#D4AF8E" d="M185.554,163.236c0-0.036,0.005-0.126,0.014-0.271c0.01-0.144,0.005-0.233-0.014-0.27l0.918-4.833
		c-0.036-0.126-0.063-0.279-0.081-0.459c-0.018-0.18-0.022-0.364-0.013-0.554c0.009-0.189,0.026-0.373,0.054-0.554
		c0.027-0.18,0.059-0.333,0.095-0.459c0.27-0.827,0.526-1.705,0.77-2.632c0.242-0.928,0.49-1.877,0.742-2.849
		c0.252-0.973,0.521-1.948,0.81-2.93s0.595-1.931,0.918-2.849c0.09-0.252,0.162-0.423,0.217-0.513
		c0.054-0.09,0.225-0.153,0.513-0.189c0.036,0,0.104-0.031,0.202-0.095c0.099-0.063,0.203-0.116,0.311-0.162
		c0.108-0.044,0.198-0.063,0.271-0.054c0.071,0.01,0.099,0.086,0.081,0.229l-0.189,1.972c0.108,0.09,0.252,0.157,0.432,0.202
		c0.181,0.045,0.342,0.095,0.486,0.148c0.144,0.054,0.243,0.121,0.297,0.202c0.055,0.081,0.009,0.203-0.135,0.365
		c-0.162,0.972-0.36,1.943-0.594,2.916c-0.234,0.972-0.424,1.862-0.567,2.673c-0.216,1.35-0.409,2.785-0.58,4.307
		c-0.172,1.521-0.392,2.956-0.662,4.306c-0.036,0.108-0.085,0.198-0.148,0.271c-0.063,0.072-0.135,0.14-0.216,0.202
		c-0.081,0.063-0.157,0.145-0.229,0.243c-0.072,0.1-0.135,0.239-0.188,0.419c-0.162,0.504-0.262,0.927-0.298,1.269
		s-0.117,0.594-0.242,0.756l-1.27,0.459c-0.036,0.019-0.067-0.045-0.095-0.188c-0.026-0.145-0.076-0.216-0.148-0.216
		c-0.144,0.161-0.297,0.202-0.459,0.121s-0.27-0.221-0.323-0.419c-0.037-0.035-0.063-0.054-0.081-0.054
		c-0.091,0-0.185,0.014-0.284,0.041c-0.099,0.026-0.157-0.031-0.175-0.176L185.554,163.236z"/>
	<path fill="#D4AF8E" d="M191.709,163.182l0.027-0.08c0.145-0.055,0.266-0.126,0.364-0.217c0.099-0.09,0.148-0.152,0.148-0.188
		l-0.161-0.514c0.054-0.233,0.13-0.598,0.229-1.093c0.099-0.495,0.216-1.054,0.351-1.674c0.135-0.621,0.274-1.27,0.419-1.944
		c0.144-0.675,0.283-1.318,0.418-1.931c0.135-0.611,0.261-1.161,0.378-1.646c0.117-0.486,0.212-0.847,0.283-1.08
		c0.019-0.055,0.045-0.229,0.081-0.526c0.036-0.298,0.081-0.617,0.136-0.959c0.054-0.342,0.103-0.657,0.148-0.945
		c0.044-0.287,0.085-0.459,0.121-0.513c0.054-0.162,0.157-0.437,0.311-0.823c0.152-0.387,0.301-0.783,0.445-1.188
		c0.145-0.404,0.257-0.77,0.338-1.094c0.081-0.323,0.067-0.485-0.041-0.485c-0.018,0-0.059-0.018-0.121-0.054
		c-0.063-0.036-0.126-0.077-0.189-0.122c-0.063-0.045-0.107-0.095-0.135-0.148c-0.026-0.054-0.014-0.099,0.041-0.135
		c0.162-0.145,0.544-0.243,1.147-0.297c0.603-0.055,1.255-0.081,1.957-0.081s1.359,0.009,1.971,0.026
		c0.612,0.019,1.009,0.037,1.188,0.055l0.648,0.054c0.341,0.019,0.688,0.081,1.039,0.189c0.351,0.107,0.625,0.314,0.823,0.62
		c0.18,0.271,0.36,0.45,0.54,0.54c0.18,0.091,0.324,0.207,0.433,0.352c0.233,0.378,0.341,0.801,0.323,1.269
		c0,0.019-0.009,0.045-0.026,0.081c-0.036,0.036-0.091,0.1-0.162,0.189c-0.072,0.09-0.148,0.18-0.229,0.27
		c-0.081,0.091-0.162,0.176-0.243,0.257s-0.148,0.131-0.202,0.148c-0.091,0.019-0.194,0.009-0.311-0.027
		c-0.117-0.035-0.234-0.067-0.352-0.094c-0.117-0.027-0.229-0.036-0.337-0.027c-0.108,0.009-0.189,0.05-0.243,0.121
		c-0.054,0.091-0.248,0.153-0.581,0.189s-0.729,0.059-1.188,0.067s-0.94,0.014-1.444,0.014c-0.486,0-0.918,0.009-1.296,0.026
		c-0.037,0.091-0.081,0.253-0.136,0.486c-0.054,0.234-0.117,0.504-0.188,0.811c-0.072,0.306-0.148,0.625-0.229,0.958
		s-0.158,0.635-0.229,0.904l-0.027,0.135c0.018,0.019,0.054,0.055,0.108,0.108c0.054,0.054,0.099,0.091,0.135,0.108
		c0.233,0.018,0.513,0.045,0.837,0.081s0.652,0.081,0.985,0.135s0.662,0.117,0.985,0.188c0.324,0.072,0.604,0.162,0.837,0.271
		c0.09,0.054,0.145,0.14,0.162,0.257s0.027,0.247,0.027,0.391c-0.019,0.091-0.022,0.194-0.014,0.311
		c0.009,0.117,0.041,0.212,0.095,0.284c0.144,0.216,0.266,0.378,0.364,0.485c0.099,0.108,0.238,0.262,0.419,0.459
		c0.054,0.072,0.004,0.148-0.148,0.229c-0.153,0.081-0.334,0.158-0.54,0.229c-0.207,0.072-0.41,0.131-0.607,0.176
		c-0.198,0.045-0.315,0.067-0.352,0.067c-0.162,0.019-0.445,0.041-0.851,0.067c-0.404,0.027-0.837,0.055-1.296,0.081
		c-0.459,0.027-0.891,0.055-1.296,0.081c-0.405,0.027-0.688,0.041-0.851,0.041l-0.378,0.513l-0.837,3.321
		c0,0.18,0.144,0.292,0.432,0.337c0.288,0.046,0.639,0.067,1.054,0.067c0.413,0,0.846-0.009,1.296-0.026
		c0.449-0.018,0.837,0,1.161,0.054c0.071,0,0.166,0.063,0.283,0.189s0.238,0.274,0.364,0.445s0.238,0.347,0.338,0.526
		c0.099,0.18,0.166,0.324,0.202,0.432v0.136c-0.018,0.216-0.126,0.437-0.324,0.661c-0.198,0.226-0.495,0.364-0.891,0.418
		c-0.504,0.091-1.134,0.153-1.89,0.189c-0.757,0.036-1.485,0.054-2.188,0.054s-1.31-0.004-1.822-0.014
		c-0.513-0.009-0.779-0.013-0.797-0.013c-0.306-0.036-0.594-0.158-0.863-0.365C191.817,163.826,191.691,163.542,191.709,163.182z"/>
	<path fill="#D4AF8E" d="M210.177,161.265c0.126-0.468,0.319-1.138,0.58-2.011s0.54-1.796,0.837-2.768
		c0.298-0.973,0.585-1.917,0.864-2.835s0.509-1.665,0.688-2.241c0.072-0.252,0.131-0.45,0.176-0.594
		c0.045-0.145,0.085-0.252,0.121-0.324s0.072-0.162,0.108-0.271c0.036-0.107,0.09-0.251,0.162-0.432l0.404-1.053
		c0.145-0.378,0.279-0.733,0.405-1.066s0.216-0.563,0.271-0.688c0-0.162,0.058-0.342,0.175-0.54s0.131-0.315,0.041-0.352
		c-0.145-0.054-0.307-0.112-0.486-0.175c-0.18-0.063-0.36-0.131-0.54-0.203c-0.18-0.071-0.328-0.152-0.445-0.243
		c-0.117-0.09-0.176-0.188-0.176-0.297c0-0.125-0.004-0.283-0.013-0.473c-0.01-0.188-0.005-0.373,0.013-0.553
		s0.063-0.328,0.136-0.446c0.071-0.116,0.18-0.166,0.323-0.148c0.973,0.091,1.769,0.198,2.39,0.324s1.192,0.333,1.715,0.621
		c0.144,0.091,0.314,0.181,0.513,0.271s0.36,0.207,0.486,0.351c0.197,0.216,0.4,0.419,0.607,0.607
		c0.207,0.189,0.373,0.329,0.499,0.419c0.108,0.09,0.185,0.171,0.229,0.242c0.045,0.072,0.081,0.14,0.108,0.203
		s0.063,0.131,0.108,0.202c0.044,0.072,0.121,0.162,0.229,0.271c0.197,0.216,0.44,0.404,0.729,0.566s0.521,0.369,0.702,0.621
		c0.756,1.08,1.305,2.255,1.646,3.523c0.342,1.27,0.495,2.552,0.459,3.848c-0.018,0.469-0.094,0.932-0.229,1.391
		c-0.135,0.459-0.297,0.904-0.485,1.336c-0.189,0.433-0.396,0.851-0.621,1.256c-0.226,0.405-0.437,0.788-0.635,1.147
		c-0.306,0.54-0.706,1.009-1.201,1.404s-1.031,0.738-1.606,1.025c-0.576,0.289-1.157,0.54-1.741,0.757
		c-0.586,0.216-1.112,0.414-1.58,0.594c-0.054,0.018-0.121,0.045-0.202,0.081s-0.167,0.067-0.257,0.095
		c-0.09,0.026-0.207,0.059-0.351,0.094h-4.591l-0.81-0.54c0.072-0.396,0.131-0.72,0.176-0.972s0.085-0.49,0.121-0.716
		c0.036-0.225,0.054-0.373,0.054-0.445L210.177,161.265z M214.254,160.563c0.287,0,0.675-0.055,1.161-0.162
		c0.485-0.108,0.967-0.252,1.444-0.433c0.477-0.18,0.904-0.387,1.282-0.621c0.378-0.233,0.611-0.485,0.702-0.756l1.565-4.995
		l-1.836-3.645c-0.018-0.018-0.094-0.059-0.229-0.121c-0.135-0.063-0.238-0.112-0.311-0.149c-0.071-0.018-0.126-0.026-0.161-0.026
		c-0.019,0-0.055,0.009-0.108,0.026c-0.019,0.019-0.059,0.095-0.121,0.229c-0.063,0.136-0.113,0.239-0.149,0.311
		c-0.27,0.793-0.526,1.576-0.769,2.35c-0.243,0.774-0.491,1.548-0.743,2.322c-0.252,0.773-0.518,1.557-0.796,2.349
		c-0.279,0.792-0.59,1.603-0.932,2.43V160.563z"/>
	<path fill="#D4AF8E" d="M228.227,159.996c-0.243,0.036-0.446,0.108-0.607,0.216c-0.324,0.216-0.577,0.526-0.757,0.932
		s-0.342,0.788-0.485,1.147c-0.145,0.36-0.302,0.644-0.473,0.851s-0.4,0.229-0.688,0.067c-0.091-0.054-0.221-0.04-0.392,0.041
		s-0.302,0.076-0.392-0.014c-0.198-0.198-0.373-0.36-0.526-0.486c-0.152-0.126-0.229-0.297-0.229-0.513
		c0-0.018,0.022-0.076,0.067-0.176c0.045-0.099,0.1-0.202,0.162-0.311c0.063-0.107,0.117-0.207,0.162-0.297s0.067-0.144,0.067-0.162
		c0-0.054-0.009-0.126-0.027-0.216c-0.018-0.09-0.04-0.18-0.067-0.271c-0.026-0.09-0.054-0.18-0.081-0.27
		c-0.026-0.09-0.04-0.152-0.04-0.189l2.835-5.211c-0.036-0.18-0.086-0.337-0.148-0.472c-0.063-0.136-0.077-0.274-0.041-0.419
		c0.055-0.233,0.157-0.481,0.311-0.742s0.284-0.5,0.392-0.716c0.108-0.198,0.297-0.594,0.567-1.188
		c0.27-0.594,0.558-1.232,0.864-1.917c0.306-0.684,0.598-1.331,0.877-1.943s0.481-1.026,0.607-1.242
		c0.198-0.359,0.459-0.648,0.783-0.864s0.692-0.324,1.107-0.324c0.107,0.091,0.166,0.172,0.175,0.243
		c0.009,0.072,0.018,0.136,0.027,0.189c0.009,0.054,0.045,0.107,0.107,0.162c0.063,0.054,0.203,0.09,0.419,0.107
		c0.324,0.324,0.58,0.698,0.77,1.121s0.347,0.859,0.473,1.31s0.216,0.9,0.27,1.35c0.055,0.45,0.108,0.864,0.162,1.242
		c0.018,0.145,0.018,0.324,0,0.54s-0.026,0.342-0.026,0.378l-1.998,7.722c0.018,0.271,0.018,0.594,0,0.973
		c-0.019,0.378-0.05,0.747-0.095,1.106c-0.045,0.36-0.095,0.685-0.148,0.972c-0.055,0.289-0.108,0.486-0.162,0.595
		c-0.181,0.27-0.302,0.531-0.364,0.783c-0.063,0.252-0.176,0.495-0.338,0.729h-0.621h-0.432c-0.253,0-0.522-0.031-0.811-0.095
		c-0.288-0.063-0.432-0.185-0.432-0.364c-0.054-0.576-0.05-1.134,0.014-1.674c0.063-0.54,0.095-1.089,0.095-1.647
		c0-0.396-0.037-0.765-0.108-1.106C228.743,159.942,228.47,159.96,228.227,159.996z M230.076,153.732
		c-0.127,0.18-0.279,0.441-0.459,0.782c-0.181,0.343-0.324,0.631-0.433,0.864c-0.107,0.234-0.171,0.369-0.188,0.405l-0.217,1.08
		c0.198,0,0.369,0.026,0.514,0.081c0.144,0.054,0.27-0.009,0.378-0.189c0.126-0.197,0.233-0.454,0.324-0.77
		c0.09-0.314,0.157-0.63,0.202-0.944c0.045-0.315,0.076-0.607,0.095-0.878c0.018-0.27,0.026-0.459,0.026-0.567v-0.107
		C230.192,153.525,230.111,153.606,230.076,153.732z"/>
	<path fill="#D4AF8E" d="M234.53,146.55l0.081-0.485c0-0.019-0.022-0.063-0.067-0.136c-0.045-0.071-0.081-0.148-0.108-0.229
		c-0.026-0.081-0.031-0.157-0.013-0.229c0.018-0.071,0.099-0.116,0.242-0.135c0.486-0.071,0.923-0.126,1.31-0.162
		c0.387-0.035,0.761-0.071,1.121-0.107c0.54-0.018,1.138,0.013,1.795,0.094s1.391,0.122,2.201,0.122
		c0.413,0.018,0.756,0.031,1.025,0.04c0.271,0.01,0.526,0.032,0.77,0.067c0.243,0.037,0.504,0.095,0.783,0.176
		s0.625,0.203,1.039,0.364c0.072,0.288,0.122,0.496,0.149,0.621c0.026,0.126,0.058,0.221,0.094,0.284
		c0.036,0.063,0.09,0.121,0.162,0.175c0.072,0.055,0.207,0.145,0.405,0.271c0.216,0.036,0.392,0.067,0.526,0.095
		c0.135,0.026,0.261,0.054,0.378,0.081c0.117,0.026,0.185,0.04,0.202,0.04c-0.216,0.162-0.62,0.252-1.215,0.27
		c-0.594,0.019-1.211,0.032-1.85,0.041s-1.206,0.045-1.7,0.108c-0.496,0.063-0.752,0.211-0.77,0.445l0.026,0.107
		c0.036,0.055,0.171,0.136,0.405,0.243c0.233,0.108,0.387,0.181,0.459,0.216c-0.019,0.091-0.063,0.248-0.135,0.473
		c-0.072,0.226-0.108,0.383-0.108,0.473c-0.036,0.486-0.09,0.945-0.162,1.377s-0.157,0.869-0.256,1.31
		c-0.1,0.441-0.212,0.9-0.338,1.377c-0.126,0.478-0.252,0.995-0.378,1.553c-0.019,0.072-0.072,0.261-0.162,0.566
		c-0.09,0.307-0.185,0.645-0.283,1.013c-0.1,0.369-0.194,0.716-0.284,1.04c-0.09,0.323-0.144,0.531-0.161,0.621
		c-0.091,0.306-0.176,0.675-0.257,1.106s-0.167,0.878-0.257,1.337s-0.18,0.904-0.27,1.336c-0.091,0.433-0.176,0.814-0.257,1.147
		c-0.081,0.334-0.162,0.585-0.243,0.756c-0.081,0.172-0.148,0.212-0.202,0.122l-0.378-0.459l-0.567,0.378
		c-0.054,0.036-0.104,0.045-0.148,0.027c-0.045-0.019-0.095-0.036-0.148-0.055c-0.054-0.018-0.117-0.026-0.188-0.026
		c-0.072,0-0.162,0.045-0.271,0.135c-0.054,0.054-0.153,0.081-0.297,0.081c-0.198-0.018-0.441-0.045-0.729-0.081
		s-0.549,0-0.782,0.107c-0.091,0.055-0.162,0.055-0.217,0c-0.054-0.054-0.09-0.144-0.107-0.27c-0.019-0.126-0.027-0.261-0.027-0.405
		c0-0.144,0-0.27,0-0.378c0.018-0.197,0.059-0.368,0.122-0.513c0.063-0.144,0.13-0.297,0.202-0.459
		c0.071-0.162,0.148-0.352,0.229-0.567s0.14-0.494,0.176-0.837l2.241-11.69l0.297-1.242l-0.352-0.459
		c-0.036,0-0.171-0.027-0.404-0.081c-0.234-0.054-0.531-0.117-0.892-0.189c-0.36-0.071-0.647-0.135-0.864-0.188
		c-0.323-0.055-0.495-0.081-0.513-0.081L234.53,146.55z"/>
	<path fill="#D4AF8E" d="M248.017,159.996c-0.243,0.036-0.446,0.108-0.607,0.216c-0.324,0.216-0.577,0.526-0.757,0.932
		s-0.342,0.788-0.485,1.147c-0.145,0.36-0.302,0.644-0.473,0.851s-0.4,0.229-0.688,0.067c-0.091-0.054-0.221-0.04-0.392,0.041
		s-0.302,0.076-0.392-0.014c-0.198-0.198-0.373-0.36-0.526-0.486c-0.152-0.126-0.229-0.297-0.229-0.513
		c0-0.018,0.022-0.076,0.067-0.176c0.045-0.099,0.1-0.202,0.162-0.311c0.063-0.107,0.117-0.207,0.162-0.297s0.067-0.144,0.067-0.162
		c0-0.054-0.009-0.126-0.027-0.216c-0.018-0.09-0.04-0.18-0.067-0.271c-0.026-0.09-0.054-0.18-0.081-0.27
		c-0.026-0.09-0.04-0.152-0.04-0.189l2.835-5.211c-0.036-0.18-0.086-0.337-0.148-0.472c-0.063-0.136-0.077-0.274-0.041-0.419
		c0.055-0.233,0.157-0.481,0.311-0.742s0.284-0.5,0.392-0.716c0.108-0.198,0.297-0.594,0.567-1.188
		c0.27-0.594,0.558-1.232,0.864-1.917c0.306-0.684,0.598-1.331,0.877-1.943s0.481-1.026,0.607-1.242
		c0.198-0.359,0.459-0.648,0.783-0.864s0.692-0.324,1.107-0.324c0.107,0.091,0.166,0.172,0.175,0.243
		c0.009,0.072,0.018,0.136,0.027,0.189c0.009,0.054,0.045,0.107,0.107,0.162c0.063,0.054,0.203,0.09,0.419,0.107
		c0.324,0.324,0.58,0.698,0.77,1.121s0.347,0.859,0.473,1.31s0.216,0.9,0.27,1.35c0.055,0.45,0.108,0.864,0.162,1.242
		c0.018,0.145,0.018,0.324,0,0.54s-0.026,0.342-0.026,0.378l-1.998,7.722c0.018,0.271,0.018,0.594,0,0.973
		c-0.019,0.378-0.05,0.747-0.095,1.106c-0.045,0.36-0.095,0.685-0.148,0.972c-0.055,0.289-0.108,0.486-0.162,0.595
		c-0.181,0.27-0.302,0.531-0.364,0.783c-0.063,0.252-0.176,0.495-0.338,0.729h-0.621h-0.432c-0.253,0-0.522-0.031-0.811-0.095
		c-0.288-0.063-0.432-0.185-0.432-0.364c-0.054-0.576-0.05-1.134,0.014-1.674c0.063-0.54,0.095-1.089,0.095-1.647
		c0-0.396-0.037-0.765-0.108-1.106C248.533,159.942,248.26,159.96,248.017,159.996z M249.866,153.732
		c-0.127,0.18-0.279,0.441-0.459,0.782c-0.181,0.343-0.324,0.631-0.433,0.864c-0.107,0.234-0.171,0.369-0.188,0.405l-0.217,1.08
		c0.198,0,0.369,0.026,0.514,0.081c0.144,0.054,0.27-0.009,0.378-0.189c0.126-0.197,0.233-0.454,0.324-0.77
		c0.09-0.314,0.157-0.63,0.202-0.944c0.045-0.315,0.076-0.607,0.095-0.878c0.018-0.27,0.026-0.459,0.026-0.567v-0.107
		C249.982,153.525,249.901,153.606,249.866,153.732z"/>
	<path fill="#D4AF8E" d="M253.564,165.315c0-0.396,0.085-0.774,0.257-1.135c0.171-0.359,0.301-0.746,0.392-1.16
		c0.09-0.36,0.184-0.743,0.283-1.147c0.099-0.405,0.193-0.806,0.283-1.202c-0.036-0.018-0.076-0.054-0.121-0.107
		c-0.045-0.055-0.05-0.099-0.014-0.136c0-0.035,0.04-0.139,0.121-0.311c0.081-0.171,0.122-0.273,0.122-0.311
		c0.107-0.287,0.157-0.566,0.148-0.837c-0.01-0.27,0.031-0.558,0.121-0.863c0.09-0.288,0.212-0.702,0.364-1.242
		c0.153-0.54,0.302-1.084,0.446-1.634c0.144-0.549,0.278-1.048,0.404-1.498s0.207-0.738,0.243-0.864
		c0.072-0.198,0.153-0.468,0.243-0.811c0.09-0.341,0.176-0.701,0.257-1.079s0.148-0.743,0.202-1.094
		c0.054-0.352,0.081-0.625,0.081-0.823h-3.186c-0.198-0.108-0.324-0.18-0.379-0.217c-0.107-0.197-0.135-0.387-0.08-0.566
		c0.054-0.18,0.08-0.352,0.08-0.514c0-0.107-0.054-0.216-0.161-0.323c0.287-0.18,0.62-0.274,0.999-0.284
		c0.378-0.009,0.71-0.112,0.999-0.311v0.136c0.035-0.018,0.085-0.045,0.148-0.081c0.063-0.036,0.112-0.055,0.148-0.055
		c0.413-0.161,0.918-0.301,1.512-0.418s1.201-0.221,1.822-0.311s1.229-0.157,1.822-0.202c0.595-0.045,1.099-0.068,1.513-0.068
		c0.125,0,0.278,0.063,0.459,0.189c0.18,0.126,0.297,0.261,0.351,0.405h1.323c0.054,0.18,0.193,0.279,0.418,0.297
		c0.226,0.018,0.41,0.054,0.554,0.107c0.811,0.288,1.363,0.734,1.661,1.337c0.297,0.604,0.445,1.31,0.445,2.119
		c0,0.793-0.072,1.427-0.216,1.904c-0.145,0.477-0.352,0.891-0.621,1.241c-0.271,0.352-0.604,0.693-0.999,1.026
		c-0.396,0.333-0.847,0.761-1.351,1.282c0.072,0.091,0.162,0.162,0.271,0.216c0.107,0.055,0.211,0.118,0.311,0.189
		c0.099,0.072,0.193,0.162,0.283,0.27c0.09,0.108,0.162,0.271,0.216,0.486c0.126,0.36,0.226,0.774,0.297,1.242
		c0.072,0.468,0.108,0.801,0.108,0.999c0,0.054-0.005,0.112-0.014,0.176c-0.009,0.063-0.014,0.104-0.014,0.121
		c0,0.019-0.045,0.095-0.135,0.229s-0.135,0.229-0.135,0.283v0.162v0.297v0.324v0.162c0,0.019-0.022,0.063-0.067,0.135
		c-0.046,0.072-0.091,0.148-0.136,0.229s-0.09,0.162-0.135,0.243s-0.067,0.131-0.067,0.148v0.108c-0.145,0.18-0.4,0.45-0.77,0.81
		c-0.369,0.36-0.765,0.721-1.188,1.08c-0.424,0.36-0.847,0.675-1.27,0.945c-0.423,0.27-0.761,0.405-1.013,0.405
		c-0.504,0.09-1.044,0.125-1.619,0.107c-0.577-0.018-1.171-0.054-1.782-0.107c-0.126-0.072-0.207-0.118-0.243-0.136
		c-0.072-0.09-0.117-0.135-0.135-0.135h-0.055c-0.072,0-0.18,0.036-0.323,0.108c-0.145,0.071-0.293,0.152-0.446,0.242
		c-0.152,0.09-0.292,0.181-0.418,0.271s-0.198,0.162-0.216,0.216c-0.019,0.018,0.026,0.099,0.135,0.243
		c-0.019,0.036-0.072,0.076-0.162,0.121s-0.135,0.086-0.135,0.122c-0.036,0.107-0.055,0.188-0.055,0.243
		c-0.233,0-0.449,0.044-0.647,0.135c-0.198,0.09-0.423,0.135-0.675,0.135c-0.396,0-0.64-0.14-0.729-0.418
		C253.609,165.887,253.564,165.603,253.564,165.315z M255.266,158.322c-0.036,0-0.054,0.018-0.054,0.054
		c0,0.072,0.018,0.091,0.054,0.054C255.445,158.395,255.445,158.358,255.266,158.322z M260.233,157.701
		c-0.054,0.019-0.145,0.185-0.27,0.499c-0.127,0.315-0.248,0.667-0.365,1.054s-0.221,0.756-0.311,1.106
		c-0.09,0.352-0.135,0.581-0.135,0.688c0,0.036,0.004,0.1,0.014,0.189c0.009,0.09,0.014,0.153,0.014,0.188
		c0.216-0.107,0.49-0.252,0.823-0.432s0.657-0.387,0.972-0.621c0.315-0.233,0.59-0.481,0.824-0.742
		c0.233-0.261,0.351-0.535,0.351-0.824c0-0.413-0.112-0.701-0.338-0.863c-0.225-0.162-0.553-0.243-0.985-0.243H260.233z
		 M263.959,150.249v-0.188c0-0.162-0.022-0.347-0.067-0.554s-0.14-0.311-0.283-0.311h-1.485c-0.071,0-0.18,0.176-0.323,0.526
		c-0.145,0.351-0.288,0.747-0.433,1.188c-0.144,0.441-0.27,0.864-0.378,1.27c-0.107,0.405-0.162,0.652-0.162,0.742
		c0.108,0,0.315-0.09,0.621-0.27s0.63-0.387,0.973-0.621c0.341-0.233,0.651-0.459,0.931-0.675c0.279-0.217,0.446-0.369,0.5-0.459
		c0.018-0.019,0.036-0.099,0.054-0.243s0.036-0.261,0.054-0.352V150.249z"/>
	<path fill="#D4AF8E" d="M272.559,159.996c-0.243,0.036-0.446,0.108-0.607,0.216c-0.324,0.216-0.577,0.526-0.757,0.932
		s-0.342,0.788-0.485,1.147c-0.145,0.36-0.302,0.644-0.473,0.851s-0.4,0.229-0.688,0.067c-0.091-0.054-0.221-0.04-0.392,0.041
		s-0.302,0.076-0.392-0.014c-0.198-0.198-0.373-0.36-0.526-0.486c-0.152-0.126-0.229-0.297-0.229-0.513
		c0-0.018,0.022-0.076,0.067-0.176c0.045-0.099,0.1-0.202,0.162-0.311c0.063-0.107,0.117-0.207,0.162-0.297s0.067-0.144,0.067-0.162
		c0-0.054-0.009-0.126-0.027-0.216c-0.018-0.09-0.04-0.18-0.067-0.271c-0.026-0.09-0.054-0.18-0.081-0.27
		c-0.026-0.09-0.04-0.152-0.04-0.189l2.835-5.211c-0.036-0.18-0.086-0.337-0.148-0.472c-0.063-0.136-0.077-0.274-0.041-0.419
		c0.055-0.233,0.157-0.481,0.311-0.742s0.284-0.5,0.392-0.716c0.108-0.198,0.297-0.594,0.567-1.188
		c0.27-0.594,0.558-1.232,0.864-1.917c0.306-0.684,0.598-1.331,0.877-1.943s0.481-1.026,0.607-1.242
		c0.198-0.359,0.459-0.648,0.783-0.864s0.692-0.324,1.107-0.324c0.107,0.091,0.166,0.172,0.175,0.243
		c0.009,0.072,0.018,0.136,0.027,0.189c0.009,0.054,0.045,0.107,0.107,0.162c0.063,0.054,0.203,0.09,0.419,0.107
		c0.324,0.324,0.58,0.698,0.77,1.121s0.347,0.859,0.473,1.31s0.216,0.9,0.27,1.35c0.055,0.45,0.108,0.864,0.162,1.242
		c0.018,0.145,0.018,0.324,0,0.54s-0.026,0.342-0.026,0.378l-1.998,7.722c0.018,0.271,0.018,0.594,0,0.973
		c-0.019,0.378-0.05,0.747-0.095,1.106c-0.045,0.36-0.095,0.685-0.148,0.972c-0.055,0.289-0.108,0.486-0.162,0.595
		c-0.181,0.27-0.302,0.531-0.364,0.783c-0.063,0.252-0.176,0.495-0.338,0.729h-0.621h-0.432c-0.253,0-0.522-0.031-0.811-0.095
		c-0.288-0.063-0.432-0.185-0.432-0.364c-0.054-0.576-0.05-1.134,0.014-1.674c0.063-0.54,0.095-1.089,0.095-1.647
		c0-0.396-0.037-0.765-0.108-1.106C273.075,159.942,272.802,159.96,272.559,159.996z M274.408,153.732
		c-0.127,0.18-0.279,0.441-0.459,0.782c-0.181,0.343-0.324,0.631-0.433,0.864c-0.107,0.234-0.171,0.369-0.188,0.405l-0.217,1.08
		c0.198,0,0.369,0.026,0.514,0.081c0.144,0.054,0.27-0.009,0.378-0.189c0.126-0.197,0.233-0.454,0.324-0.77
		c0.09-0.314,0.157-0.63,0.202-0.944c0.045-0.315,0.076-0.607,0.095-0.878c0.018-0.27,0.026-0.459,0.026-0.567v-0.107
		C274.524,153.525,274.443,153.606,274.408,153.732z"/>
	<path fill="#D4AF8E" d="M281.968,164.154c-0.469-0.108-0.918-0.247-1.351-0.419c-0.432-0.171-0.828-0.378-1.188-0.621
		c-0.36-0.242-0.671-0.517-0.932-0.823c-0.262-0.306-0.445-0.647-0.554-1.026c-0.071-0.197-0.176-0.404-0.311-0.62
		c-0.135-0.217-0.229-0.423-0.283-0.621v-0.055c0.018-0.107,0.185-0.211,0.499-0.311c0.315-0.099,0.671-0.188,1.066-0.27
		c0.396-0.081,0.774-0.162,1.135-0.243c0.359-0.081,0.603-0.176,0.729-0.283c0.162-0.126,0.306-0.081,0.433,0.135
		c0.125,0.216,0.273,0.49,0.445,0.823c0.171,0.334,0.378,0.657,0.621,0.973c0.242,0.314,0.553,0.509,0.931,0.58
		c0.181,0.036,0.423,0.059,0.729,0.067c0.306,0.01,0.549,0.014,0.729,0.014c0.108-0.108,0.234-0.162,0.379-0.162
		c0.161,0,0.31-0.004,0.445-0.014c0.135-0.009,0.261-0.063,0.378-0.162c0.116-0.099,0.202-0.311,0.256-0.634v-0.081
		c0-0.018-0.004-0.081-0.013-0.189c-0.01-0.107-0.023-0.22-0.041-0.337s-0.031-0.226-0.04-0.324
		c-0.01-0.099-0.023-0.148-0.041-0.148c-0.432-0.342-0.814-0.652-1.147-0.932s-0.647-0.558-0.945-0.837
		c-0.297-0.279-0.594-0.571-0.891-0.878c-0.297-0.306-0.616-0.656-0.958-1.053c-0.162,0-0.293-0.045-0.392-0.135
		c-0.1-0.09-0.176-0.198-0.229-0.324c-0.055-0.126-0.108-0.257-0.162-0.392s-0.117-0.247-0.189-0.338
		c-0.018-0.035-0.059-0.099-0.121-0.188c-0.063-0.09-0.131-0.189-0.202-0.297c-0.072-0.108-0.14-0.212-0.203-0.311
		s-0.112-0.176-0.148-0.229c-0.414-0.342-0.725-0.688-0.932-1.04c-0.207-0.351-0.342-0.706-0.404-1.066
		c-0.063-0.359-0.081-0.733-0.055-1.12c0.027-0.387,0.076-0.797,0.148-1.229c0.036-0.198,0.099-0.437,0.189-0.716
		c0.09-0.278,0.206-0.554,0.351-0.823s0.311-0.518,0.5-0.742c0.188-0.226,0.4-0.392,0.634-0.5c0.685-0.306,1.485-0.499,2.403-0.58
		s1.772-0.059,2.565,0.067c0.216,0.036,0.445,0.104,0.688,0.202c0.243,0.1,0.494,0.203,0.756,0.311
		c0.261,0.108,0.517,0.216,0.77,0.324c0.252,0.108,0.495,0.188,0.729,0.243c0.018,0.09,0.14,0.185,0.365,0.283
		c0.225,0.1,0.477,0.226,0.756,0.378c0.278,0.153,0.553,0.324,0.823,0.513c0.27,0.189,0.459,0.401,0.567,0.635
		c0.054,0.108,0.121,0.234,0.202,0.378c0.081,0.145,0.162,0.288,0.243,0.433c0.081,0.144,0.144,0.288,0.188,0.432
		c0.045,0.145,0.059,0.279,0.041,0.405c-0.036,0.144-0.207,0.261-0.514,0.351c-0.306,0.091-0.657,0.167-1.053,0.229
		c-0.396,0.063-0.778,0.104-1.147,0.122c-0.369,0.018-0.626,0.018-0.77,0c-0.09-0.019-0.212-0.041-0.364-0.068
		c-0.153-0.026-0.257-0.085-0.311-0.175l-0.837-1.485c-0.072-0.09-0.212-0.152-0.419-0.188s-0.355-0.063-0.445-0.081
		c-0.288-0.055-0.585-0.099-0.891-0.136c-0.307-0.035-0.59-0.035-0.851,0c-0.262,0.037-0.481,0.127-0.662,0.271
		c-0.18,0.145-0.297,0.36-0.351,0.647c-0.019,0.127-0.054,0.262-0.108,0.405c-0.054,0.145-0.09,0.288-0.107,0.433
		c-0.019,0.144-0.014,0.288,0.014,0.432c0.026,0.145,0.112,0.279,0.256,0.405c0.36,0.342,0.685,0.644,0.973,0.904
		c0.287,0.261,0.563,0.513,0.823,0.756s0.521,0.49,0.783,0.742c0.261,0.253,0.544,0.54,0.851,0.864
		c0.162,0.198,0.314,0.364,0.459,0.499c0.144,0.136,0.323,0.293,0.54,0.473c0.144,0.126,0.311,0.279,0.499,0.459
		c0.189,0.181,0.378,0.365,0.567,0.554c0.188,0.189,0.368,0.378,0.54,0.567c0.171,0.188,0.311,0.355,0.418,0.499
		c0.108,0.198,0.225,0.424,0.352,0.675c0.125,0.253,0.287,0.45,0.485,0.595c-0.036,0.432-0.081,0.94-0.135,1.525
		s-0.117,1.084-0.188,1.498c-0.108,0.631-0.329,1.112-0.662,1.444c-0.333,0.334-0.747,0.577-1.242,0.729
		c-0.495,0.153-1.058,0.243-1.688,0.27c-0.63,0.027-1.287,0.05-1.971,0.068c-0.019,0-0.081,0-0.188,0c-0.091,0-0.208,0-0.352,0
		c-0.126,0-0.252,0-0.378,0s-0.226-0.01-0.297-0.027l-0.324-0.054c-0.036,0-0.099,0.026-0.188,0.081
		c-0.091,0.054-0.145,0.08-0.162,0.08c-0.145,0.019-0.243-0.031-0.297-0.148c-0.055-0.116-0.1-0.247-0.136-0.391L281.968,164.154z"
		/>
	<path fill="#D4AF8E" d="M291.362,163.182l0.027-0.08c0.145-0.055,0.266-0.126,0.364-0.217c0.099-0.09,0.148-0.152,0.148-0.188
		l-0.161-0.514c0.054-0.233,0.13-0.598,0.229-1.093c0.099-0.495,0.216-1.054,0.351-1.674c0.135-0.621,0.274-1.27,0.419-1.944
		c0.144-0.675,0.283-1.318,0.418-1.931c0.135-0.611,0.261-1.161,0.378-1.646c0.117-0.486,0.212-0.847,0.283-1.08
		c0.019-0.055,0.045-0.229,0.081-0.526c0.036-0.298,0.081-0.617,0.136-0.959c0.054-0.342,0.103-0.657,0.148-0.945
		c0.044-0.287,0.085-0.459,0.121-0.513c0.054-0.162,0.157-0.437,0.311-0.823c0.152-0.387,0.301-0.783,0.445-1.188
		c0.145-0.404,0.257-0.77,0.338-1.094c0.081-0.323,0.067-0.485-0.041-0.485c-0.018,0-0.059-0.018-0.121-0.054
		c-0.063-0.036-0.126-0.077-0.189-0.122c-0.063-0.045-0.107-0.095-0.135-0.148c-0.026-0.054-0.014-0.099,0.041-0.135
		c0.162-0.145,0.544-0.243,1.147-0.297c0.603-0.055,1.255-0.081,1.957-0.081s1.359,0.009,1.971,0.026
		c0.612,0.019,1.009,0.037,1.188,0.055l0.648,0.054c0.341,0.019,0.688,0.081,1.039,0.189c0.351,0.107,0.625,0.314,0.823,0.62
		c0.18,0.271,0.36,0.45,0.54,0.54c0.18,0.091,0.324,0.207,0.433,0.352c0.233,0.378,0.341,0.801,0.323,1.269
		c0,0.019-0.009,0.045-0.026,0.081c-0.036,0.036-0.091,0.1-0.162,0.189c-0.072,0.09-0.148,0.18-0.229,0.27
		c-0.081,0.091-0.162,0.176-0.243,0.257s-0.148,0.131-0.202,0.148c-0.091,0.019-0.194,0.009-0.311-0.027
		c-0.117-0.035-0.234-0.067-0.352-0.094c-0.117-0.027-0.229-0.036-0.337-0.027c-0.108,0.009-0.189,0.05-0.243,0.121
		c-0.054,0.091-0.248,0.153-0.581,0.189s-0.729,0.059-1.188,0.067s-0.94,0.014-1.444,0.014c-0.486,0-0.918,0.009-1.296,0.026
		c-0.037,0.091-0.081,0.253-0.136,0.486c-0.054,0.234-0.117,0.504-0.188,0.811c-0.072,0.306-0.148,0.625-0.229,0.958
		s-0.158,0.635-0.229,0.904l-0.027,0.135c0.018,0.019,0.054,0.055,0.108,0.108c0.054,0.054,0.099,0.091,0.135,0.108
		c0.233,0.018,0.513,0.045,0.837,0.081s0.652,0.081,0.985,0.135s0.662,0.117,0.985,0.188c0.324,0.072,0.604,0.162,0.837,0.271
		c0.09,0.054,0.145,0.14,0.162,0.257s0.027,0.247,0.027,0.391c-0.019,0.091-0.022,0.194-0.014,0.311
		c0.009,0.117,0.041,0.212,0.095,0.284c0.144,0.216,0.266,0.378,0.364,0.485c0.099,0.108,0.238,0.262,0.419,0.459
		c0.054,0.072,0.004,0.148-0.148,0.229c-0.153,0.081-0.334,0.158-0.54,0.229c-0.207,0.072-0.41,0.131-0.607,0.176
		c-0.198,0.045-0.315,0.067-0.352,0.067c-0.162,0.019-0.445,0.041-0.851,0.067c-0.404,0.027-0.837,0.055-1.296,0.081
		c-0.459,0.027-0.891,0.055-1.296,0.081c-0.405,0.027-0.688,0.041-0.851,0.041l-0.378,0.513l-0.837,3.321
		c0,0.18,0.144,0.292,0.432,0.337c0.288,0.046,0.639,0.067,1.054,0.067c0.413,0,0.846-0.009,1.296-0.026
		c0.449-0.018,0.837,0,1.161,0.054c0.071,0,0.166,0.063,0.283,0.189s0.238,0.274,0.364,0.445s0.238,0.347,0.338,0.526
		c0.099,0.18,0.166,0.324,0.202,0.432v0.136c-0.018,0.216-0.126,0.437-0.324,0.661c-0.198,0.226-0.495,0.364-0.891,0.418
		c-0.504,0.091-1.134,0.153-1.89,0.189c-0.757,0.036-1.485,0.054-2.188,0.054s-1.31-0.004-1.822-0.014
		c-0.513-0.009-0.779-0.013-0.797-0.013c-0.306-0.036-0.594-0.158-0.863-0.365C291.471,163.826,291.345,163.542,291.362,163.182z"/>
</g>
</svg>
