<svg version="1.1" id="mystery" xmlns="http://www.w3.org/2000/svg" xmlns:xlink="http://www.w3.org/1999/xlink" x="0px" y="0px"
	 width="50px" height="50px" viewBox="263.205 263.205 50 50" enable-background="new 263.205 263.205 50 50" xml:space="preserve">
	<defs>
		<style type="text/css">
	#mystery:hover .st0 
	{
		fill: #1b1b1a;
	}
	 	</style>
	</defs>
<g id="group">
	<path class="st0" fill="#DFAF8E" d="M313.072,291.236c-0.763,0.889-1.646,0.81-2.513,0.49c-1.205-0.443-2.39-0.946-3.569-1.457
		c-2.904-1.258-5.9-2.018-9.099-1.787c-2.446,0.178-4.836,0.649-7.136,1.488c-0.856,0.313-1.705,0.489-2.552,0.527
		c-0.847-0.038-1.695-0.215-2.551-0.527c-2.3-0.839-4.689-1.31-7.136-1.488c-3.198-0.231-6.193,0.529-9.098,1.787
		c-1.179,0.512-2.364,1.014-3.569,1.457c-0.867,0.319-1.75,0.398-2.512-0.49c-0.292,4.664,0.089,9.111,1.946,13.344
		c1.087,2.478,2.625,4.619,4.864,6.173c3.623,2.512,7.57,3.122,11.753,1.701c0.924-0.314,1.753-0.943,2.582-1.493
		c1.309-0.871,2.625-1.473,3.761-1.473s2.373,0.602,3.683,1.473c0.828,0.551,1.658,1.179,2.581,1.493
		c4.184,1.42,8.132,0.81,11.754-1.701c2.238-1.554,3.776-3.695,4.863-6.173C312.982,300.347,313.364,295.9,313.072,291.236z
		 M272.774,305.09c-4.098-2.139-5.016-8.481-5.016-8.481s5.267-1.993,9.365,0.145c4.099,2.139,5.477,7.6,5.477,7.6
		S276.873,307.228,272.774,305.09z M303.635,305.09c-4.099,2.138-9.826-0.737-9.826-0.737s1.379-5.461,5.477-7.6
		c4.099-2.138,9.366-0.145,9.366-0.145S307.733,302.952,303.635,305.09z"/>
</g>
</svg>
