<svg version="1.1" id="scifi" xmlns="http://www.w3.org/2000/svg" xmlns:xlink="http://www.w3.org/1999/xlink" x="0px" y="0px"
	 width="50px" height="50px" viewBox="-15 -15 50 50" enable-background="new -15 -15 50 50" xml:space="preserve">
	<defs>
		<style type="text/css">
	#scifi:hover .st0 
	{
		fill: #1b1b1a;
	}
	 	</style>
	</defs>
<g id="group">
	<path class="st0" fill="#DFAF8E" d="M32.679,29.775l-14.9-32.838c-0.171-0.397-0.308-1.069-0.308-1.5V-7.59c0-0.432,0.345-0.871,0.723-1.079
		c1.035-0.576,1.743-1.675,1.743-2.944c0-1.868-1.519-3.386-3.386-3.386H4.052c-1.868,0-3.386,1.519-3.386,3.386
		c0,1.152,0.581,2.169,1.465,2.778C2.484-8.59,2.817-8.119,2.817-7.688v3.495c0,0.433-0.146,1.099-0.33,1.489L-12.62,29.793
		c-0.605,1.301-0.584,2.624,0.055,3.627c0.64,1.004,1.832,1.58,3.268,1.58h38.523c1.428,0,2.629-0.576,3.288-1.58
		C33.179,32.417,33.24,31.089,32.679,29.775z M-1.693,15.635l-7.693,15.942c-0.077,0.159-0.237,0.251-0.402,0.251
		c-0.064,0-0.13-0.014-0.194-0.046c-0.221-0.104-0.314-0.371-0.208-0.596l7.694-15.942c0.105-0.22,0.374-0.314,0.596-0.207
		C-1.678,15.145-1.585,15.41-1.693,15.635z M21.385,13.193h-22.92c-0.432,0-0.635-0.317-0.453-0.708l6.82-14.67
		c0.182-0.391,0.283-1.057,0.283-1.489V-9.68c0-0.493-0.239-0.892-0.533-0.892H4.049c-0.574,0-1.042-0.467-1.042-1.042
		s0.468-1.042,1.042-1.042h12.499c0.576,0,1.043,0.468,1.043,1.042c0,0.574-0.467,1.042-1.043,1.042c0,0-0.313,0-0.698,0
		s-0.698,0.399-0.698,0.892v5.596c0,0.431,0.112,1.102,0.283,1.5l6.421,15.06C22.026,12.871,21.816,13.193,21.385,13.193z"/>
</g>
</svg>
