<?xml version="1.0" encoding="utf-8"?>
<!-- Generator: Adobe Illustrator 16.0.0, SVG Export Plug-In . SVG Version: 6.00 Build 0)  -->
<!DOCTYPE svg PUBLIC "-//W3C//DTD SVG 1.1//EN" "http://www.w3.org/Graphics/SVG/1.1/DTD/svg11.dtd">
<svg version="1.1" id="Capa_1" xmlns="http://www.w3.org/2000/svg" xmlns:xlink="http://www.w3.org/1999/xlink" x="0px" y="0px"
	 width="50px" height="50px" viewBox="130.211 130.21 50 50" enable-background="new 130.211 130.21 50 50" xml:space="preserve">
<g>
	<g>
		<path fill="#D4AF8E" d="M173.918,164.654c7.764-7.764,7.764-20.395,0-28.153c-7.761-7.762-20.391-7.762-28.152,0
			c-6.584,6.584-7.582,16.377-2.994,24.024c0,0,0.33,0.554-0.112,0.998c-2.539,2.539-10.157,10.156-10.157,10.156
			c-2.021,2.021-2.503,4.848-0.71,6.641l0.312,0.31c1.791,1.793,4.617,1.312,6.641-0.71c0,0,7.602-7.602,10.135-10.135
			c0.467-0.467,1.02-0.137,1.02-0.137C157.541,172.236,167.334,171.238,173.918,164.654z M149.441,160.979
			c-5.735-5.732-5.735-15.064,0-20.802c5.731-5.735,15.063-5.735,20.801,0c5.734,5.735,5.734,15.067,0,20.802
			C164.508,166.714,155.176,166.713,149.441,160.979z"/>
		<g>
			<path fill="#D4AF8E" d="M158.914,154.564c-0.87,0-1.581-0.711-1.581-1.58l-1.265-11.299c0-0.869,0.711-1.582,1.58-1.582h4.517
				c0.869,0,1.581,0.711,1.581,1.582l-1.266,11.299c0,0.869-0.711,1.58-1.58,1.58H158.914z"/>
			<path fill="#D4AF8E" d="M162.128,159.764c0,0.695-0.567,1.266-1.265,1.266h-1.914c-0.695,0-1.264-0.567-1.264-1.266v-1.914
				c0-0.695,0.565-1.265,1.264-1.265h1.914c0.695,0,1.265,0.569,1.265,1.265V159.764z"/>
		</g>
	</g>
</g>
</svg>
