<?xml version="1.0" encoding="utf-8"?>
<!-- Generator: Adobe Illustrator 16.0.0, SVG Export Plug-In . SVG Version: 6.00 Build 0)  -->
<!DOCTYPE svg PUBLIC "-//W3C//DTD SVG 1.1//EN" "http://www.w3.org/Graphics/SVG/1.1/DTD/svg11.dtd">
<svg version="1.1" id="Capa_1" xmlns="http://www.w3.org/2000/svg" xmlns:xlink="http://www.w3.org/1999/xlink" x="0px" y="0px"
	 width="50px" height="50px" viewBox="130.211 130.21 50 50" enable-background="new 130.211 130.21 50 50" xml:space="preserve">
<path fill="#D4AF8E" d="M173.918,164.654c7.764-7.764,7.764-20.394,0-28.153c-7.761-7.762-20.391-7.762-28.152,0
	c-6.584,6.584-7.582,16.377-2.994,24.024c0,0,0.33,0.554-0.113,0.998c-2.539,2.539-10.157,10.156-10.157,10.156
	c-2.021,2.021-2.503,4.848-0.71,6.641l0.311,0.31c1.791,1.793,4.617,1.312,6.641-0.71c0,0,7.601-7.602,10.135-10.135
	c0.466-0.467,1.02-0.137,1.02-0.137C157.541,172.236,167.334,171.238,173.918,164.654z M149.441,160.979
	c-5.735-5.733-5.735-15.065,0-20.802c5.732-5.735,15.064-5.735,20.801,0c5.734,5.735,5.734,15.067,0,20.802
	C164.508,166.714,155.176,166.713,149.441,160.979z"/>
</svg>
