<svg version="1.1" id="thriller" xmlns="http://www.w3.org/2000/svg" xmlns:xlink="http://www.w3.org/1999/xlink" x="0px" y="0px"
	 width="50px" height="50px" viewBox="391.85 391.85 50 50" enable-background="new 391.85 391.85 50 50" xml:space="preserve">
	<defs>
		<style type="text/css">
	#thriller:hover .st0 
	{
		fill: #1b1b1a;
	}
	 	</style>
	</defs>
<g id="group">
	<path class="st0" fill="#DFAF8E" d="M416.846,392.33c-12.252,0.006-22.188,9.941-22.188,22.2v10.459c0,0.552,0.259,1.07,0.7,1.404l9.541,7.241
		v5.972c0,0.976,0.788,1.764,1.764,1.764h1.418c0.977,0,1.764-0.788,1.764-1.764v-2.424c0-0.618,0.5-1.118,1.118-1.118l0,0
		c0.618,0,1.118,0.5,1.118,1.118v2.424c0,0.976,0.789,1.764,1.765,1.764h0.059c0.977,0,1.765-0.788,1.765-1.764v-2.424
		c0-0.618,0.5-1.118,1.118-1.118h0.118c0.618,0,1.118,0.5,1.118,1.118v2.424c0,0.976,0.788,1.764,1.765,1.764h0.059
		c0.977,0,1.765-0.788,1.765-1.764v-2.424c0-0.618,0.5-1.118,1.117-1.118l0,0c0.618,0,1.118,0.5,1.118,1.118v2.424
		c0,0.976,0.788,1.764,1.765,1.764h1.424c0.976,0,1.765-0.788,1.765-1.764v-5.977l9.541-7.242c0.44-0.335,0.699-0.852,0.699-1.405
		v-10.458C439.034,402.271,429.099,392.336,416.846,392.33z M407.57,425.159c-3.376,0-6.117-2.741-6.117-6.117
		c0-3.377,2.741-6.118,6.117-6.118s6.118,2.741,6.118,6.118C413.688,422.422,410.946,425.159,407.57,425.159z M418.587,429.659
		h-3.477c-0.805,0-1.318-0.865-0.929-1.57l1.741-3.16c0.399-0.729,1.454-0.729,1.852,0l1.742,3.16
		C419.899,428.793,419.388,429.659,418.587,429.659z M426.123,425.159c-3.377,0-6.118-2.741-6.118-6.117
		c0-3.377,2.741-6.118,6.118-6.118c3.376,0,6.117,2.741,6.117,6.118C432.24,422.422,429.504,425.159,426.123,425.159z"/>
</g>
</svg>
